{
.appVersion = "1356";
DisplayStrings = (
"/psi-cy/psi-cy.titl/mu u/phi/upsilon/psi/mu.titl/phi.titl/psi.titl"
);
classes = (
{
automatic = 1;

glyphs = (
{
color = 4;
glyphname = A;
lastChange = "2019-02-05 21:48:03 +0000";
layers = (
{
anchors = (
{
name = bottom;
position = "{376, 0}";
},
{
name = ogonek;
position = "{787, 0}";
},
{
name = top;
position = "{498, 680}";
}
);
layerId = UUID0;
leftMetricsKey = "=-10";
rightMetricsKey = "=-10";
paths = (
{
closed = 1;
nodes = (
"181 0 LINE",
"467 489 LINE",
"566 0 LINE",
"790 0 LINE",
"610 680 LINE",
"390 680 LINE",
"-67 0 LINE"
);
},
{
closed = 1;
nodes = (
"548 129 LINE",
"521 301 LINE",
"303 301 LINE",
"197 129 LINE"
);
}
);
width = 837;
},
{
anchors = (
{
name = bottom;
position = "{306, 0}";
},
{
name = ogonek;
position = "{668, 0}";
},
{
name = top;
position = "{461, 680}";
}
);
layerId = "C8A0F6C7-7618-41E1-A0A3-A261758331D0";
leftMetricsKey = "=2";
rightMetricsKey = "=2";
paths = (
{
closed = 1;
nodes = (
"9 0 LINE",
"450 624 LINE",
"611 0 LINE",
"668 0 LINE",
"485 680 LINE",
"437 680 LINE",
"-50 0 LINE"
);
},
{
closed = 1;
nodes = (
"571 189 LINE",
"560 230 LINE",
"153 230 LINE",
"124 189 LINE"
);
}
);
width = 722;
},
{
anchors = (
{
name = bottom;
position = "{309, 0}";
},
{
name = ogonek;
position = "{666, 0}";
},
{
name = top;
position = "{453, 680}";
}
);
layerId = "3FCD75D8-58B8-44DB-99C9-FF8F25B81242";
leftMetricsKey = "=-2";
rightMetricsKey = "=-2";
paths = (
{
closed = 1;
nodes = (
"43 0 LINE",
"438 585 LINE",
"577 0 LINE",
"666 0 LINE",
"496 680 LINE",
"415 680 LINE",
"-54 0 LINE"
);
},
{
closed = 1;
nodes = (
"544 179 LINE",
"528 251 LINE",
"182 251 LINE",
"132 179 LINE"
);
}
);
width = 716;
}
);
leftKerningGroup = A;
rightKerningGroup = A;
unicode = 0041;
},
{
color = 4;
glyphname = "Alpha-latin";
lastChange = "2019-02-05 21:48:03 +0000";
layers = (
{
anchors = (
{
name = bottom;
position = "{383, 0}";
},
{
name = top;
position = "{473, 680}";
}
);
guideLines = (
{
angle = 77;
position = "{721, 323}";
}
);
layerId = "C8A0F6C7-7618-41E1-A0A3-A261758331D0";
paths = (
{
closed = 1;
nodes = (
"507 -12 OFFCURVE",
"607 39 OFFCURVE",
"675 120 CURVE",
"646 0 LINE",
"698 0 LINE",
"855 680 LINE",
"803 680 LINE",
"761 501 LINE",
"713 624 OFFCURVE",
"610 692 OFFCURVE",
"465 692 CURVE SMOOTH",
"240 692 OFFCURVE",
"76 529 OFFCURVE",
"76 310 CURVE SMOOTH",
"76 117 OFFCURVE",
"203 -12 OFFCURVE",
"390 -12 CURVE SMOOTH"
);
},
{
closed = 1;
nodes = (
"237 29 OFFCURVE",
"130 142 OFFCURVE",
"130 310 CURVE SMOOTH",
"130 504 OFFCURVE",
"272 651 OFFCURVE",
"468 651 CURVE SMOOTH",
"625 651 OFFCURVE",
"730 545 OFFCURVE",
"730 391 CURVE SMOOTH",
"730 186 OFFCURVE",
"577 29 OFFCURVE",
"391 29 CURVE SMOOTH"
);
}
);
width = 850;
},
{
anchors = (
{
name = bottom;
position = "{312, 0}";
},
{
name = top;
position = "{432, 680}";
}
);
layerId = UUID0;
paths = (
{
closed = 1;
nodes = (
"352 -15 OFFCURVE",
"417 2 OFFCURVE",
"480 59 CURVE",
"465 0 LINE",
"683 0 LINE",
"840 680 LINE",
"620 680 LINE",
"606 619 LINE",
"568 666 OFFCURVE",
"503 695 OFFCURVE",
"430 695 CURVE SMOOTH",
"214 695 OFFCURVE",
"37 551 OFFCURVE",
"37 275 CURVE SMOOTH",
"37 101 OFFCURVE",
"145 -15 OFFCURVE",
"286 -15 CURVE SMOOTH"
);
},
{
closed = 1;
nodes = (
"305 199 OFFCURVE",
"258 258 OFFCURVE",
"258 330 CURVE SMOOTH",
"258 412 OFFCURVE",
"329 485 OFFCURVE",
"413 485 CURVE SMOOTH",
"502 485 OFFCURVE",
"548 426 OFFCURVE",
"548 354 CURVE SMOOTH",
"548 268 OFFCURVE",
"473 199 OFFCURVE",
"391 199 CURVE SMOOTH"
);
}
);
width = 790;
},
{
anchors = (
{
name = bottom;
position = "{372, 0}";
},
{
name = top;
position = "{472, 680}";
}
);
layerId = "3FCD75D8-58B8-44DB-99C9-FF8F25B81242";
paths = (
{
closed = 1;
nodes = (
"485 -12 OFFCURVE",
"578 32 OFFCURVE",
"638 95 CURVE",
"617 0 LINE",
"701 0 LINE",
"857 680 LINE",
"770 680 LINE",
"740 545 LINE",
"686 640 OFFCURVE",
"588 692 OFFCURVE",
"469 692 CURVE SMOOTH",
"250 692 OFFCURVE",
"70 541 OFFCURVE",
"70 295 CURVE SMOOTH",
"70 111 OFFCURVE",
"192 -12 OFFCURVE",
"375 -12 CURVE SMOOTH"
);
},
{
closed = 1;
nodes = (
"248 61 OFFCURVE",
"157 157 OFFCURVE",
"157 301 CURVE SMOOTH",
"157 498 OFFCURVE",
"297 619 OFFCURVE",
"459 619 CURVE SMOOTH",
"629 619 OFFCURVE",
"699 515 OFFCURVE",
"699 394 CURVE SMOOTH",
"699 220 OFFCURVE",
"563 61 OFFCURVE",
"385 61 CURVE SMOOTH"
);
}
);
width = 853;
}
);
leftKerningGroup = O;
leftMetricsKey = O;
rightKerningGroup = H;
rightMetricsKey = H;
unicode = 2C6D;
},
{
color = 4;
glyphname = Aring;
lastChange = "2019-02-05 21:48:03 +0000";
layers = (
{
anchors = (
{
name = top;
position = "{518, 770}";
}
);
components = (
{
name = A;
}
);
guideLines = (
{
position = "{427, 632}";
}
);
layerId = UUID0;
paths = (
{
closed = 1;
nodes = (
"584 567 OFFCURVE",
"662 636 OFFCURVE",
"662 740 CURVE SMOOTH",
"662 827 OFFCURVE",
"599 883 OFFCURVE",
"511 883 CURVE SMOOTH",
"414 883 OFFCURVE",
"332 816 OFFCURVE",
"332 710 CURVE SMOOTH",
"332 622 OFFCURVE",
"397 567 OFFCURVE",
"483 567 CURVE SMOOTH"
);
},
{
closed = 1;
nodes = (
"464 680 OFFCURVE",
"450 699 OFFCURVE",
"450 724 CURVE SMOOTH",
"450 749 OFFCURVE",
"471 772 OFFCURVE",
"501 772 CURVE SMOOTH",
"530 772 OFFCURVE",
"544 752 OFFCURVE",
"544 728 CURVE SMOOTH",
"544 701 OFFCURVE",
"522 680 OFFCURVE",
"493 680 CURVE SMOOTH"
);
}
);
width = 837;
},
{
anchors = (
{
name = top;
position = "{480, 776}";
}
);
components = (
{
name = A;
}
);
guideLines = (
{
position = "{506, 648}";
}
);
layerId = "C8A0F6C7-7618-41E1-A0A3-A261758331D0";
paths = (
{
closed = 1;
nodes = (
"537 641 OFFCURVE",
"588 693 OFFCURVE",
"588 758 CURVE SMOOTH",
"588 813 OFFCURVE",
"546 854 OFFCURVE",
"487 854 CURVE SMOOTH",
"419 854 OFFCURVE",
"368 802 OFFCURVE",
"368 738 CURVE SMOOTH",
"368 680 OFFCURVE",
"411 641 OFFCURVE",
"469 641 CURVE SMOOTH"
);
},
{
closed = 1;
nodes = (
"437 680 OFFCURVE",
"410 706 OFFCURVE",
"410 742 CURVE SMOOTH",
"410 784 OFFCURVE",
"445 815 OFFCURVE",
"484 815 CURVE SMOOTH",
"517 815 OFFCURVE",
"546 790 OFFCURVE",
"546 755 CURVE SMOOTH",
"546 713 OFFCURVE",
"511 680 OFFCURVE",
"471 680 CURVE SMOOTH"
);
}
);
width = 722;
},
{
anchors = (
{
name = top;
position = "{464, 776}";
}
);
components = (
{
name = A;
}
);
layerId = "3FCD75D8-58B8-44DB-99C9-FF8F25B81242";
paths = (
{
closed = 1;
nodes = (
"520 625 OFFCURVE",
"580 680 OFFCURVE",
"580 751 CURVE SMOOTH",
"580 813 OFFCURVE",
"535 860 OFFCURVE",
"468 860 CURVE SMOOTH",
"396 860 OFFCURVE",
"337 806 OFFCURVE",
"337 734 CURVE SMOOTH",
"337 674 OFFCURVE",
"379 625 OFFCURVE",
"449 625 CURVE SMOOTH"
);
},
{
closed = 1;
nodes = (
"420 681 OFFCURVE",
"398 705 OFFCURVE",
"398 735 CURVE SMOOTH",
"398 777 OFFCURVE",
"430 804 OFFCURVE",
"466 804 CURVE SMOOTH",
"498 804 OFFCURVE",
"522 782 OFFCURVE",
"522 748 CURVE SMOOTH",
"522 708 OFFCURVE",
"489 681 OFFCURVE",
"454 681 CURVE SMOOTH"
);
}
);
width = 716;
}
);
leftKerningGroup = A;
leftMetricsKey = A;
rightKerningGroup = A;
rightMetricsKey = A;
unicode = 00C5;
},
{
color = 4;
glyphname = Astroke;
lastChange = "2019-02-05 21:48:03 +0000";
layers = (
{
components = (
{
name = A;
}
);
guideLines = (
{
angle = 64.3864;
position = "{438, 340}";
}
);
layerId = UUID0;
paths = (
{
closed = 1;
nodes = (
"383 -90 LINE",
"904 770 LINE",
"714 770 LINE",
"193 -90 LINE"
);
}
);
width = 837;
},
{
components = (
{
name = A;
}
);
layerId = "C8A0F6C7-7618-41E1-A0A3-A261758331D0";
paths = (
{
closed = 1;
nodes = (
"152 -90 LINE",
"778 769 LINE",
"722 769 LINE",
"96 -90 LINE"
);
}
);
width = 722;
},
{
components = (
{
name = A;
}
);
layerId = "3FCD75D8-58B8-44DB-99C9-FF8F25B81242";
paths = (
{
closed = 1;
nodes = (
"186 -90 LINE",
"797 770 LINE",
"714 770 LINE",
"103 -90 LINE"
);
}
);
width = 716;
}
);
leftKerningGroup = A;
leftMetricsKey = A;
rightKerningGroup = A;
rightMetricsKey = A;
unicode = 023A;
},
{
color = 4;
glyphname = AE;
lastChange = "2019-02-05 21:48:03 +0000";
layers = (
{
anchors = (
{
name = bottom;
position = "{510, 0}";
},
{
name = top;
position = "{602, 680}";
}
);
layerId = UUID0;
paths = (
{
closed = 1;
nodes = (
"181 0 LINE",
"256 129 LINE",
"540 129 LINE",
"566 0 LINE",
"936 0 LINE",
"978 182 LINE",
"742 182 LINE",
"723 255 LINE",
"895 255 LINE",
"937 435 LINE",
"675 435 LINE",
"658 498 LINE",
"850 498 LINE",
"892 680 LINE",
"390 680 LINE",
"-67 0 LINE"
);
},
{
closed = 1;
nodes = (
"467 489 LINE",
"505 301 LINE",
"357 301 LINE"
);
}
);
width = 1013;
},
{
anchors = (
{
name = bottom;
position = "{512, 0}";
},
{
name = top;
position = "{589, 680}";
}
);
layerId = "C8A0F6C7-7618-41E1-A0A3-A261758331D0";
paths = (
{
closed = 1;
nodes = (
"9 0 LINE",
"143 189 LINE",
"562 189 LINE",
"611 0 LINE",
"900 0 LINE",
"910 41 LINE",
"654 41 LINE",
"576 330 LINE",
"848 330 LINE",
"858 371 LINE",
"565 371 LINE",
"496 639 LINE",
"782 639 LINE",
"791 680 LINE",
"437 680 LINE",
"-50 0 LINE"
);
},
{
closed = 1;
nodes = (
"450 624 LINE",
"552 230 LINE",
"172 230 LINE"
);
}
);
width = 962;
},
{
anchors = (
{
name = bottom;
position = "{483, 0}";
},
{
name = top;
position = "{597, 680}";
}
);
layerId = "3FCD75D8-58B8-44DB-99C9-FF8F25B81242";
paths = (
{
closed = 1;
nodes = (
"43 0 LINE",
"164 179 LINE",
"534 179 LINE",
"577 0 LINE",
"852 0 LINE",
"868 72 LINE",
"648 72 LINE",
"587 315 LINE",
"831 315 LINE",
"848 386 LINE",
"570 386 LINE",
"514 609 LINE",
"803 609 LINE",
"820 680 LINE",
"415 680 LINE",
"-54 0 LINE"
);
},
{
closed = 1;
nodes = (
"438 585 LINE",
"517 251 LINE",
"212 251 LINE"
);
}
);
width = 901;
}
);
leftKerningGroup = A;
leftMetricsKey = A;
rightKerningGroup = AE;
unicode = 00C6;
},
{
color = 4;
glyphname = B;
lastChange = "2019-02-05 21:48:03 +0000";
layers = (
{
anchors = (
{
name = bottom;
position = "{259, 0}";
},
{
name = top;
position = "{379, 680}";
}
);
layerId = UUID0;
rightMetricsKey = "=14";
paths = (
{
closed = 1;
nodes = (
"319 0 LINE SMOOTH",
"509 0 OFFCURVE",
"622 84 OFFCURVE",
"622 227 CURVE SMOOTH",
"622 315 OFFCURVE",
"565 376 OFFCURVE",
"468 385 CURVE",
"465 369 LINE",
"524 360 OFFCURVE",
"642 410 OFFCURVE",
"642 524 CURVE SMOOTH",
"642 631 OFFCURVE",
"563 680 OFFCURVE",
"412 680 CURVE SMOOTH",
"150 680 LINE",
"-6 0 LINE"
);
},
{
closed = 1;
nodes = (
"284 281 LINE",
"347 281 LINE SMOOTH",
"382 281 OFFCURVE",
"401 263 OFFCURVE",
"402 231 CURVE SMOOTH",
"403 192 OFFCURVE",
"370 162 OFFCURVE",
"320 162 CURVE SMOOTH",
"256 162 LINE"
);
},
{
closed = 1;
nodes = (
"338 518 LINE",
"388 518 LINE SMOOTH",
"423 518 OFFCURVE",
"433 500 OFFCURVE",
"433 478 CURVE SMOOTH",
"433 445 OFFCURVE",
"410 415 OFFCURVE",
"360 415 CURVE SMOOTH",
"314 415 LINE"
);
}
);
width = 647;
},
{
anchors = (
{
name = bottom;
position = "{225, 0}";
},
{
name = top;
position = "{347, 680}";
}
);
layerId = "C8A0F6C7-7618-41E1-A0A3-A261758331D0";
rightMetricsKey = "=45";
paths = (
{
closed = 1;
nodes = (
"258 0 LINE SMOOTH",
"409 0 OFFCURVE",
"506 88 OFFCURVE",
"506 214 CURVE SMOOTH",
"506 316 OFFCURVE",
"438 373 OFFCURVE",
"336 373 CURVE",
"361 343 LINE",
"464 357 OFFCURVE",
"531 447 OFFCURVE",
"531 534 CURVE SMOOTH",
"531 616 OFFCURVE",
"468 680 OFFCURVE",
"374 680 CURVE SMOOTH",
"205 680 LINE",
"48 0 LINE"
);
},
{
closed = 1;
nodes = (
"175 332 LINE",
"326 332 LINE SMOOTH",
"342 332 OFFCURVE",
"456 332 OFFCURVE",
"456 212 CURVE SMOOTH",
"456 109 OFFCURVE",
"372 41 OFFCURVE",
"258 41 CURVE SMOOTH",
"108 41 LINE"
);
},
{
closed = 1;
nodes = (
"246 639 LINE",
"366 639 LINE SMOOTH",
"435 639 OFFCURVE",
"481 592 OFFCURVE",
"481 527 CURVE SMOOTH",
"481 432 OFFCURVE",
"385 373 OFFCURVE",
"325 373 CURVE SMOOTH",
"185 373 LINE"
);
}
);
width = 559;
},
{
anchors = (
{
name = bottom;
position = "{249, 0}";
},
{
name = top;
position = "{375, 680}";
}
);
layerId = "3FCD75D8-58B8-44DB-99C9-FF8F25B81242";
rightMetricsKey = "=40";
paths = (
{
closed = 1;
nodes = (
"289 0 LINE SMOOTH",
"437 0 OFFCURVE",
"536 86 OFFCURVE",
"536 216 CURVE SMOOTH",
"536 304 OFFCURVE",
"483 373 OFFCURVE",
"383 365 CURVE",
"401 347 LINE",
"495 365 OFFCURVE",
"555 440 OFFCURVE",
"555 527 CURVE SMOOTH",
"555 619 OFFCURVE",
"486 680 OFFCURVE",
"380 680 CURVE SMOOTH",
"205 680 LINE",
"48 0 LINE"
);
},
{
closed = 1;
nodes = (
"207 316 LINE",
"340 316 LINE SMOOTH",
"410 316 OFFCURVE",
"452 276 OFFCURVE",
"452 208 CURVE SMOOTH",
"452 126 OFFCURVE",
"392 72 OFFCURVE",
"301 72 CURVE SMOOTH",
"151 72 LINE"
);
},
{
closed = 1;
nodes = (
"275 609 LINE",
"370 609 LINE SMOOTH",
"431 609 OFFCURVE",
"472 575 OFFCURVE",
"472 519 CURVE SMOOTH",
"472 440 OFFCURVE",
"418 387 OFFCURVE",
"338 387 CURVE SMOOTH",
"224 387 LINE"
);
}
);
width = 585;
}
);
leftKerningGroup = H;
leftMetricsKey = H;
rightKerningGroup = B;
unicode = 0042;
},
{
color = 4;
glyphname = Bhook;
lastChange = "2019-02-05 23:28:39 +0000";
layers = (
{
layerId = UUID0;
paths = (
{
closed = 1;
nodes = (
"555 0 LINE SMOOTH",
"745 0 OFFCURVE",
"858 84 OFFCURVE",
"858 227 CURVE SMOOTH",
"858 315 OFFCURVE",
"801 376 OFFCURVE",
"704 385 CURVE",
"701 369 LINE",
"760 360 OFFCURVE",
"878 410 OFFCURVE",
"878 524 CURVE SMOOTH",
"878 631 OFFCURVE",
"799 680 OFFCURVE",
"648 680 CURVE SMOOTH",
"386 680 LINE",
"230 0 LINE"
);
},
{
closed = 1;
nodes = (
"520 281 LINE",
"583 281 LINE SMOOTH",
"618 281 OFFCURVE",
"637 263 OFFCURVE",
"638 231 CURVE SMOOTH",
"639 192 OFFCURVE",
"606 162 OFFCURVE",
"556 162 CURVE SMOOTH",
"492 162 LINE"
);
},
{
closed = 1;
nodes = (
"246 401 LINE",
"243 412 OFFCURVE",
"241 427 OFFCURVE",
"241 438 CURVE SMOOTH",
"241 484 OFFCURVE",
"272 506 OFFCURVE",
"319 506 CURVE SMOOTH",
"346 506 LINE",
"685 680 LINE",
"315 680 LINE SMOOTH",
"163 680 OFFCURVE",
"61 592 OFFCURVE",
"61 460 CURVE SMOOTH",
"61 441 OFFCURVE",
"63 420 OFFCURVE",
"67 401 CURVE"
);
},
{
closed = 1;
nodes = (
"574 518 LINE",
"624 518 LINE SMOOTH",
"659 518 OFFCURVE",
"669 500 OFFCURVE",
"669 478 CURVE SMOOTH",
"669 445 OFFCURVE",
"646 415 OFFCURVE",
"596 415 CURVE SMOOTH",
"550 415 LINE"
);
}
);
width = 883;
},
{
layerId = "C8A0F6C7-7618-41E1-A0A3-A261758331D0";
paths = (
{
closed = 1;
nodes = (
"386 0 LINE SMOOTH",
"537 0 OFFCURVE",
"634 88 OFFCURVE",
"634 214 CURVE SMOOTH",
"634 316 OFFCURVE",
"566 373 OFFCURVE",
"464 373 CURVE",
"489 343 LINE",
"592 357 OFFCURVE",
"659 447 OFFCURVE",
"659 534 CURVE SMOOTH",
"659 616 OFFCURVE",
"596 680 OFFCURVE",
"502 680 CURVE SMOOTH",
"333 680 LINE",
"176 0 LINE"
);
},
{
closed = 1;
nodes = (
"303 332 LINE",
"454 332 LINE SMOOTH",
"470 332 OFFCURVE",
"584 332 OFFCURVE",
"584 212 CURVE SMOOTH",
"584 109 OFFCURVE",
"500 41 OFFCURVE",
"386 41 CURVE SMOOTH",
"236 41 LINE"
);
},
{
closed = 1;
nodes = (
"132 456 LINE",
"128 472 OFFCURVE",
"126 488 OFFCURVE",
"126 508 CURVE SMOOTH",
"126 587 OFFCURVE",
"184 639 OFFCURVE",
"272 639 CURVE SMOOTH",
"323 639 LINE",
"493 680 LINE",
"278 680 LINE SMOOTH",
"156 680 OFFCURVE",
"75 611 OFFCURVE",
"75 507 CURVE SMOOTH",
"75 492 OFFCURVE",
"77 471 OFFCURVE",
"81 456 CURVE"
);
},
{
closed = 1;
nodes = (
"374 639 LINE",
"494 639 LINE SMOOTH",
"563 639 OFFCURVE",
"609 592 OFFCURVE",
"609 527 CURVE SMOOTH",
"609 432 OFFCURVE",
"513 373 OFFCURVE",
"453 373 CURVE SMOOTH",
"313 373 LINE"
);
}
);
width = 687;
},
{
layerId = "3FCD75D8-58B8-44DB-99C9-FF8F25B81242";
paths = (
{
closed = 1;
nodes = (
"405 0 LINE SMOOTH",
"553 0 OFFCURVE",
"652 86 OFFCURVE",
"652 216 CURVE SMOOTH",
"652 310 OFFCURVE",
"602 365 OFFCURVE",
"499 365 CURVE",
"517 347 LINE",
"611 365 OFFCURVE",
"671 440 OFFCURVE",
"671 527 CURVE SMOOTH",
"671 619 OFFCURVE",
"602 680 OFFCURVE",
"496 680 CURVE SMOOTH",
"321 680 LINE",
"164 0 LINE"
);
},
{
closed = 1;
nodes = (
"323 316 LINE",
"456 316 LINE SMOOTH",
"526 316 OFFCURVE",
"568 276 OFFCURVE",
"568 208 CURVE SMOOTH",
"568 126 OFFCURVE",
"508 72 OFFCURVE",
"417 72 CURVE SMOOTH",
"267 72 LINE"
);
},
{
closed = 1;
nodes = (
"146 449 LINE",
"140 465 OFFCURVE",
"136 492 OFFCURVE",
"136 512 CURVE SMOOTH",
"136 572 OFFCURVE",
"181 609 OFFCURVE",
"249 609 CURVE SMOOTH",
"307 609 LINE",
"458 680 LINE",
"251 680 LINE SMOOTH",
"131 680 OFFCURVE",
"55 614 OFFCURVE",
"55 515 CURVE SMOOTH",
"55 494 OFFCURVE",
"59 468 OFFCURVE",
"66 449 CURVE"
);
},
{
closed = 1;
nodes = (
"391 609 LINE",
"486 609 LINE SMOOTH",
"547 609 OFFCURVE",
"588 575 OFFCURVE",
"588 519 CURVE SMOOTH",
"588 440 OFFCURVE",
"534 387 OFFCURVE",
"454 387 CURVE SMOOTH",
"340 387 LINE"
);
}
);
width = 701;
}
);
leftKerningGroup = Bhook;
rightKerningGroup = B;
rightMetricsKey = B;
unicode = 0181;
},
{
color = 4;
glyphname = Bstroke;
lastChange = "2019-02-05 21:48:03 +0000";
layers = (
{
anchors = (
{
name = bottom;
position = "{303, 0}";
},
{
name = top;
position = "{412, 680}";
}
);
layerId = UUID0;
paths = (
{
closed = 1;
nodes = (
"352 0 LINE SMOOTH",
"542 0 OFFCURVE",
"655 84 OFFCURVE",
"655 227 CURVE SMOOTH",
"655 315 OFFCURVE",
"598 376 OFFCURVE",
"501 385 CURVE",
"498 369 LINE",
"557 360 OFFCURVE",
"675 410 OFFCURVE",
"675 524 CURVE SMOOTH",
"675 631 OFFCURVE",
"596 680 OFFCURVE",
"445 680 CURVE SMOOTH",
"183 680 LINE",
"27 0 LINE"
);
},
{
closed = 1;
nodes = (
"177 131 LINE",
"181 151 LINE",
"351 151 LINE",
"384 291 LINE",
"214 291 LINE",
"218 311 LINE",
"20 311 LINE",
"-21 131 LINE"
);
},
{
closed = 1;
nodes = (
"323 311 LINE",
"376 311 LINE SMOOTH",
"418 311 OFFCURVE",
"438 290 OFFCURVE",
"438 251 CURVE SMOOTH",
"438 180 OFFCURVE",
"398 132 OFFCURVE",
"338 132 CURVE SMOOTH",
"281 132 LINE"
);
},
{
closed = 1;
nodes = (
"371 518 LINE",
"421 518 LINE SMOOTH",
"456 518 OFFCURVE",
"466 500 OFFCURVE",
"466 478 CURVE SMOOTH",
"466 445 OFFCURVE",
"443 415 OFFCURVE",
"393 415 CURVE SMOOTH",
"347 415 LINE"
);
}
);
width = 680;
},
{
anchors = (
{
name = bottom;
position = "{245, 0}";
},
{
name = top;
position = "{364, 680}";
}
);
layerId = "C8A0F6C7-7618-41E1-A0A3-A261758331D0";
paths = (
{
closed = 1;
nodes = (
"256 0 LINE SMOOTH",
"407 0 OFFCURVE",
"504 88 OFFCURVE",
"504 214 CURVE SMOOTH",
"504 316 OFFCURVE",
"436 373 OFFCURVE",
"334 373 CURVE",
"359 343 LINE",
"462 357 OFFCURVE",
"529 447 OFFCURVE",
"529 534 CURVE SMOOTH",
"529 616 OFFCURVE",
"466 680 OFFCURVE",
"372 680 CURVE SMOOTH",
"203 680 LINE",
"46 0 LINE"
);
},
{
closed = 1;
nodes = (
"98 157 LINE",
"101 157 LINE",
"292 157 LINE",
"301 198 LINE",
"110 198 LINE",
"107 198 LINE",
"5 198 LINE",
"-4 157 LINE"
);
},
{
closed = 1;
nodes = (
"173 332 LINE",
"324 332 LINE SMOOTH",
"340 332 OFFCURVE",
"454 332 OFFCURVE",
"454 212 CURVE SMOOTH",
"454 109 OFFCURVE",
"370 41 OFFCURVE",
"256 41 CURVE SMOOTH",
"106 41 LINE"
);
},
{
closed = 1;
nodes = (
"244 639 LINE",
"364 639 LINE SMOOTH",
"433 639 OFFCURVE",
"479 592 OFFCURVE",
"479 527 CURVE SMOOTH",
"479 432 OFFCURVE",
"383 373 OFFCURVE",
"323 373 CURVE SMOOTH",
"183 373 LINE"
);
}
);
width = 557;
},
{
anchors = (
{
name = bottom;
position = "{275, 0}";
},
{
name = top;
position = "{368, 680}";
}
);
layerId = "3FCD75D8-58B8-44DB-99C9-FF8F25B81242";
paths = (
{
closed = 1;
nodes = (
"287 0 LINE SMOOTH",
"435 0 OFFCURVE",
"534 86 OFFCURVE",
"534 216 CURVE SMOOTH",
"534 304 OFFCURVE",
"481 373 OFFCURVE",
"381 365 CURVE",
"399 347 LINE",
"493 365 OFFCURVE",
"553 440 OFFCURVE",
"553 527 CURVE SMOOTH",
"553 619 OFFCURVE",
"484 680 OFFCURVE",
"378 680 CURVE SMOOTH",
"203 680 LINE",
"46 0 LINE"
);
},
{
closed = 1;
nodes = (
"121 152 LINE",
"125 152 LINE",
"313 152 LINE",
"329 223 LINE",
"141 223 LINE",
"137 223 LINE",
"10 223 LINE",
"-6 152 LINE"
);
},
{
closed = 1;
nodes = (
"205 316 LINE",
"338 316 LINE SMOOTH",
"408 316 OFFCURVE",
"450 276 OFFCURVE",
"450 208 CURVE SMOOTH",
"450 126 OFFCURVE",
"390 72 OFFCURVE",
"299 72 CURVE SMOOTH",
"149 72 LINE"
);
},
{
closed = 1;
nodes = (
"273 609 LINE",
"368 609 LINE SMOOTH",
"429 609 OFFCURVE",
"470 575 OFFCURVE",
"470 519 CURVE SMOOTH",
"470 440 OFFCURVE",
"416 387 OFFCURVE",
"336 387 CURVE SMOOTH",
"222 387 LINE"
);
}
);
width = 583;
}
);
leftKerningGroup = H;
leftMetricsKey = Istroke;
rightKerningGroup = B;
rightMetricsKey = B;
unicode = 0243;
},
{
color = 4;
glyphname = C;
lastChange = "2019-02-05 21:48:03 +0000";
layers = (
{
anchors = (
{
name = bottom;
position = "{358, 0}";
},
{
name = top;
position = "{445, 680}";
}
);
layerId = UUID0;
rightMetricsKey = "=15";
paths = (
{
closed = 1;
nodes = (
"559 -12 OFFCURVE",
"703 98 OFFCURVE",
"748 267 CURVE",
"513 267 LINE",
"485 224 OFFCURVE",
"437 196 OFFCURVE",
"382 196 CURVE SMOOTH",
"306 196 OFFCURVE",
"260 257 OFFCURVE",
"260 329 CURVE SMOOTH",
"260 417 OFFCURVE",
"331 485 OFFCURVE",
"412 485 CURVE SMOOTH",
"463 485 OFFCURVE",
"504 463 OFFCURVE",
"526 422 CURVE",
"764 422 LINE",
"744 586 OFFCURVE",
"618 692 OFFCURVE",
"436 692 CURVE SMOOTH",
"209 692 OFFCURVE",
"40 534 OFFCURVE",
"40 305 CURVE SMOOTH",
"40 112 OFFCURVE",
"171 -12 OFFCURVE",
"357 -12 CURVE SMOOTH"
);
}
);
width = 758;
},
{
anchors = (
{
name = bottom;
position = "{388, 0}";
},
{
name = top;
position = "{473, 680}";
}
);
layerId = "C8A0F6C7-7618-41E1-A0A3-A261758331D0";
rightMetricsKey = "=45";
paths = (
{
closed = 1;
nodes = (
"553 -12 OFFCURVE",
"672 67 OFFCURVE",
"729 188 CURVE",
"673 188 LINE",
"620 91 OFFCURVE",
"522 29 OFFCURVE",
"403 29 CURVE SMOOTH",
"238 29 OFFCURVE",
"130 147 OFFCURVE",
"130 315 CURVE SMOOTH",
"130 506 OFFCURVE",
"269 652 OFFCURVE",
"463 652 CURVE SMOOTH",
"581 652 OFFCURVE",
"666 594 OFFCURVE",
"699 495 CURVE",
"755 495 LINE",
"719 619 OFFCURVE",
"611 693 OFFCURVE",
"467 693 CURVE SMOOTH",
"232 693 OFFCURVE",
"76 527 OFFCURVE",
"76 310 CURVE SMOOTH",
"76 125 OFFCURVE",
"207 -12 OFFCURVE",
"399 -12 CURVE SMOOTH"
);
}
);
width = 782;
},
{
anchors = (
{
name = bottom;
position = "{396, 0}";
},
{
name = top;
position = "{474, 680}";
}
);
layerId = "3FCD75D8-58B8-44DB-99C9-FF8F25B81242";
rightMetricsKey = "=40";
paths = (
{
closed = 1;
nodes = (
"562 -12 OFFCURVE",
"687 72 OFFCURVE",
"740 198 CURVE",
"645 198 LINE",
"601 113 OFFCURVE",
"511 61 OFFCURVE",
"400 61 CURVE SMOOTH",
"262 61 OFFCURVE",
"159 164 OFFCURVE",
"159 314 CURVE SMOOTH",
"159 495 OFFCURVE",
"290 619 OFFCURVE",
"452 619 CURVE SMOOTH",
"558 619 OFFCURVE",
"634 568 OFFCURVE",
"668 484 CURVE",
"763 484 LINE",
"726 608 OFFCURVE",
"621 692 OFFCURVE",
"458 692 CURVE SMOOTH",
"236 692 OFFCURVE",
"73 529 OFFCURVE",
"73 313 CURVE SMOOTH",
"73 130 OFFCURVE",
"203 -12 OFFCURVE",
"394 -12 CURVE SMOOTH"
);
}
);
width = 787;
}
);
leftKerningGroup = O;
leftMetricsKey = O;
rightKerningGroup = C;
unicode = 0043;
},
{
color = 4;
glyphname = Chook;
lastChange = "2019-02-05 21:48:03 +0000";
layers = (
{
layerId = UUID0;
paths = (
{
closed = 1;
nodes = (
"559 -12 OFFCURVE",
"703 98 OFFCURVE",
"748 267 CURVE",
"513 267 LINE",
"485 224 OFFCURVE",
"437 196 OFFCURVE",
"382 196 CURVE SMOOTH",
"306 196 OFFCURVE",
"260 257 OFFCURVE",
"260 329 CURVE SMOOTH",
"260 417 OFFCURVE",
"331 485 OFFCURVE",
"412 485 CURVE SMOOTH",
"463 485 OFFCURVE",
"504 463 OFFCURVE",
"526 422 CURVE",
"764 422 LINE",
"761 529 OFFCURVE",
"741 548 OFFCURVE",
"741 590 CURVE SMOOTH",
"741 659 OFFCURVE",
"773 691 OFFCURVE",
"814 691 CURVE SMOOTH",
"824 691 OFFCURVE",
"836 690 OFFCURVE",
"851 688 CURVE",
"888 850 LINE",
"851 857 OFFCURVE",
"823 858 OFFCURVE",
"788 858 CURVE SMOOTH",
"656 858 OFFCURVE",
"578 803 OFFCURVE",
"578 709 CURVE SMOOTH",
"578 680 OFFCURVE",
"585 646 OFFCURVE",
"612 618 CURVE",
"612 640 LINE",
"562 678 OFFCURVE",
"503 692 OFFCURVE",
"436 692 CURVE SMOOTH",
"209 692 OFFCURVE",
"40 534 OFFCURVE",
"40 305 CURVE SMOOTH",
"40 112 OFFCURVE",
"171 -12 OFFCURVE",
"357 -12 CURVE SMOOTH"
);
}
);
width = 758;
},
{
layerId = "C8A0F6C7-7618-41E1-A0A3-A261758331D0";
paths = (
{
closed = 1;
nodes = (
"553 -12 OFFCURVE",
"672 67 OFFCURVE",
"729 188 CURVE",
"673 188 LINE",
"620 91 OFFCURVE",
"522 29 OFFCURVE",
"403 29 CURVE SMOOTH",
"238 29 OFFCURVE",
"130 147 OFFCURVE",
"130 315 CURVE SMOOTH",
"130 506 OFFCURVE",
"269 652 OFFCURVE",
"463 652 CURVE SMOOTH",
"581 652 OFFCURVE",
"666 594 OFFCURVE",
"699 495 CURVE",
"750 495 LINE",
"739 531 OFFCURVE",
"728 606 OFFCURVE",
"728 661 CURVE SMOOTH",
"728 733 OFFCURVE",
"764 763 OFFCURVE",
"812 763 CURVE SMOOTH",
"833 763 OFFCURVE",
"853 757 OFFCURVE",
"853 757 CURVE",
"863 800 LINE",
"863 800 OFFCURVE",
"844 804 OFFCURVE",
"809 804 CURVE SMOOTH",
"742 804 OFFCURVE",
"680 760 OFFCURVE",
"680 667 CURVE SMOOTH",
"680 640 OFFCURVE",
"684 613 OFFCURVE",
"691 595 CURVE",
"695 602 LINE",
"641 659 OFFCURVE",
"563 693 OFFCURVE",
"467 693 CURVE SMOOTH",
"232 693 OFFCURVE",
"76 527 OFFCURVE",
"76 310 CURVE SMOOTH",
"76 125 OFFCURVE",
"207 -12 OFFCURVE",
"399 -12 CURVE SMOOTH"
);
}
);
width = 782;
},
{
layerId = "3FCD75D8-58B8-44DB-99C9-FF8F25B81242";
paths = (
{
closed = 1;
nodes = (
"562 -12 OFFCURVE",
"687 72 OFFCURVE",
"740 198 CURVE",
"645 198 LINE",
"601 113 OFFCURVE",
"511 61 OFFCURVE",
"400 61 CURVE SMOOTH",
"262 61 OFFCURVE",
"159 164 OFFCURVE",
"159 314 CURVE SMOOTH",
"159 495 OFFCURVE",
"290 619 OFFCURVE",
"452 619 CURVE SMOOTH",
"558 619 OFFCURVE",
"634 568 OFFCURVE",
"668 484 CURVE",
"755 484 LINE",
"738 561 OFFCURVE",
"733 604 OFFCURVE",
"733 668 CURVE SMOOTH",
"733 718 OFFCURVE",
"760 751 OFFCURVE",
"810 751 CURVE SMOOTH",
"835 751 OFFCURVE",
"856 746 OFFCURVE",
"856 746 CURVE",
"874 820 LINE",
"874 820 OFFCURVE",
"839 824 OFFCURVE",
"813 824 CURVE SMOOTH",
"719 824 OFFCURVE",
"656 768 OFFCURVE",
"656 685 CURVE SMOOTH",
"656 647 OFFCURVE",
"663 626 OFFCURVE",
"673 603 CURVE",
"678 610 LINE",
"624 664 OFFCURVE",
"551 692 OFFCURVE",
"458 692 CURVE SMOOTH",
"236 692 OFFCURVE",
"73 529 OFFCURVE",
"73 313 CURVE SMOOTH",
"73 130 OFFCURVE",
"203 -12 OFFCURVE",
"394 -12 CURVE SMOOTH"
);
}
);
width = 787;
}
);
leftKerningGroup = O;
leftMetricsKey = O;
widthMetricsKey = C;
rightKerningGroup = C;
unicode = 0187;
},
{
color = 4;
glyphname = Cstroke;
lastChange = "2019-02-05 21:48:03 +0000";
layers = (
{
components = (
{
name = C;
}
);
layerId = UUID0;
paths = (
{
closed = 1;
nodes = (
"329 -90 LINE",
"648 770 LINE",
"467 770 LINE",
"148 -90 LINE"
);
}
);
width = 758;
},
{
components = (
{
name = C;
}
);
layerId = "C8A0F6C7-7618-41E1-A0A3-A261758331D0";
paths = (
{
closed = 1;
nodes = (
"186 -90 LINE",
"685 770 LINE",
"631 770 LINE",
"132 -90 LINE"
);
}
);
width = 782;
},
{
components = (
{
name = C;
}
);
layerId = "3FCD75D8-58B8-44DB-99C9-FF8F25B81242";
paths = (
{
closed = 1;
nodes = (
"224 -90 LINE",
"681 770 LINE",
"597 770 LINE",
"140 -90 LINE"
);
}
);
width = 787;
}
);
leftKerningGroup = O;
leftMetricsKey = O;
rightKerningGroup = C;
rightMetricsKey = C;
unicode = 023B;
},
{
color = 4;
glyphname = D;
lastChange = "2019-02-05 22:33:40 +0000";
layers = (
{
anchors = (
{
name = bottom;
position = "{265, 0}";
},
{
name = center;
position = "{385, 340}";
},
{
name = top;
position = "{395, 680}";
}
);
layerId = UUID0;
paths = (
{
closed = 1;
nodes = (
"308 0 LINE SMOOTH",
"565 0 OFFCURVE",
"736 160 OFFCURVE",
"736 391 CURVE SMOOTH",
"736 573 OFFCURVE",
"623 680 OFFCURVE",
"431 680 CURVE SMOOTH",
"150 680 LINE",
"-6 0 LINE"
);
},
{
closed = 1;
nodes = (
"332 493 LINE",
"401 493 LINE SMOOTH",
"474 493 OFFCURVE",
"517 448 OFFCURVE",
"517 372 CURVE SMOOTH",
"517 265 OFFCURVE",
"445 187 OFFCURVE",
"338 187 CURVE SMOOTH",
"262 187 LINE"
);
}
);
width = 729;
},
{
anchors = (
{
name = bottom;
position = "{255, 0}";
},
{
name = center;
position = "{351, 340}";
},
{
name = top;
position = "{390, 680}";
}
);
layerId = "C8A0F6C7-7618-41E1-A0A3-A261758331D0";
paths = (
{
closed = 1;
nodes = (
"289 0 LINE SMOOTH",
"523 0 OFFCURVE",
"695 168 OFFCURVE",
"695 405 CURVE SMOOTH",
"695 570 OFFCURVE",
"586 680 OFFCURVE",
"423 680 CURVE SMOOTH",
"205 680 LINE",
"48 0 LINE"
);
},
{
closed = 1;
nodes = (
"246 639 LINE",
"417 639 LINE SMOOTH",
"554 639 OFFCURVE",
"645 544 OFFCURVE",
"645 402 CURVE SMOOTH",
"645 191 OFFCURVE",
"491 41 OFFCURVE",
"290 41 CURVE SMOOTH",
"108 41 LINE"
);
}
);
width = 710;
},
{
anchors = (
{
name = bottom;
position = "{277, 0}";
},
{
name = center;
position = "{365, 340}";
},
{
name = top;
position = "{408, 680}";
}
);
layerId = "3FCD75D8-58B8-44DB-99C9-FF8F25B81242";
paths = (
{
closed = 1;
nodes = (
"298 0 LINE SMOOTH",
"552 0 OFFCURVE",
"712 169 OFFCURVE",
"712 390 CURVE SMOOTH",
"712 572 OFFCURVE",
"600 680 OFFCURVE",
"411 680 CURVE SMOOTH",
"205 680 LINE",
"48 0 LINE"
);
},
{
closed = 1;
nodes = (
"275 608 LINE",
"405 608 LINE SMOOTH",
"545 608 OFFCURVE",
"627 526 OFFCURVE",
"627 387 CURVE SMOOTH",
"627 212 OFFCURVE",
"505 72 OFFCURVE",
"306 72 CURVE SMOOTH",
"151 72 LINE"
);
}
);
width = 728;
}
);
leftKerningGroup = H;
leftMetricsKey = H;
rightKerningGroup = O;
rightMetricsKey = O;
unicode = 0044;
},
{
color = 4;
glyphname = Eth;
lastChange = "2019-02-05 21:48:03 +0000";
layers = (
{
components = (
{
name = D;
transform = "{1, 0, 0, 1, 8, 0}";
}
);
layerId = UUID0;
paths = (
{
closed = 1;
nodes = (
"375 254 LINE",
"417 434 LINE",
"39 434 LINE",
"-3 254 LINE"
);
}
);
width = 737;
},
{
components = (
{
name = D;
transform = "{1, 0, 0, 1, 19, 0}";
}
);
layerId = "C8A0F6C7-7618-41E1-A0A3-A261758331D0";
paths = (
{
closed = 1;
nodes = (
"333 329 LINE",
"343 370 LINE",
"37 370 LINE",
"27 329 LINE"
);
}
);
width = 729;
},
{
components = (
{
alignment = -1;
name = D;
}
);
layerId = "3FCD75D8-58B8-44DB-99C9-FF8F25B81242";
paths = (
{
closed = 1;
nodes = (
"332 313 LINE",
"348 384 LINE",
"24 384 LINE",
"8 313 LINE"
);
}
);
width = 728;
}
);
leftKerningGroup = H;
rightKerningGroup = O;
rightMetricsKey = D;
unicode = 00D0;
},
{
color = 4;
glyphname = Dhook;
lastChange = "2019-02-05 23:28:46 +0000";
layers = (
{
layerId = UUID0;
paths = (
{
closed = 1;
nodes = (
"544 0 LINE SMOOTH",
"794 0 OFFCURVE",
"972 164 OFFCURVE",
"972 401 CURVE SMOOTH",
"972 657 OFFCURVE",
"763 678 OFFCURVE",
"685 680 CURVE SMOOTH",
"315 680 LINE SMOOTH",
"163 680 OFFCURVE",
"61 592 OFFCURVE",
"61 460 CURVE SMOOTH",
"61 441 OFFCURVE",
"63 420 OFFCURVE",
"67 401 CURVE",
"246 401 LINE",
"243 412 OFFCURVE",
"241 427 OFFCURVE",
"241 438 CURVE SMOOTH",
"241 484 OFFCURVE",
"272 506 OFFCURVE",
"319 506 CURVE SMOOTH",
"346 506 LINE",
"230 0 LINE"
);
},
{
closed = 1;
nodes = (
"568 493 LINE",
"637 493 LINE SMOOTH",
"658 493 OFFCURVE",
"753 493 OFFCURVE",
"753 382 CURVE SMOOTH",
"753 272 OFFCURVE",
"660 187 OFFCURVE",
"574 187 CURVE SMOOTH",
"498 187 LINE"
);
}
);
width = 963;
},
{
layerId = "C8A0F6C7-7618-41E1-A0A3-A261758331D0";
paths = (
{
closed = 1;
nodes = (
"413 0 LINE SMOOTH",
"647 0 OFFCURVE",
"819 168 OFFCURVE",
"819 405 CURVE SMOOTH",
"819 570 OFFCURVE",
"710 680 OFFCURVE",
"547 680 CURVE SMOOTH",
"278 680 LINE SMOOTH",
"156 680 OFFCURVE",
"75 611 OFFCURVE",
"75 507 CURVE SMOOTH",
"75 492 OFFCURVE",
"77 471 OFFCURVE",
"81 456 CURVE",
"132 456 LINE",
"128 472 OFFCURVE",
"126 488 OFFCURVE",
"126 508 CURVE SMOOTH",
"126 587 OFFCURVE",
"184 639 OFFCURVE",
"272 639 CURVE SMOOTH",
"320 639 LINE",
"172 0 LINE"
);
},
{
closed = 1;
nodes = (
"370 639 LINE",
"541 639 LINE SMOOTH",
"678 639 OFFCURVE",
"769 544 OFFCURVE",
"769 402 CURVE SMOOTH",
"769 191 OFFCURVE",
"615 41 OFFCURVE",
"414 41 CURVE SMOOTH",
"232 41 LINE"
);
}
);
width = 834;
},
{
layerId = "3FCD75D8-58B8-44DB-99C9-FF8F25B81242";
paths = (
{
closed = 1;
nodes = (
"413 0 LINE SMOOTH",
"667 0 OFFCURVE",
"827 169 OFFCURVE",
"827 390 CURVE SMOOTH",
"827 572 OFFCURVE",
"715 680 OFFCURVE",
"526 680 CURVE SMOOTH",
"251 680 LINE SMOOTH",
"131 680 OFFCURVE",
"55 614 OFFCURVE",
"55 515 CURVE SMOOTH",
"55 494 OFFCURVE",
"59 468 OFFCURVE",
"66 449 CURVE",
"146 449 LINE",
"140 465 OFFCURVE",
"136 492 OFFCURVE",
"136 512 CURVE SMOOTH",
"136 572 OFFCURVE",
"181 609 OFFCURVE",
"249 609 CURVE SMOOTH",
"304 609 LINE",
"163 0 LINE"
);
},
{
closed = 1;
nodes = (
"390 608 LINE",
"520 608 LINE SMOOTH",
"660 608 OFFCURVE",
"742 526 OFFCURVE",
"742 387 CURVE SMOOTH",
"742 212 OFFCURVE",
"620 72 OFFCURVE",
"421 72 CURVE SMOOTH",
"266 72 LINE"
);
}
);
width = 843;
}
);
leftKerningGroup = Bhook;
leftMetricsKey = Bhook;
rightKerningGroup = O;
rightMetricsKey = D;
unicode = 018A;
},
{
color = 4;
glyphname = Dtopbar;
lastChange = "2019-02-05 21:48:03 +0000";
layers = (
{
layerId = UUID0;
paths = (
{
closed = 1;
nodes = (
"504 0 LINE",
"660 680 LINE",
"197 680 LINE",
"155 498 LINE",
"394 498 LINE",
"383 451 LINE",
"284 451 LINE SMOOTH",
"125 451 OFFCURVE",
"9 345 OFFCURVE",
"9 203 CURVE SMOOTH",
"9 75 OFFCURVE",
"94 0 OFFCURVE",
"239 0 CURVE SMOOTH"
);
},
{
closed = 1;
nodes = (
"243 175 OFFCURVE",
"223 193 OFFCURVE",
"223 221 CURVE SMOOTH",
"223 253 OFFCURVE",
"250 275 OFFCURVE",
"291 275 CURVE SMOOTH",
"343 275 LINE",
"319 175 LINE",
"274 175 LINE SMOOTH"
);
}
);
width = 611;
},
{
layerId = "C8A0F6C7-7618-41E1-A0A3-A261758331D0";
paths = (
{
closed = 1;
nodes = (
"414 0 LINE",
"571 680 LINE",
"230 680 LINE",
"221 639 LINE",
"513 639 LINE",
"452 374 LINE",
"290 374 LINE SMOOTH",
"135 374 OFFCURVE",
"44 297 OFFCURVE",
"44 167 CURVE SMOOTH",
"44 75 OFFCURVE",
"103 0 OFFCURVE",
"205 0 CURVE SMOOTH"
);
},
{
closed = 1;
nodes = (
"142 41 OFFCURVE",
"94 92 OFFCURVE",
"94 170 CURVE SMOOTH",
"94 272 OFFCURVE",
"164 333 OFFCURVE",
"282 333 CURVE SMOOTH",
"442 333 LINE",
"375 41 LINE",
"214 41 LINE SMOOTH"
);
}
);
width = 566;
},
{
layerId = "3FCD75D8-58B8-44DB-99C9-FF8F25B81242";
paths = (
{
closed = 1;
nodes = (
"434 0 LINE",
"591 680 LINE",
"222 680 LINE",
"205 609 LINE",
"488 609 LINE",
"438 390 LINE",
"278 390 LINE SMOOTH",
"132 390 OFFCURVE",
"34 302 OFFCURVE",
"34 171 CURVE SMOOTH",
"34 70 OFFCURVE",
"103 0 OFFCURVE",
"212 0 CURVE SMOOTH"
);
},
{
closed = 1;
nodes = (
"160 72 OFFCURVE",
"119 113 OFFCURVE",
"119 176 CURVE SMOOTH",
"119 262 OFFCURVE",
"179 319 OFFCURVE",
"269 319 CURVE SMOOTH",
"421 319 LINE",
"364 72 LINE",
"222 72 LINE SMOOTH"
);
}
);
width = 586;
}
);
leftKerningGroup = Dtopbar;
leftMetricsKey = "=|Be-cy";
rightKerningGroup = H;
rightMetricsKey = H;
unicode = 018B;
},
{
color = 4;
glyphname = E;
lastChange = "2019-02-05 21:48:03 +0000";
layers = (
{
anchors = (
{
name = bottom;
position = "{231, 0}";
},
{
name = ogonek;
position = "{450, 0}";
},
{
name = top;
position = "{370, 680}";
},
{
name = topleft;
position = "{95, 680}";
}
);
layerId = UUID0;
rightMetricsKey = "=40";
paths = (
{
closed = 1;
nodes = (
"450 0 LINE",
"492 182 LINE",
"260 182 LINE",
"277 255 LINE",
"506 255 LINE",
"548 435 LINE",
"319 435 LINE",
"333 498 LINE",
"565 498 LINE",
"607 680 LINE",
"151 680 LINE",
"-7 0 LINE"
);
}
);
width = 547;
},
{
anchors = (
{
name = bottom;
position = "{209, 0}";
},
{
name = ogonek;
position = "{360, 0}";
},
{
name = top;
position = "{352, 680}";
},
{
name = topleft;
position = "{125, 680}";
}
);
layerId = "C8A0F6C7-7618-41E1-A0A3-A261758331D0";
rightMetricsKey = "=47";
paths = (
{
closed = 1;
nodes = (
"360 0 LINE",
"370 41 LINE",
"108 41 LINE",
"174 330 LINE",
"436 330 LINE",
"446 371 LINE",
"184 371 LINE",
"246 639 LINE",
"508 639 LINE",
"517 680 LINE",
"205 680 LINE",
"48 0 LINE"
);
}
);
width = 459;
},
{
anchors = (
{
name = bottom;
position = "{220, 0}";
},
{
name = ogonek;
position = "{382, 0}";
},
{
name = top;
position = "{366, 680}";
},
{
name = topleft;
position = "{127, 680}";
}
);
layerId = "3FCD75D8-58B8-44DB-99C9-FF8F25B81242";
rightMetricsKey = "=45";
paths = (
{
closed = 1;
nodes = (
"382 0 LINE",
"398 72 LINE",
"151 72 LINE",
"207 315 LINE",
"454 315 LINE",
"471 386 LINE",
"224 386 LINE",
"275 609 LINE",
"522 609 LINE",
"539 680 LINE",
"205 680 LINE",
"48 0 LINE"
);
}
);
width = 479;
}
);
leftKerningGroup = H;
leftMetricsKey = H;
rightKerningGroup = E;
unicode = 0045;
},
{
color = 4;
glyphname = Eopen;
lastChange = "2019-02-05 21:48:03 +0000";
layers = (
{
anchors = (
{
name = bottom;
position = "{258, 0}";
},
{
name = top;
position = "{406, 680}";
}
);
layerId = UUID0;
paths = (
{
closed = 1;
nodes = (
"448 -15 OFFCURVE",
"564 64 OFFCURVE",
"614 216 CURVE",
"403 216 LINE",
"384 182 OFFCURVE",
"341 157 OFFCURVE",
"293 157 CURVE SMOOTH",
"255 157 OFFCURVE",
"223 172 OFFCURVE",
"223 206 CURVE SMOOTH",
"223 249 OFFCURVE",
"273 270 OFFCURVE",
"322 270 CURVE SMOOTH",
"389 270 LINE",
"426 433 LINE",
"359 433 LINE SMOOTH",
"330 433 OFFCURVE",
"304 449 OFFCURVE",
"304 472 CURVE SMOOTH",
"304 496 OFFCURVE",
"327 523 OFFCURVE",
"378 523 CURVE SMOOTH",
"415 523 OFFCURVE",
"443 509 OFFCURVE",
"449 475 CURVE",
"657 475 LINE",
"657 606 OFFCURVE",
"565 695 OFFCURVE",
"389 695 CURVE SMOOTH",
"219 695 OFFCURVE",
"83 611 OFFCURVE",
"83 485 CURVE SMOOTH",
"83 431 OFFCURVE",
"107 389 OFFCURVE",
"145 356 CURVE",
"60 327 OFFCURVE",
"2 262 OFFCURVE",
"2 168 CURVE SMOOTH",
"2 59 OFFCURVE",
"101 -15 OFFCURVE",
"263 -15 CURVE SMOOTH"
);
}
);
width = 631;
},
{
anchors = (
{
name = bottom;
position = "{234, 0}";
},
{
name = top;
position = "{386, 680}";
}
);
layerId = "C8A0F6C7-7618-41E1-A0A3-A261758331D0";
paths = (
{
closed = 1;
nodes = (
"364 -12 OFFCURVE",
"462 52 OFFCURVE",
"503 167 CURVE",
"445 167 LINE",
"409 76 OFFCURVE",
"327 29 OFFCURVE",
"242 29 CURVE SMOOTH",
"151 29 OFFCURVE",
"90 86 OFFCURVE",
"90 169 CURVE SMOOTH",
"90 275 OFFCURVE",
"192 339 OFFCURVE",
"300 339 CURVE SMOOTH",
"353 339 LINE",
"363 383 LINE",
"310 383 LINE SMOOTH",
"237 383 OFFCURVE",
"188 437 OFFCURVE",
"188 503 CURVE SMOOTH",
"188 582 OFFCURVE",
"257 651 OFFCURVE",
"363 651 CURVE SMOOTH",
"453 651 OFFCURVE",
"500 601 OFFCURVE",
"515 519 CURVE",
"567 519 LINE",
"554 631 OFFCURVE",
"475 692 OFFCURVE",
"365 692 CURVE SMOOTH",
"240 692 OFFCURVE",
"136 613 OFFCURVE",
"136 500 CURVE SMOOTH",
"136 437 OFFCURVE",
"169 389 OFFCURVE",
"223 369 CURVE",
"111 338 OFFCURVE",
"37 270 OFFCURVE",
"37 168 CURVE SMOOTH",
"37 62 OFFCURVE",
"117 -12 OFFCURVE",
"245 -12 CURVE SMOOTH"
);
}
);
width = 541;
},
{
anchors = (
{
name = bottom;
position = "{245, 0}";
},
{
name = top;
position = "{379, 680}";
}
);
layerId = "3FCD75D8-58B8-44DB-99C9-FF8F25B81242";
paths = (
{
closed = 1;
nodes = (
"382 -12 OFFCURVE",
"489 53 OFFCURVE",
"540 182 CURVE",
"444 182 LINE",
"409 106 OFFCURVE",
"345 65 OFFCURVE",
"260 65 CURVE SMOOTH",
"169 65 OFFCURVE",
"121 110 OFFCURVE",
"121 177 CURVE SMOOTH",
"121 267 OFFCURVE",
"205 319 OFFCURVE",
"297 319 CURVE SMOOTH",
"369 319 LINE",
"387 396 LINE",
"315 396 LINE SMOOTH",
"251 396 OFFCURVE",
"216 442 OFFCURVE",
"216 496 CURVE SMOOTH",
"216 567 OFFCURVE",
"278 615 OFFCURVE",
"366 615 CURVE SMOOTH",
"449 615 OFFCURVE",
"493 573 OFFCURVE",
"505 512 CURVE",
"591 512 LINE",
"580 616 OFFCURVE",
"506 692 OFFCURVE",
"373 692 CURVE SMOOTH",
"230 692 OFFCURVE",
"130 603 OFFCURVE",
"130 492 CURVE SMOOTH",
"130 435 OFFCURVE",
"157 384 OFFCURVE",
"213 366 CURVE",
"119 346 OFFCURVE",
"33 284 OFFCURVE",
"33 172 CURVE SMOOTH",
"33 62 OFFCURVE",
"114 -12 OFFCURVE",
"253 -12 CURVE SMOOTH"
);
}
);
width = 573;
}
);
leftKerningGroup = Eopen;
leftMetricsKey = "=|B";
rightKerningGroup = Eopen;
unicode = 0190;
},
{
color = 4;
glyphname = Ereversed;
lastChange = "2019-02-05 21:48:03 +0000";
layers = (
{
layerId = UUID0;
paths = (
{
closed = 1;
nodes = (
"440 0 LINE",
"596 680 LINE",
"140 680 LINE",
"98 498 LINE",
"330 498 LINE",
"316 435 LINE",
"84 435 LINE",
"42 255 LINE",
"274 255 LINE",
"258 182 LINE",
"26 182 LINE",
"-16 0 LINE"
);
}
);
width = 547;
},
{
layerId = "C8A0F6C7-7618-41E1-A0A3-A261758331D0";
paths = (
{
closed = 1;
nodes = (
"308 0 LINE",
"464 680 LINE",
"152 680 LINE",
"143 639 LINE",
"405 639 LINE",
"343 371 LINE",
"81 371 LINE",
"72 330 LINE",
"334 330 LINE",
"267 41 LINE",
"5 41 LINE",
"-4 0 LINE"
);
}
);
width = 460;
},
{
layerId = "3FCD75D8-58B8-44DB-99C9-FF8F25B81242";
paths = (
{
closed = 1;
nodes = (
"327 0 LINE",
"483 680 LINE",
"150 680 LINE",
"134 609 LINE",
"381 609 LINE",
"330 386 LINE",
"83 386 LINE",
"66 315 LINE",
"313 315 LINE",
"257 72 LINE",
"10 72 LINE",
"-6 0 LINE"
);
}
);
width = 479;
}
);
leftKerningGroup = Ereversed;
leftMetricsKey = "=|E";
rightKerningGroup = H;
rightMetricsKey = H;
unicode = 018E;
},
{
color = 4;
glyphname = Estroke;
lastChange = "2019-02-05 21:48:03 +0000";
layers = (
{
layerId = UUID0;
paths = (
{
closed = 1;
nodes = (
"176 -90 LINE",
"617 770 LINE",
"425 770 LINE",
"-16 -90 LINE"
);
},
{
closed = 1;
nodes = (
"450 0 LINE",
"492 182 LINE",
"260 182 LINE",
"277 255 LINE",
"506 255 LINE",
"548 435 LINE",
"319 435 LINE",
"333 498 LINE",
"565 498 LINE",
"607 680 LINE",
"151 680 LINE",
"-7 0 LINE"
);
}
);
width = 547;
},
{
layerId = "C8A0F6C7-7618-41E1-A0A3-A261758331D0";
paths = (
{
closed = 1;
nodes = (
"80 -90 LINE",
"578 770 LINE",
"527 770 LINE",
"29 -90 LINE"
);
},
{
closed = 1;
nodes = (
"400 0 LINE",
"410 41 LINE",
"108 41 LINE",
"174 330 LINE",
"476 330 LINE",
"486 371 LINE",
"184 371 LINE",
"246 639 LINE",
"548 639 LINE",
"557 680 LINE",
"205 680 LINE",
"48 0 LINE"
);
}
);
width = 499;
},
{
layerId = "3FCD75D8-58B8-44DB-99C9-FF8F25B81242";
paths = (
{
closed = 1;
nodes = (
"129 -90 LINE",
"582 770 LINE",
"502 770 LINE",
"49 -90 LINE"
);
},
{
closed = 1;
nodes = (
"422 0 LINE",
"438 72 LINE",
"151 72 LINE",
"207 315 LINE",
"494 315 LINE",
"511 386 LINE",
"224 386 LINE",
"275 609 LINE",
"562 609 LINE",
"579 680 LINE",
"205 680 LINE",
"48 0 LINE"
);
}
);
width = 519;
},
{
associatedMasterId = UUID0;
background = {
paths = (
{
closed = 1;
nodes = (
"286 -90 LINE",
"529 770 LINE",
"321 770 LINE",
"78 -90 LINE"
);
},
{
closed = 1;
nodes = (
"529 0 LINE",
"529 182 LINE",
"297 182 LINE",
"297 255 LINE",
"526 255 LINE",
"526 435 LINE",
"297 435 LINE",
"297 498 LINE",
"529 498 LINE",
"529 680 LINE",
"77 680 LINE",
"77 0 LINE"
);
}
);
};
layerId = "DE97BE51-091D-406F-A4D5-7B79B2493E92";
name = "[110]";
paths = (
{
closed = 1;
nodes = (
"450 0 LINE",
"492 182 LINE",
"260 182 LINE",
"277 255 LINE",
"506 255 LINE",
"548 435 LINE",
"319 435 LINE",
"333 498 LINE",
"565 498 LINE",
"607 680 LINE",
"151 680 LINE",
"-7 0 LINE"
);
},
{
closed = 1;
nodes = (
"179 -90 LINE",
"265 79 LINE",
"73 79 LINE",
"-13 -90 LINE"
);
},
{
closed = 1;
nodes = (
"531 613 LINE",
"612 770 LINE",
"420 770 LINE",
"339 613 LINE"
);
}
);
width = 547;
},
{
associatedMasterId = "3FCD75D8-58B8-44DB-99C9-FF8F25B81242";
background = {
paths = (
{
closed = 1;
nodes = (
"124 -90 LINE",
"578 770 LINE",
"501 770 LINE",
"48 -90 LINE"
);
},
{
closed = 1;
nodes = (
"421 0 LINE",
"437 72 LINE",
"150 72 LINE",
"206 315 LINE",
"493 315 LINE",
"510 386 LINE",
"223 386 LINE",
"274 609 LINE",
"561 609 LINE",
"577 680 LINE",
"205 680 LINE",
"49 0 LINE"
);
}
);
};
layerId = "4A0D63E1-DE08-4262-A435-1345D920C3DE";
name = "[110]";
paths = (
{
closed = 1;
nodes = (
"422 0 LINE",
"438 72 LINE",
"151 72 LINE",
"207 315 LINE",
"494 315 LINE",
"511 386 LINE",
"224 386 LINE",
"275 609 LINE",
"562 609 LINE",
"579 680 LINE",
"205 680 LINE",
"48 0 LINE"
);
},
{
closed = 1;
nodes = (
"126 -90 LINE",
"191 33 LINE",
"111 33 LINE",
"46 -90 LINE"
);
},
{
closed = 1;
nodes = (
"514 646 LINE",
"579 770 LINE",
"499 770 LINE",
"434 646 LINE"
);
}
);
width = 519;
}
);
leftKerningGroup = H;
leftMetricsKey = H;
rightKerningGroup = E;
rightMetricsKey = E;
unicode = 0246;
},
{
color = 4;
glyphname = Ezh;
lastChange = "2019-02-05 21:48:03 +0000";
layers = (
{
anchors = (
{
name = bottom;
position = "{275, 0}";
},
{
name = top;
position = "{372, 680}";
}
);
guideLines = (
{
angle = 217.0332;
position = "{-183, 733}";
}
);
layerId = UUID0;
paths = (
{
closed = 1;
nodes = (
"462 -15 OFFCURVE",
"596 80 OFFCURVE",
"596 227 CURVE SMOOTH",
"596 319 OFFCURVE",
"544 388 OFFCURVE",
"406 404 CURVE",
"382 331 LINE",
"605 500 LINE",
"646 680 LINE",
"125 680 LINE",
"84 498 LINE",
"449 498 LINE",
"460 579 LINE",
"207 401 LINE",
"176 270 LINE",
"308 270 LINE SMOOTH",
"349 270 OFFCURVE",
"372 251 OFFCURVE",
"372 220 CURVE SMOOTH",
"372 180 OFFCURVE",
"331 157 OFFCURVE",
"290 157 CURVE SMOOTH",
"245 157 OFFCURVE",
"218 182 OFFCURVE",
"213 216 CURVE",
"-2 216 LINE",
"7 65 OFFCURVE",
"122 -15 OFFCURVE",
"285 -15 CURVE SMOOTH"
);
}
);
width = 630;
},
{
anchors = (
{
name = bottom;
position = "{225, 0}";
},
{
name = top;
position = "{361, 680}";
}
);
layerId = "C8A0F6C7-7618-41E1-A0A3-A261758331D0";
paths = (
{
closed = 1;
nodes = (
"394 -12 OFFCURVE",
"498 77 OFFCURVE",
"498 210 CURVE SMOOTH",
"498 316 OFFCURVE",
"422 394 OFFCURVE",
"298 392 CURVE",
"323 376 LINE",
"581 650 LINE",
"588 680 LINE",
"168 680 LINE",
"158 639 LINE",
"529 639 LINE",
"522 655 LINE",
"262 379 LINE",
"255 349 LINE",
"299 349 LINE SMOOTH",
"386 349 OFFCURVE",
"444 298 OFFCURVE",
"444 211 CURVE SMOOTH",
"444 102 OFFCURVE",
"363 29 OFFCURVE",
"242 29 CURVE SMOOTH",
"135 29 OFFCURVE",
"77 95 OFFCURVE",
"72 167 CURVE",
"17 167 LINE",
"25 69 OFFCURVE",
"102 -12 OFFCURVE",
"238 -12 CURVE SMOOTH"
);
}
);
width = 541;
},
{
anchors = (
{
name = bottom;
position = "{241, 0}";
},
{
name = top;
position = "{345, 680}";
}
);
layerId = "3FCD75D8-58B8-44DB-99C9-FF8F25B81242";
paths = (
{
closed = 1;
nodes = (
"405 -12 OFFCURVE",
"513 83 OFFCURVE",
"513 217 CURVE SMOOTH",
"513 322 OFFCURVE",
"447 396 OFFCURVE",
"304 403 CURVE",
"304 353 LINE",
"574 614 LINE",
"590 680 LINE",
"136 680 LINE",
"118 609 LINE",
"520 609 LINE",
"501 651 LINE",
"239 395 LINE",
"223 329 LINE",
"280 329 LINE SMOOTH",
"380 329 OFFCURVE",
"430 281 OFFCURVE",
"430 209 CURVE SMOOTH",
"430 123 OFFCURVE",
"359 65 OFFCURVE",
"254 65 CURVE SMOOTH",
"164 65 OFFCURVE",
"107 108 OFFCURVE",
"103 182 CURVE",
"15 182 LINE",
"22 60 OFFCURVE",
"104 -12 OFFCURVE",
"244 -12 CURVE SMOOTH"
);
}
);
width = 569;
}
);
leftKerningGroup = Ezh;
rightKerningGroup = Germandbls;
rightMetricsKey = Germandbls;
unicode = 01B7;
},
{
color = 4;
glyphname = Ezhreversed;
lastChange = "2019-02-05 21:48:03 +0000";
layers = (
{
anchors = (
{
name = bottom;
position = "{276, 0}";
},
{
name = top;
position = "{411, 680}";
}
);
layerId = UUID0;
paths = (
{
closed = 1;
nodes = (
"460 -15 OFFCURVE",
"575 64 OFFCURVE",
"625 216 CURVE",
"415 216 LINE",
"396 182 OFFCURVE",
"353 157 OFFCURVE",
"305 157 CURVE SMOOTH",
"267 157 OFFCURVE",
"235 172 OFFCURVE",
"235 206 CURVE SMOOTH",
"235 249 OFFCURVE",
"285 270 OFFCURVE",
"344 270 CURVE SMOOTH",
"441 270 LINE",
"470 401 LINE",
"323 534 LINE",
"319 498 LINE",
"658 498 LINE",
"700 680 LINE",
"159 680 LINE",
"118 500 LINE",
"279 360 LINE",
"266 405 LINE",
"129 393 OFFCURVE",
"14 314 OFFCURVE",
"14 177 CURVE SMOOTH",
"14 58 OFFCURVE",
"123 -15 OFFCURVE",
"275 -15 CURVE SMOOTH"
);
}
);
width = 637;
},
{
anchors = (
{
name = bottom;
position = "{243, 0}";
},
{
name = top;
position = "{379, 680}";
}
);
guideLines = (
{
angle = 126.3425;
position = "{249, 510}";
}
);
layerId = "C8A0F6C7-7618-41E1-A0A3-A261758331D0";
paths = (
{
closed = 1;
nodes = (
"361 -12 OFFCURVE",
"460 52 OFFCURVE",
"501 167 CURVE",
"443 167 LINE",
"410 79 OFFCURVE",
"326 29 OFFCURVE",
"235 29 CURVE SMOOTH",
"137 29 OFFCURVE",
"79 86 OFFCURVE",
"79 171 CURVE SMOOTH",
"79 286 OFFCURVE",
"184 349 OFFCURVE",
"289 349 CURVE SMOOTH",
"340 349 LINE",
"350 391 LINE",
"210 659 LINE",
"203 639 LINE",
"556 639 LINE",
"566 680 LINE",
"166 680 LINE",
"159 650 LINE",
"305 373 LINE",
"306 393 LINE",
"163 393 OFFCURVE",
"26 310 OFFCURVE",
"26 169 CURVE SMOOTH",
"26 62 OFFCURVE",
"105 -12 OFFCURVE",
"238 -12 CURVE SMOOTH"
);
}
);
width = 544;
},
{
anchors = (
{
name = bottom;
position = "{263, 0}";
},
{
name = top;
position = "{386, 680}";
}
);
guideLines = (
{
angle = -50.6273;
position = "{78, 614}";
}
);
layerId = "3FCD75D8-58B8-44DB-99C9-FF8F25B81242";
paths = (
{
closed = 1;
nodes = (
"388 -12 OFFCURVE",
"495 53 OFFCURVE",
"546 182 CURVE",
"450 182 LINE",
"415 106 OFFCURVE",
"351 65 OFFCURVE",
"266 65 CURVE SMOOTH",
"175 65 OFFCURVE",
"127 110 OFFCURVE",
"127 177 CURVE SMOOTH",
"127 267 OFFCURVE",
"211 319 OFFCURVE",
"303 319 CURVE SMOOTH",
"365 319 LINE",
"381 389 LINE",
"243 643 LINE",
"223 609 LINE",
"605 609 LINE",
"622 680 LINE",
"177 680 LINE",
"162 614 LINE",
"302 357 LINE",
"309 392 LINE",
"182 392 OFFCURVE",
"39 317 OFFCURVE",
"39 169 CURVE SMOOTH",
"39 62 OFFCURVE",
"120 -12 OFFCURVE",
"259 -12 CURVE SMOOTH"
);
}
);
width = 581;
}
);
leftKerningGroup = Ezhreversed;
leftMetricsKey = "=|Ezh";
rightKerningGroup = Ezhreversed;
rightMetricsKey = "=|Ezh";
unicode = 01B8;
},
{
color = 4;
glyphname = F;
lastChange = "2019-02-05 21:48:03 +0000";
layers = (
{
anchors = (
{
name = bottomright;
position = "{218, 0}";
},
{
name = top;
position = "{374, 680}";
}
);
layerId = UUID0;
rightMetricsKey = "=30";
paths = (
{
closed = 1;
nodes = (
"218 0 LINE",
"275 244 LINE",
"517 244 LINE",
"559 426 LINE",
"317 426 LINE",
"333 498 LINE",
"575 498 LINE",
"617 680 LINE",
"151 680 LINE",
"-7 0 LINE"
);
}
);
width = 547;
},
{
anchors = (
{
name = bottomright;
position = "{98, 0}";
},
{
name = top;
position = "{352, 680}";
}
);
layerId = "C8A0F6C7-7618-41E1-A0A3-A261758331D0";
rightMetricsKey = "=40";
paths = (
{
closed = 1;
nodes = (
"98 0 LINE",
"174 330 LINE",
"436 330 LINE",
"446 371 LINE",
"184 371 LINE",
"246 639 LINE",
"508 639 LINE",
"517 680 LINE",
"205 680 LINE",
"48 0 LINE"
);
}
);
width = 452;
},
{
anchors = (
{
name = bottomright;
position = "{135, 0}";
},
{
name = top;
position = "{379, 680}";
}
);
layerId = "3FCD75D8-58B8-44DB-99C9-FF8F25B81242";
rightMetricsKey = "=40";
paths = (
{
closed = 1;
nodes = (
"135 0 LINE",
"208 315 LINE",
"454 315 LINE",
"471 386 LINE",
"224 386 LINE",
"275 609 LINE",
"522 609 LINE",
"539 680 LINE",
"205 680 LINE",
"49 0 LINE"
);
}
);
width = 474;
}
);
leftKerningGroup = H;
leftMetricsKey = H;
rightKerningGroup = F;
rightMetricsKey = "=40";
unicode = 0046;
},
{
color = 4;
glyphname = Fhook;
lastChange = "2019-02-05 21:48:03 +0000";
layers = (
{
layerId = UUID0;
paths = (
{
closed = 1;
nodes = (
"-142 -230 OFFCURVE",
"-108 -234 OFFCURVE",
"-67 -234 CURVE SMOOTH",
"91 -234 OFFCURVE",
"177 -176 OFFCURVE",
"209 -38 CURVE SMOOTH",
"275 244 LINE",
"517 244 LINE",
"559 426 LINE",
"317 426 LINE",
"333 498 LINE",
"575 498 LINE",
"617 680 LINE",
"151 680 LINE",
"-6 3 LINE SMOOTH",
"-16 -33 OFFCURVE",
"-32 -45 OFFCURVE",
"-62 -45 CURVE SMOOTH",
"-81 -45 OFFCURVE",
"-98 -41 OFFCURVE",
"-98 -41 CURVE",
"-142 -230 LINE"
);
}
);
width = 547;
},
{
layerId = "C8A0F6C7-7618-41E1-A0A3-A261758331D0";
paths = (
{
closed = 1;
nodes = (
"-126 -229 OFFCURVE",
"-104 -231 OFFCURVE",
"-79 -231 CURVE SMOOTH",
"12 -231 OFFCURVE",
"57 -188 OFFCURVE",
"84 -69 CURVE",
"176 330 LINE",
"438 330 LINE",
"448 371 LINE",
"186 371 LINE",
"248 639 LINE",
"510 639 LINE",
"519 680 LINE",
"207 680 LINE",
"33 -68 LINE",
"11 -155 OFFCURVE",
"-19 -189 OFFCURVE",
"-71 -189 CURVE SMOOTH",
"-92 -189 OFFCURVE",
"-115 -186 OFFCURVE",
"-134 -180 CURVE",
"-144 -224 LINE"
);
}
);
width = 454;
},
{
layerId = "3FCD75D8-58B8-44DB-99C9-FF8F25B81242";
paths = (
{
closed = 1;
nodes = (
"-119 -229 OFFCURVE",
"-95 -231 OFFCURVE",
"-77 -231 CURVE SMOOTH",
"36 -231 OFFCURVE",
"95 -180 OFFCURVE",
"123 -53 CURVE",
"208 315 LINE",
"454 315 LINE",
"471 386 LINE",
"224 386 LINE",
"275 609 LINE",
"522 609 LINE",
"539 680 LINE",
"205 680 LINE",
"34 -63 LINE",
"17 -133 OFFCURVE",
"-14 -161 OFFCURVE",
"-62 -161 CURVE SMOOTH",
"-78 -161 OFFCURVE",
"-99 -158 OFFCURVE",
"-116 -153 CURVE",
"-133 -226 LINE"
);
}
);
width = 474;
}
);
leftKerningGroup = H;
rightKerningGroup = F;
rightMetricsKey = F;
unicode = 0191;
},
{
color = 4;
glyphname = G;
lastChange = "2019-02-05 21:48:03 +0000";
layers = (
{
anchors = (
{
name = bottom;
position = "{361, 0}";
},
{
name = top;
position = "{441, 680}";
}
);
layerId = UUID0;
rightMetricsKey = "=15";
paths = (
{
closed = 1;
nodes = (
"580 -12 OFFCURVE",
"746 158 OFFCURVE",
"746 348 CURVE SMOOTH",
"746 367 OFFCURVE",
"746 383 OFFCURVE",
"743 402 CURVE",
"401 402 LINE",
"366 247 LINE",
"520 247 LINE",
"491 207 OFFCURVE",
"440 187 OFFCURVE",
"386 187 CURVE SMOOTH",
"296 187 OFFCURVE",
"250 248 OFFCURVE",
"250 327 CURVE SMOOTH",
"250 424 OFFCURVE",
"320 491 OFFCURVE",
"423 491 CURVE SMOOTH",
"473 491 OFFCURVE",
"518 472 OFFCURVE",
"539 439 CURVE",
"706 567 LINE",
"661 646 OFFCURVE",
"566 693 OFFCURVE",
"449 693 CURVE SMOOTH",
"210 693 OFFCURVE",
"41 534 OFFCURVE",
"41 309 CURVE SMOOTH",
"41 114 OFFCURVE",
"167 -12 OFFCURVE",
"359 -12 CURVE SMOOTH"
);
}
);
width = 746;
},
{
anchors = (
{
name = bottom;
position = "{393, 0}";
},
{
name = top;
position = "{460, 680}";
}
);
layerId = "C8A0F6C7-7618-41E1-A0A3-A261758331D0";
paths = (
{
closed = 1;
nodes = (
"624 -12 OFFCURVE",
"783 145 OFFCURVE",
"783 356 CURVE SMOOTH",
"783 360 OFFCURVE",
"783 364 OFFCURVE",
"782 371 CURVE",
"436 371 LINE",
"427 330 LINE",
"733 330 LINE",
"717 155 OFFCURVE",
"578 29 OFFCURVE",
"406 29 CURVE SMOOTH",
"243 29 OFFCURVE",
"130 144 OFFCURVE",
"130 315 CURVE SMOOTH",
"130 506 OFFCURVE",
"270 652 OFFCURVE",
"460 652 CURVE SMOOTH",
"562 652 OFFCURVE",
"644 609 OFFCURVE",
"690 543 CURVE",
"730 574 LINE",
"673 647 OFFCURVE",
"579 693 OFFCURVE",
"462 693 CURVE SMOOTH",
"234 693 OFFCURVE",
"77 526 OFFCURVE",
"77 315 CURVE SMOOTH",
"77 122 OFFCURVE",
"209 -12 OFFCURVE",
"405 -12 CURVE SMOOTH"
);
}
);
width = 808;
},
{
anchors = (
{
name = bottom;
position = "{387, 0}";
},
{
name = top;
position = "{457, 680}";
}
);
layerId = "3FCD75D8-58B8-44DB-99C9-FF8F25B81242";
paths = (
{
closed = 1;
nodes = (
"606 -12 OFFCURVE",
"774 147 OFFCURVE",
"774 367 CURVE SMOOTH",
"774 373 OFFCURVE",
"774 380 OFFCURVE",
"773 386 CURVE",
"433 386 LINE",
"416 315 LINE",
"689 315 LINE",
"666 157 OFFCURVE",
"546 61 OFFCURVE",
"405 61 CURVE SMOOTH",
"260 61 OFFCURVE",
"158 164 OFFCURVE",
"158 317 CURVE SMOOTH",
"158 488 OFFCURVE",
"284 619 OFFCURVE",
"450 619 CURVE SMOOTH",
"538 619 OFFCURVE",
"612 583 OFFCURVE",
"658 515 CURVE",
"722 567 LINE",
"663 646 OFFCURVE",
"570 692 OFFCURVE",
"454 692 CURVE SMOOTH",
"233 692 OFFCURVE",
"73 525 OFFCURVE",
"73 317 CURVE SMOOTH",
"73 128 OFFCURVE",
"204 -12 OFFCURVE",
"399 -12 CURVE SMOOTH"
);
}
);
width = 795;
}
);
leftKerningGroup = O;
leftMetricsKey = O;
rightKerningGroup = G;
rightMetricsKey = O;
unicode = 0047;
},
{
color = 4;
glyphname = Ghook;
lastChange = "2019-02-05 21:48:03 +0000";
layers = (
{
layerId = UUID0;
paths = (
{
closed = 1;
nodes = (
"580 -12 OFFCURVE",
"746 158 OFFCURVE",
"746 348 CURVE SMOOTH",
"746 367 OFFCURVE",
"746 383 OFFCURVE",
"743 402 CURVE",
"401 402 LINE",
"366 247 LINE",
"520 247 LINE",
"491 207 OFFCURVE",
"440 187 OFFCURVE",
"386 187 CURVE SMOOTH",
"306 187 OFFCURVE",
"260 248 OFFCURVE",
"260 327 CURVE SMOOTH",
"260 424 OFFCURVE",
"330 491 OFFCURVE",
"423 491 CURVE SMOOTH",
"473 491 OFFCURVE",
"518 472 OFFCURVE",
"539 439 CURVE",
"709 571 LINE",
"703 585 OFFCURVE",
"702 590 OFFCURVE",
"702 614 CURVE SMOOTH",
"702 665 OFFCURVE",
"735 691 OFFCURVE",
"772 691 CURVE SMOOTH",
"787 691 OFFCURVE",
"810 689 OFFCURVE",
"810 689 CURVE",
"849 854 LINE",
"849 854 OFFCURVE",
"812 858 OFFCURVE",
"757 858 CURVE SMOOTH",
"640 858 OFFCURVE",
"569 814 OFFCURVE",
"551 730 CURVE SMOOTH",
"543 694 OFFCURVE",
"547 669 OFFCURVE",
"561 647 CURVE",
"574 673 LINE",
"536 685 OFFCURVE",
"495 693 OFFCURVE",
"449 693 CURVE SMOOTH",
"210 693 OFFCURVE",
"41 534 OFFCURVE",
"41 309 CURVE SMOOTH",
"41 114 OFFCURVE",
"167 -12 OFFCURVE",
"359 -12 CURVE SMOOTH"
);
}
);
width = 746;
},
{
layerId = "C8A0F6C7-7618-41E1-A0A3-A261758331D0";
paths = (
{
closed = 1;
nodes = (
"619 -12 OFFCURVE",
"783 141 OFFCURVE",
"783 357 CURVE SMOOTH",
"783 360 OFFCURVE",
"783 364 OFFCURVE",
"782 371 CURVE",
"436 371 LINE",
"427 330 LINE",
"733 330 LINE",
"717 155 OFFCURVE",
"578 29 OFFCURVE",
"406 29 CURVE SMOOTH",
"243 29 OFFCURVE",
"130 144 OFFCURVE",
"130 315 CURVE SMOOTH",
"130 506 OFFCURVE",
"270 652 OFFCURVE",
"460 652 CURVE SMOOTH",
"562 652 OFFCURVE",
"644 609 OFFCURVE",
"690 543 CURVE",
"725 574 LINE",
"718 607 OFFCURVE",
"718 629 OFFCURVE",
"718 661 CURVE SMOOTH",
"718 718 OFFCURVE",
"749 762 OFFCURVE",
"805 762 CURVE SMOOTH",
"825 762 OFFCURVE",
"848 757 OFFCURVE",
"848 757 CURVE",
"858 800 LINE",
"858 800 OFFCURVE",
"832 804 OFFCURVE",
"809 804 CURVE SMOOTH",
"725 804 OFFCURVE",
"672 753 OFFCURVE",
"672 667 CURVE SMOOTH",
"672 641 OFFCURVE",
"677 624 OFFCURVE",
"680 614 CURVE",
"687 618 LINE",
"630 666 OFFCURVE",
"553 693 OFFCURVE",
"462 693 CURVE SMOOTH",
"234 693 OFFCURVE",
"77 526 OFFCURVE",
"77 315 CURVE SMOOTH",
"77 122 OFFCURVE",
"209 -12 OFFCURVE",
"407 -12 CURVE SMOOTH"
);
}
);
width = 808;
},
{
layerId = "3FCD75D8-58B8-44DB-99C9-FF8F25B81242";
paths = (
{
closed = 1;
nodes = (
"606 -12 OFFCURVE",
"774 147 OFFCURVE",
"774 367 CURVE SMOOTH",
"774 373 OFFCURVE",
"774 380 OFFCURVE",
"773 386 CURVE",
"433 386 LINE",
"416 315 LINE",
"689 315 LINE",
"666 157 OFFCURVE",
"546 61 OFFCURVE",
"405 61 CURVE SMOOTH",
"260 61 OFFCURVE",
"158 164 OFFCURVE",
"158 317 CURVE SMOOTH",
"158 488 OFFCURVE",
"284 619 OFFCURVE",
"450 619 CURVE SMOOTH",
"538 619 OFFCURVE",
"619 585 OFFCURVE",
"665 517 CURVE",
"718 565 LINE",
"703 606 OFFCURVE",
"704 639 OFFCURVE",
"704 653 CURVE SMOOTH",
"704 712 OFFCURVE",
"736 751 OFFCURVE",
"784 751 CURVE SMOOTH",
"809 751 OFFCURVE",
"830 746 OFFCURVE",
"830 746 CURVE",
"848 820 LINE",
"848 820 OFFCURVE",
"823 824 OFFCURVE",
"789 824 CURVE SMOOTH",
"694 824 OFFCURVE",
"627 764 OFFCURVE",
"627 684 CURVE SMOOTH",
"627 655 OFFCURVE",
"634 637 OFFCURVE",
"641 625 CURVE",
"656 632 LINE",
"601 670 OFFCURVE",
"533 692 OFFCURVE",
"454 692 CURVE SMOOTH",
"233 692 OFFCURVE",
"73 525 OFFCURVE",
"73 317 CURVE SMOOTH",
"73 128 OFFCURVE",
"204 -12 OFFCURVE",
"399 -12 CURVE SMOOTH"
);
}
);
width = 795;
}
);
leftKerningGroup = O;
leftMetricsKey = O;
widthMetricsKey = G;
rightKerningGroup = G;
rightMetricsKey = G;
unicode = 0193;
},
{
color = 4;
glyphname = Glottalstop;
lastChange = "2019-02-05 23:13:07 +0000";
layers = (
{
layerId = UUID0;
paths = (
{
closed = 1;
nodes = (
"335 0 LINE",
"395 251 LINE",
"507 290 OFFCURVE",
"596 365 OFFCURVE",
"596 493 CURVE SMOOTH",
"596 628 OFFCURVE",
"496 692 OFFCURVE",
"362 692 CURVE SMOOTH",
"198 692 OFFCURVE",
"72 599 OFFCURVE",
"45 461 CURVE",
"252 461 LINE",
"266 493 OFFCURVE",
"294 514 OFFCURVE",
"325 514 CURVE SMOOTH",
"352 514 OFFCURVE",
"374 498 OFFCURVE",
"374 462 CURVE SMOOTH",
"374 401 OFFCURVE",
"308 340 OFFCURVE",
"208 330 CURVE",
"130 0 LINE"
);
}
);
width = 589;
},
{
layerId = "C8A0F6C7-7618-41E1-A0A3-A261758331D0";
paths = (
{
closed = 1;
nodes = (
"208 0 LINE",
"268 252 LINE",
"430 322 OFFCURVE",
"515 422 OFFCURVE",
"515 529 CURVE SMOOTH",
"515 634 OFFCURVE",
"445 692 OFFCURVE",
"339 692 CURVE SMOOTH",
"225 692 OFFCURVE",
"135 628 OFFCURVE",
"98 528 CURVE",
"149 528 LINE",
"181 604 OFFCURVE",
"254 652 OFFCURVE",
"335 652 CURVE SMOOTH",
"414 652 OFFCURVE",
"466 609 OFFCURVE",
"466 527 CURVE SMOOTH",
"466 435 OFFCURVE",
"383 345 OFFCURVE",
"229 279 CURVE",
"163 0 LINE"
);
}
);
width = 495;
},
{
layerId = "3FCD75D8-58B8-44DB-99C9-FF8F25B81242";
paths = (
{
closed = 1;
nodes = (
"236 0 LINE",
"296 261 LINE",
"450 313 OFFCURVE",
"528 405 OFFCURVE",
"528 518 CURVE SMOOTH",
"528 625 OFFCURVE",
"456 692 OFFCURVE",
"345 692 CURVE SMOOTH",
"226 692 OFFCURVE",
"134 623 OFFCURVE",
"89 506 CURVE",
"176 506 LINE",
"206 575 OFFCURVE",
"261 616 OFFCURVE",
"336 616 CURVE SMOOTH",
"401 616 OFFCURVE",
"442 579 OFFCURVE",
"442 512 CURVE SMOOTH",
"442 423 OFFCURVE",
"368 355 OFFCURVE",
"227 308 CURVE",
"156 0 LINE"
);
}
);
width = 510;
}
);
leftKerningGroup = Glottalstop;
rightKerningGroup = Glottalstop;
unicode = 0241;
},
{
color = 4;
glyphname = Gstroke;
lastChange = "2019-02-05 21:48:03 +0000";
layers = (
{
layerId = UUID0;
paths = (
{
closed = 1;
nodes = (
"620 -12 OFFCURVE",
"756 158 OFFCURVE",
"756 348 CURVE SMOOTH",
"756 367 OFFCURVE",
"756 383 OFFCURVE",
"753 402 CURVE",
"401 402 LINE",
"366 247 LINE",
"530 247 LINE",
"511 175 OFFCURVE",
"440 163 OFFCURVE",
"396 163 CURVE SMOOTH",
"296 163 OFFCURVE",
"250 238 OFFCURVE",
"250 317 CURVE SMOOTH",
"250 414 OFFCURVE",
"320 491 OFFCURVE",
"423 491 CURVE SMOOTH",
"473 491 OFFCURVE",
"518 472 OFFCURVE",
"539 439 CURVE",
"706 567 LINE",
"661 646 OFFCURVE",
"566 693 OFFCURVE",
"449 693 CURVE SMOOTH",
"210 693 OFFCURVE",
"41 534 OFFCURVE",
"41 309 CURVE SMOOTH",
"41 114 OFFCURVE",
"167 -12 OFFCURVE",
"379 -12 CURVE SMOOTH"
);
},
{
closed = 1;
nodes = (
"771 218 LINE",
"808 378 LINE",
"420 378 LINE",
"383 218 LINE"
);
}
);
width = 782;
},
{
layerId = "C8A0F6C7-7618-41E1-A0A3-A261758331D0";
paths = (
{
closed = 1;
nodes = (
"624 -12 OFFCURVE",
"783 145 OFFCURVE",
"783 356 CURVE SMOOTH",
"783 360 OFFCURVE",
"783 364 OFFCURVE",
"782 371 CURVE",
"436 371 LINE",
"427 330 LINE",
"733 330 LINE",
"717 155 OFFCURVE",
"578 29 OFFCURVE",
"406 29 CURVE SMOOTH",
"243 29 OFFCURVE",
"130 144 OFFCURVE",
"130 315 CURVE SMOOTH",
"130 506 OFFCURVE",
"270 652 OFFCURVE",
"460 652 CURVE SMOOTH",
"562 652 OFFCURVE",
"644 609 OFFCURVE",
"690 543 CURVE",
"730 574 LINE",
"673 647 OFFCURVE",
"579 693 OFFCURVE",
"462 693 CURVE SMOOTH",
"234 693 OFFCURVE",
"77 526 OFFCURVE",
"77 315 CURVE SMOOTH",
"77 122 OFFCURVE",
"209 -12 OFFCURVE",
"405 -12 CURVE SMOOTH"
);
},
{
closed = 1;
nodes = (
"833 169 LINE",
"842 210 LINE",
"546 210 LINE",
"537 169 LINE"
);
}
);
width = 840;
},
{
layerId = "3FCD75D8-58B8-44DB-99C9-FF8F25B81242";
paths = (
{
closed = 1;
nodes = (
"606 -12 OFFCURVE",
"774 147 OFFCURVE",
"774 367 CURVE SMOOTH",
"774 373 OFFCURVE",
"774 380 OFFCURVE",
"773 386 CURVE",
"433 386 LINE",
"416 315 LINE",
"689 315 LINE",
"666 157 OFFCURVE",
"546 61 OFFCURVE",
"405 61 CURVE SMOOTH",
"260 61 OFFCURVE",
"158 164 OFFCURVE",
"158 317 CURVE SMOOTH",
"158 488 OFFCURVE",
"284 619 OFFCURVE",
"450 619 CURVE SMOOTH",
"538 619 OFFCURVE",
"612 583 OFFCURVE",
"658 515 CURVE",
"722 567 LINE",
"663 646 OFFCURVE",
"570 692 OFFCURVE",
"454 692 CURVE SMOOTH",
"233 692 OFFCURVE",
"73 525 OFFCURVE",
"73 317 CURVE SMOOTH",
"73 128 OFFCURVE",
"204 -12 OFFCURVE",
"399 -12 CURVE SMOOTH"
);
},
{
closed = 1;
nodes = (
"827 160 LINE",
"844 231 LINE",
"498 231 LINE",
"481 160 LINE"
);
}
);
width = 843;
},
{
associatedMasterId = "3FCD75D8-58B8-44DB-99C9-FF8F25B81242";
background = {
paths = (
{
closed = 1;
nodes = (
"642 -12 OFFCURVE",
"775 143 OFFCURVE",
"775 342 CURVE SMOOTH",
"775 356 OFFCURVE",
"774 372 OFFCURVE",
"772 386 CURVE",
"684 386 LINE",
"688 362 OFFCURVE",
"688 352 OFFCURVE",
"688 340 CURVE SMOOTH",
"688 182 OFFCURVE",
"591 61 OFFCURVE",
"422 61 CURVE SMOOTH",
"274 61 OFFCURVE",
"157 192 OFFCURVE",
"157 340 CURVE SMOOTH",
"157 489 OFFCURVE",
"274 619 OFFCURVE",
"422 619 CURVE SMOOTH",
"499 619 OFFCURVE",
"569 585 OFFCURVE",
"617 531 CURVE",
"675 590 LINE",
"612 654 OFFCURVE",
"522 692 OFFCURVE",
"422 692 CURVE SMOOTH",
"222 692 OFFCURVE",
"70 537 OFFCURVE",
"70 340 CURVE SMOOTH",
"70 143 OFFCURVE",
"222 -12 OFFCURVE",
"422 -12 CURVE SMOOTH"
);
},
{
closed = 1;
nodes = (
"740 315 LINE",
"740 386 LINE",
"421 386 LINE",
"421 315 LINE"
);
},
{
closed = 1;
nodes = (
"849 160 LINE",
"849 231 LINE",
"503 231 LINE",
"503 160 LINE"
);
}
);
};
layerId = "6CC86D80-23ED-4D9A-A063-0851701D421F";
name = "Regular [114]";
paths = (
{
closed = 1;
nodes = (
"606 -12 OFFCURVE",
"774 117 OFFCURVE",
"774 367 CURVE SMOOTH",
"774 373 OFFCURVE",
"774 380 OFFCURVE",
"773 386 CURVE",
"688 386 LINE",
"691 362 OFFCURVE",
"691 340 OFFCURVE",
"691 326 CURVE SMOOTH",
"691 161 OFFCURVE",
"546 61 OFFCURVE",
"405 61 CURVE SMOOTH",
"260 61 OFFCURVE",
"158 164 OFFCURVE",
"158 317 CURVE SMOOTH",
"158 488 OFFCURVE",
"284 619 OFFCURVE",
"450 619 CURVE SMOOTH",
"538 619 OFFCURVE",
"612 583 OFFCURVE",
"658 515 CURVE",
"722 567 LINE",
"663 646 OFFCURVE",
"570 692 OFFCURVE",
"454 692 CURVE SMOOTH",
"233 692 OFFCURVE",
"73 525 OFFCURVE",
"73 317 CURVE SMOOTH",
"73 128 OFFCURVE",
"204 -12 OFFCURVE",
"399 -12 CURVE SMOOTH"
);
},
{
closed = 1;
nodes = (
"827 160 LINE",
"844 231 LINE",
"498 231 LINE",
"481 160 LINE"
);
}
);
width = 823;
},
{
associatedMasterId = UUID0;
layerId = "FCE98A1A-4725-4A74-8668-AFACD7C188C4";
name = "Black [114]";
paths = (
{
closed = 1;
nodes = (
"628 -12 OFFCURVE",
"767 158 OFFCURVE",
"767 338 CURVE SMOOTH",
"767 367 OFFCURVE",
"765 383 OFFCURVE",
"762 402 CURVE",
"549 402 LINE",
"554 379 OFFCURVE",
"558 356 OFFCURVE",
"558 322 CURVE SMOOTH",
"558 228 OFFCURVE",
"505 163 OFFCURVE",
"396 163 CURVE SMOOTH",
"296 163 OFFCURVE",
"250 238 OFFCURVE",
"250 317 CURVE SMOOTH",
"250 414 OFFCURVE",
"320 491 OFFCURVE",
"423 491 CURVE SMOOTH",
"473 491 OFFCURVE",
"518 472 OFFCURVE",
"539 439 CURVE",
"706 567 LINE",
"661 646 OFFCURVE",
"566 693 OFFCURVE",
"449 693 CURVE SMOOTH",
"210 693 OFFCURVE",
"41 534 OFFCURVE",
"41 309 CURVE SMOOTH",
"41 114 OFFCURVE",
"167 -12 OFFCURVE",
"379 -12 CURVE SMOOTH"
);
},
{
closed = 1;
nodes = (
"779 218 LINE",
"816 378 LINE",
"428 378 LINE",
"391 218 LINE"
);
}
);
width = 782;
}
);
leftKerningGroup = O;
leftMetricsKey = O;
rightKerningGroup = G;
unicode = 01E4;
},
{
color = 4;
glyphname = Yogh;
lastChange = "2019-02-05 21:48:03 +0000";
layers = (
{
layerId = UUID0;
paths = (
{
closed = 1;
nodes = (
"481 -15 OFFCURVE",
"612 85 OFFCURVE",
"612 225 CURVE SMOOTH",
"612 300 OFFCURVE",
"574 358 OFFCURVE",
"509 384 CURVE",
"335 270 LINE",
"367 268 OFFCURVE",
"388 246 OFFCURVE",
"388 218 CURVE SMOOTH",
"388 181 OFFCURVE",
"350 157 OFFCURVE",
"299 157 CURVE SMOOTH",
"251 157 OFFCURVE",
"220 179 OFFCURVE",
"214 216 CURVE",
"8 216 LINE",
"17 67 OFFCURVE",
"118 -15 OFFCURVE",
"291 -15 CURVE SMOOTH"
);
},
{
closed = 1;
nodes = (
"413 257 OFFCURVE",
"647 343 OFFCURVE",
"647 525 CURVE SMOOTH",
"647 628 OFFCURVE",
"571 695 OFFCURVE",
"416 695 CURVE SMOOTH",
"236 695 OFFCURVE",
"104 605 OFFCURVE",
"69 475 CURVE",
"286 475 LINE",
"305 506 OFFCURVE",
"338 524 OFFCURVE",
"376 524 CURVE SMOOTH",
"409 524 OFFCURVE",
"432 510 OFFCURVE",
"432 486 CURVE SMOOTH",
"432 442 OFFCURVE",
"383 427 OFFCURVE",
"285 422 CURVE",
"246 257 LINE"
);
}
);
width = 636;
},
{
guideLines = (
{
position = "{617, 288}";
}
);
layerId = "C8A0F6C7-7618-41E1-A0A3-A261758331D0";
paths = (
{
closed = 1;
nodes = (
"401 -12 OFFCURVE",
"524 74 OFFCURVE",
"524 209 CURVE SMOOTH",
"524 274 OFFCURVE",
"491 348 OFFCURVE",
"389 376 CURVE",
"343 350 LINE",
"433 327 OFFCURVE",
"473 267 OFFCURVE",
"473 206 CURVE SMOOTH",
"473 94 OFFCURVE",
"373 29 OFFCURVE",
"258 29 CURVE SMOOTH",
"148 29 OFFCURVE",
"99 94 OFFCURVE",
"87 167 CURVE",
"32 167 LINE",
"46 72 OFFCURVE",
"115 -12 OFFCURVE",
"253 -12 CURVE SMOOTH"
);
},
{
closed = 1;
nodes = (
"437 334 OFFCURVE",
"569 404 OFFCURVE",
"569 533 CURVE SMOOTH",
"569 628 OFFCURVE",
"499 692 OFFCURVE",
"394 692 CURVE SMOOTH",
"289 692 OFFCURVE",
"179 638 OFFCURVE",
"143 519 CURVE",
"198 519 LINE",
"229 614 OFFCURVE",
"318 651 OFFCURVE",
"392 651 CURVE SMOOTH",
"469 651 OFFCURVE",
"520 603 OFFCURVE",
"520 531 CURVE SMOOTH",
"520 427 OFFCURVE",
"411 374 OFFCURVE",
"278 363 CURVE",
"268 318 LINE"
);
}
);
width = 578;
},
{
guideLines = (
{
angle = 77;
position = "{558, 218}";
}
);
layerId = "3FCD75D8-58B8-44DB-99C9-FF8F25B81242";
paths = (
{
closed = 1;
nodes = (
"434 -12 OFFCURVE",
"547 83 OFFCURVE",
"547 215 CURVE SMOOTH",
"547 303 OFFCURVE",
"497 359 OFFCURVE",
"411 385 CURVE",
"332 350 LINE",
"406 330 OFFCURVE",
"460 287 OFFCURVE",
"460 210 CURVE SMOOTH",
"460 119 OFFCURVE",
"386 65 OFFCURVE",
"276 65 CURVE SMOOTH",
"181 65 OFFCURVE",
"127 108 OFFCURVE",
"121 182 CURVE",
"30 182 LINE",
"40 58 OFFCURVE",
"127 -12 OFFCURVE",
"269 -12 CURVE SMOOTH"
);
},
{
closed = 1;
nodes = (
"404 313 OFFCURVE",
"581 368 OFFCURVE",
"581 526 CURVE SMOOTH",
"581 627 OFFCURVE",
"509 692 OFFCURVE",
"390 692 CURVE SMOOTH",
"265 692 OFFCURVE",
"161 621 OFFCURVE",
"129 512 CURVE",
"221 512 LINE",
"244 574 OFFCURVE",
"302 615 OFFCURVE",
"380 615 CURVE SMOOTH",
"451 615 OFFCURVE",
"496 581 OFFCURVE",
"496 520 CURVE SMOOTH",
"496 437 OFFCURVE",
"419 395 OFFCURVE",
"265 375 CURVE",
"249 301 LINE"
);
}
);
width = 596;
}
);
leftKerningGroup = "Ze-cy";
leftMetricsKey = "Ze-cy";
rightKerningGroup = B;
rightMetricsKey = B;
unicode = 021C;
},
{
color = 4;
glyphname = H;
lastChange = "2019-02-05 21:48:03 +0000";
layers = (
{
anchors = (
{
name = bottom;
position = "{332, 0}";
},
{
name = center;
position = "{409, 340}";
},
{
name = top;
position = "{487, 680}";
},
{
name = topleft;
position = "{90, 680}";
}
);
layerId = UUID0;
leftMetricsKey = "=50";
rightMetricsKey = "=50";
paths = (
{
closed = 1;
nodes = (
"218 0 LINE",
"278 259 LINE",
"507 259 LINE",
"447 0 LINE",
"672 0 LINE",
"829 680 LINE",
"604 680 LINE",
"549 441 LINE",
"320 441 LINE",
"375 680 LINE",
"150 680 LINE",
"-7 0 LINE"
);
}
);
width = 779;
},
{
anchors = (
{
name = bottom;
position = "{326, 0}";
},
{
name = center;
position = "{404, 340}";
},
{
name = top;
position = "{468, 680}";
},
{
name = topleft;
position = "{125, 680}";
}
);
layerId = "C8A0F6C7-7618-41E1-A0A3-A261758331D0";
leftMetricsKey = "=100";
paths = (
{
closed = 1;
nodes = (
"98 0 LINE",
"174 330 LINE",
"628 330 LINE",
"552 0 LINE",
"602 0 LINE",
"759 680 LINE",
"709 680 LINE",
"638 371 LINE",
"184 371 LINE",
"255 680 LINE",
"205 680 LINE",
"48 0 LINE"
);
}
);
width = 754;
},
{
anchors = (
{
name = bottom;
position = "{335, 0}";
},
{
name = center;
position = "{415, 345}";
},
{
name = top;
position = "{485, 680}";
},
{
name = topleft;
position = "{125, 680}";
}
);
layerId = "3FCD75D8-58B8-44DB-99C9-FF8F25B81242";
leftMetricsKey = "=100";
paths = (
{
closed = 1;
nodes = (
"134 0 LINE",
"206 315 LINE",
"614 315 LINE",
"542 0 LINE",
"628 0 LINE",
"785 680 LINE",
"699 680 LINE",
"631 386 LINE",
"223 386 LINE",
"291 680 LINE",
"205 680 LINE",
"48 0 LINE"
);
}
);
width = 780;
}
);
leftKerningGroup = H;
rightKerningGroup = H;
rightMetricsKey = "=|";
unicode = 0048;
},
{
color = 4;
glyphname = Hbar;
lastChange = "2019-02-05 21:48:03 +0000";
layers = (
{
layerId = UUID0;
paths = (
{
closed = 1;
nodes = (
"218 0 LINE",
"265 207 LINE",
"499 207 LINE",
"452 0 LINE",
"676 0 LINE",
"779 450 LINE",
"824 450 LINE",
"864 620 LINE",
"819 620 LINE",
"832 680 LINE",
"608 680 LINE",
"595 620 LINE",
"361 620 LINE",
"374 680 LINE",
"150 680 LINE",
"137 620 LINE",
"92 620 LINE",
"52 450 LINE",
"97 450 LINE",
"-6 0 LINE"
);
},
{
closed = 1;
nodes = (
"321 450 LINE",
"555 450 LINE",
"539 381 LINE",
"305 381 LINE"
);
}
);
width = 782;
},
{
layerId = "C8A0F6C7-7618-41E1-A0A3-A261758331D0";
paths = (
{
closed = 1;
nodes = (
"94 0 LINE",
"170 330 LINE",
"624 330 LINE",
"548 0 LINE",
"598 0 LINE",
"715 508 LINE",
"795 508 LINE",
"804 549 LINE",
"724 549 LINE",
"754 680 LINE",
"704 680 LINE",
"674 549 LINE",
"220 549 LINE",
"250 680 LINE",
"200 680 LINE",
"170 549 LINE",
"90 549 LINE",
"81 508 LINE",
"161 508 LINE",
"44 0 LINE"
);
},
{
closed = 1;
nodes = (
"211 508 LINE",
"665 508 LINE",
"633 371 LINE",
"179 371 LINE"
);
}
);
width = 744;
},
{
layerId = "3FCD75D8-58B8-44DB-99C9-FF8F25B81242";
paths = (
{
closed = 1;
nodes = (
"129 0 LINE",
"201 315 LINE",
"610 315 LINE",
"538 0 LINE",
"624 0 LINE",
"740 503 LINE",
"820 503 LINE",
"836 572 LINE",
"756 572 LINE",
"780 680 LINE",
"694 680 LINE",
"670 572 LINE",
"261 572 LINE",
"285 680 LINE",
"199 680 LINE",
"175 572 LINE",
"95 572 LINE",
"79 503 LINE",
"159 503 LINE",
"43 0 LINE"
);
},
{
closed = 1;
nodes = (
"245 503 LINE",
"654 503 LINE",
"627 386 LINE",
"218 386 LINE"
);
}
);
width = 771;
}
);
leftKerningGroup = H;
rightKerningGroup = H;
rightMetricsKey = "=|";
unicode = 0126;
},
{
color = 4;
glyphname = Hhook;
lastChange = "2019-02-05 21:48:03 +0000";
layers = (
{
components = (
{
name = H;
transform = "{1, 0, 0, 1, 127, 0}";
}
);
layerId = "C8A0F6C7-7618-41E1-A0A3-A261758331D0";
paths = (
{
closed = 1;
nodes = (
"132 456 LINE",
"128 472 OFFCURVE",
"126 488 OFFCURVE",
"126 508 CURVE SMOOTH",
"126 587 OFFCURVE",
"184 639 OFFCURVE",
"272 639 CURVE SMOOTH",
"333 639 LINE",
"351 680 LINE",
"278 680 LINE SMOOTH",
"156 680 OFFCURVE",
"75 611 OFFCURVE",
"75 507 CURVE SMOOTH",
"75 492 OFFCURVE",
"77 471 OFFCURVE",
"81 456 CURVE"
);
}
);
width = 881;
},
{
components = (
{
name = H;
transform = "{1, 0, 0, 1, 221, 0}";
}
);
layerId = UUID0;
paths = (
{
closed = 1;
nodes = (
"246 401 LINE",
"243 412 OFFCURVE",
"241 427 OFFCURVE",
"241 438 CURVE SMOOTH",
"241 484 OFFCURVE",
"272 506 OFFCURVE",
"319 506 CURVE SMOOTH",
"346 506 LINE",
"393 680 LINE",
"315 680 LINE SMOOTH",
"163 680 OFFCURVE",
"61 592 OFFCURVE",
"61 460 CURVE SMOOTH",
"61 441 OFFCURVE",
"63 420 OFFCURVE",
"67 401 CURVE"
);
}
);
width = 1000;
},
{
components = (
{
alignment = -1;
name = H;
transform = "{1, 0, 0, 1, 116, 0}";
}
);
layerId = "3FCD75D8-58B8-44DB-99C9-FF8F25B81242";
paths = (
{
closed = 1;
nodes = (
"146 449 LINE",
"140 465 OFFCURVE",
"136 492 OFFCURVE",
"136 512 CURVE SMOOTH",
"136 572 OFFCURVE",
"181 609 OFFCURVE",
"249 609 CURVE SMOOTH",
"307 609 LINE",
"348 680 LINE",
"251 680 LINE SMOOTH",
"131 680 OFFCURVE",
"55 614 OFFCURVE",
"55 515 CURVE SMOOTH",
"55 494 OFFCURVE",
"59 468 OFFCURVE",
"66 449 CURVE"
);
}
);
width = 896;
}
);
leftKerningGroup = Bhook;
leftMetricsKey = Bhook;
rightKerningGroup = H;
rightMetricsKey = H;
unicode = A7AA;
},
{
color = 4;
glyphname = Hturned;
lastChange = "2019-02-05 21:48:03 +0000";
layers = (
{
layerId = "C8A0F6C7-7618-41E1-A0A3-A261758331D0";
leftMetricsKey = "=45";
paths = (
{
closed = 1;
nodes = (
"547 0 LINE",
"704 680 LINE",
"654 680 LINE",
"583 371 LINE",
"129 371 LINE",
"200 680 LINE",
"150 680 LINE",
"69 330 LINE",
"573 330 LINE",
"497 0 LINE"
);
}
);
width = 699;
},
{
layerId = UUID0;
paths = (
{
closed = 1;
nodes = (
"652 0 LINE",
"809 680 LINE",
"584 680 LINE",
"529 441 LINE",
"300 441 LINE",
"355 680 LINE",
"130 680 LINE",
"33 259 LINE",
"487 259 LINE",
"427 0 LINE"
);
}
);
width = 759;
},
{
layerId = "3FCD75D8-58B8-44DB-99C9-FF8F25B81242";
paths = (
{
closed = 1;
nodes = (
"578 0 LINE",
"735 680 LINE",
"649 680 LINE",
"581 386 LINE",
"173 386 LINE",
"241 680 LINE",
"155 680 LINE",
"70 315 LINE",
"564 315 LINE",
"492 0 LINE"
);
}
);
width = 730;
}
);
leftKerningGroup = Hturned;
rightKerningGroup = H;
rightMetricsKey = H;
unicode = A78D;
},
{
color = 4;
glyphname = I;
lastChange = "2019-02-05 21:48:03 +0000";
layers = (
{
anchors = (
{
name = bottom;
position = "{103, 0}";
},
{
name = ogonek;
position = "{218, 0}";
},
{
name = top;
position = "{257, 680}";
},
{
name = topleft;
position = "{90, 680}";
}
);
layerId = UUID0;
paths = (
{
closed = 1;
nodes = (
"218 0 LINE",
"375 680 LINE",
"150 680 LINE",
"-7 0 LINE"
);
}
);
width = 325;
},
{
anchors = (
{
name = bottom;
position = "{73, 0}";
},
{
name = ogonek;
position = "{98, 0}";
},
{
name = top;
position = "{229, 680}";
},
{
name = topleft;
position = "{125, 680}";
}
);
layerId = "C8A0F6C7-7618-41E1-A0A3-A261758331D0";
paths = (
{
closed = 1;
nodes = (
"98 0 LINE",
"255 680 LINE",
"205 680 LINE",
"48 0 LINE"
);
}
);
width = 250;
},
{
anchors = (
{
name = bottom;
position = "{91, 0}";
},
{
name = ogonek;
position = "{133, 0}";
},
{
name = top;
position = "{247, 680}";
},
{
name = topleft;
position = "{125, 680}";
}
);
layerId = "3FCD75D8-58B8-44DB-99C9-FF8F25B81242";
paths = (
{
closed = 1;
nodes = (
"134 0 LINE",
"291 680 LINE",
"205 680 LINE",
"48 0 LINE"
);
}
);
width = 286;
}
);
leftKerningGroup = H;
leftMetricsKey = H;
rightKerningGroup = H;
rightMetricsKey = H;
unicode = 0049;
},
{
color = 4;
glyphname = Iotaafrican;
lastChange = "2019-02-05 21:48:03 +0000";
layers = (
{
layerId = UUID0;
paths = (
{
closed = 1;
nodes = (
"262 -7 OFFCURVE",
"298 -3 OFFCURVE",
"298 -3 CURVE",
"340 179 LINE",
"340 179 OFFCURVE",
"329 176 OFFCURVE",
"313 176 CURVE SMOOTH",
"278 176 OFFCURVE",
"269 189 OFFCURVE",
"269 208 CURVE SMOOTH",
"269 216 OFFCURVE",
"271 226 OFFCURVE",
"273 236 CURVE SMOOTH",
"375 680 LINE",
"150 680 LINE",
"41 204 LINE SMOOTH",
"36 181 OFFCURVE",
"33 159 OFFCURVE",
"33 138 CURVE SMOOTH",
"33 54 OFFCURVE",
"82 -7 OFFCURVE",
"225 -7 CURVE SMOOTH"
);
}
);
width = 325;
},
{
layerId = "C8A0F6C7-7618-41E1-A0A3-A261758331D0";
paths = (
{
closed = 1;
nodes = (
"142 -5 OFFCURVE",
"152 -5 OFFCURVE",
"158 -4 CURVE",
"166 41 LINE",
"158 40 OFFCURVE",
"156 40 OFFCURVE",
"149 40 CURVE SMOOTH",
"140 40 OFFCURVE",
"114 42 OFFCURVE",
"114 62 CURVE SMOOTH",
"114 68 OFFCURVE",
"116 80 OFFCURVE",
"117 84 CURVE SMOOTH",
"255 680 LINE",
"205 680 LINE",
"67 83 LINE SMOOTH",
"64 70 OFFCURVE",
"62 58 OFFCURVE",
"62 49 CURVE SMOOTH",
"62 15 OFFCURVE",
"86 -5 OFFCURVE",
"133 -5 CURVE SMOOTH"
);
}
);
width = 270;
},
{
layerId = "3FCD75D8-58B8-44DB-99C9-FF8F25B81242";
paths = (
{
closed = 1;
nodes = (
"197 -5 OFFCURVE",
"213 -4 OFFCURVE",
"213 -4 CURVE",
"230 70 LINE",
"230 70 OFFCURVE",
"218 69 OFFCURVE",
"205 69 CURVE SMOOTH",
"182 69 OFFCURVE",
"160 75 OFFCURVE",
"160 104 CURVE SMOOTH",
"160 110 OFFCURVE",
"161 116 OFFCURVE",
"163 124 CURVE SMOOTH",
"291 680 LINE",
"205 680 LINE",
"76 120 LINE SMOOTH",
"73 107 OFFCURVE",
"72 95 OFFCURVE",
"72 84 CURVE SMOOTH",
"72 29 OFFCURVE",
"106 -5 OFFCURVE",
"174 -5 CURVE SMOOTH"
);
}
);
width = 316;
}
);
leftKerningGroup = H;
leftMetricsKey = H;
rightKerningGroup = H;
unicode = 0196;
},
{
color = 4;
glyphname = Istroke;
lastChange = "2019-02-05 21:48:03 +0000";
layers = (
{
components = (
{
name = I;
transform = "{1, 0, 0, 1, -2, 0}";
}
);
layerId = UUID0;
paths = (
{
closed = 1;
nodes = (
"317 254 LINE",
"359 434 LINE",
"49 434 LINE",
"7 254 LINE"
);
}
);
width = 320;
},
{
components = (
{
name = I;
transform = "{1, 0, 0, 1, -8, 0}";
}
);
layerId = "C8A0F6C7-7618-41E1-A0A3-A261758331D0";
paths = (
{
closed = 1;
nodes = (
"253 329 LINE",
"263 370 LINE",
"45 370 LINE",
"35 329 LINE"
);
}
);
width = 240;
},
{
components = (
{
alignment = -1;
name = I;
transform = "{1, 0, 0, 1, -6, 0}";
}
);
layerId = "3FCD75D8-58B8-44DB-99C9-FF8F25B81242";
paths = (
{
closed = 1;
nodes = (
"284 313 LINE",
"300 384 LINE",
"47 384 LINE",
"31 313 LINE"
);
}
);
width = 275;
}
);
leftKerningGroup = H;
rightKerningGroup = H;
rightMetricsKey = "=|";
unicode = 0197;
},
{
color = 4;
glyphname = J;
lastChange = "2019-02-05 21:48:03 +0000";
layers = (
{
anchors = (
{
name = bottom;
position = "{263, 0}";
},
{
name = top;
position = "{570, 680}";
}
);
layerId = UUID0;
leftMetricsKey = "=4";
paths = (
{
closed = 1;
nodes = (
"421 -15 OFFCURVE",
"545 66 OFFCURVE",
"580 219 CURVE SMOOTH",
"686 680 LINE",
"461 680 LINE",
"357 229 LINE SMOOTH",
"345 177 OFFCURVE",
"316 153 OFFCURVE",
"278 153 CURVE SMOOTH",
"245 153 OFFCURVE",
"219 172 OFFCURVE",
"218 228 CURVE",
"0 228 LINE",
"-3 66 OFFCURVE",
"90 -15 OFFCURVE",
"263 -15 CURVE SMOOTH"
);
}
);
width = 626;
},
{
anchors = (
{
name = bottom;
position = "{174, 0}";
},
{
name = top;
position = "{458, 680}";
}
);
layerId = "C8A0F6C7-7618-41E1-A0A3-A261758331D0";
leftMetricsKey = "=35";
paths = (
{
closed = 1;
nodes = (
"268 -12 OFFCURVE",
"335 40 OFFCURVE",
"364 167 CURVE SMOOTH",
"482 680 LINE",
"432 680 LINE",
"316 176 LINE SMOOTH",
"293 78 OFFCURVE",
"245 29 OFFCURVE",
"177 29 CURVE SMOOTH",
"109 29 OFFCURVE",
"72 80 OFFCURVE",
"74 187 CURVE",
"26 187 LINE",
"17 70 OFFCURVE",
"68 -12 OFFCURVE",
"174 -12 CURVE SMOOTH"
);
}
);
width = 442;
},
{
anchors = (
{
name = bottom;
position = "{214, 0}";
},
{
name = top;
position = "{522, 680}";
}
);
layerId = "3FCD75D8-58B8-44DB-99C9-FF8F25B81242";
leftMetricsKey = "=35";
paths = (
{
closed = 1;
nodes = (
"335 -12 OFFCURVE",
"423 63 OFFCURVE",
"452 191 CURVE SMOOTH",
"563 680 LINE",
"477 680 LINE",
"365 193 LINE SMOOTH",
"346 112 OFFCURVE",
"293 64 OFFCURVE",
"222 64 CURVE SMOOTH",
"166 64 OFFCURVE",
"109 94 OFFCURVE",
"112 198 CURVE",
"28 198 LINE",
"19 73 OFFCURVE",
"89 -12 OFFCURVE",
"214 -12 CURVE SMOOTH"
);
}
);
width = 525;
}
);
leftKerningGroup = J;
rightKerningGroup = J;
rightMetricsKey = U;
unicode = 004A;
},
{
color = 4;
glyphname = Jstroke;
lastChange = "2019-02-05 21:48:03 +0000";
layers = (
{
components = (
{
name = J;
}
);
layerId = UUID0;
paths = (
{
closed = 1;
nodes = (
"630 254 LINE",
"672 434 LINE",
"362 434 LINE",
"320 254 LINE"
);
}
);
width = 633;
},
{
components = (
{
name = J;
}
);
layerId = "C8A0F6C7-7618-41E1-A0A3-A261758331D0";
paths = (
{
closed = 1;
nodes = (
"485 329 LINE",
"495 370 LINE",
"277 370 LINE",
"267 329 LINE"
);
}
);
width = 465;
},
{
components = (
{
alignment = -1;
name = J;
}
);
layerId = "3FCD75D8-58B8-44DB-99C9-FF8F25B81242";
paths = (
{
closed = 1;
nodes = (
"563 313 LINE",
"579 384 LINE",
"326 384 LINE",
"310 313 LINE"
);
}
);
width = 553;
}
);
leftKerningGroup = J;
leftMetricsKey = J;
rightKerningGroup = J;
unicode = 0248;
},
{
color = 4;
glyphname = K;
lastChange = "2019-02-05 21:48:03 +0000";
layers = (
{
anchors = (
{
name = bottom;
position = "{294, 0}";
},
{
name = top;
position = "{438, 680}";
}
);
layerId = UUID0;
rightMetricsKey = "=-15";
paths = (
{
closed = 1;
nodes = (
"219 0 LINE",
"281 273 LINE",
"380 0 LINE",
"622 0 LINE",
"477 356 LINE",
"770 680 LINE",
"514 680 LINE",
"315 434 LINE",
"376 680 LINE",
"150 680 LINE",
"-6 0 LINE"
);
}
);
width = 664;
},
{
anchors = (
{
name = bottom;
position = "{259, 0}";
},
{
name = top;
position = "{395, 680}";
}
);
guideLines = (
{
angle = 136.5737;
position = "{292, 177}";
},
{
angle = 221.8478;
position = "{448, 513}";
}
);
layerId = "C8A0F6C7-7618-41E1-A0A3-A261758331D0";
rightMetricsKey = "=-8";
paths = (
{
closed = 1;
nodes = (
"98 0 LINE",
"176 335 LINE",
"451 0 LINE",
"514 0 LINE",
"221 353 LINE",
"645 680 LINE",
"576 680 LINE",
"185 375 LINE",
"255 680 LINE",
"205 680 LINE",
"48 0 LINE"
);
}
);
width = 558;
},
{
anchors = (
{
name = bottom;
position = "{283, 0}";
},
{
name = top;
position = "{421, 680}";
}
);
layerId = "3FCD75D8-58B8-44DB-99C9-FF8F25B81242";
rightMetricsKey = "=1";
paths = (
{
closed = 1;
nodes = (
"134 0 LINE",
"209 323 LINE",
"457 0 LINE",
"560 0 LINE",
"288 353 LINE",
"703 680 LINE",
"592 680 LINE",
"223 387 LINE",
"291 680 LINE",
"205 680 LINE",
"48 0 LINE"
);
}
);
width = 613;
}
);
leftKerningGroup = H;
leftMetricsKey = H;
rightKerningGroup = K;
unicode = 004B;
},
{
color = 4;
glyphname = Khook;
lastChange = "2019-02-05 23:29:05 +0000";
layers = (
{
layerId = UUID0;
paths = (
{
closed = 1;
nodes = (
"219 0 LINE",
"281 273 LINE",
"380 0 LINE",
"622 0 LINE",
"477 356 LINE",
"571 456 LINE SMOOTH",
"605 492 OFFCURVE",
"641 509 OFFCURVE",
"684 509 CURVE SMOOTH",
"700 509 OFFCURVE",
"714 507 OFFCURVE",
"726 504 CURVE",
"768 687 LINE",
"750 692 OFFCURVE",
"726 695 OFFCURVE",
"698 695 CURVE SMOOTH",
"591 695 OFFCURVE",
"509 656 OFFCURVE",
"436 572 CURVE SMOOTH",
"315 434 LINE",
"376 680 LINE",
"150 680 LINE",
"-6 0 LINE"
);
}
);
width = 664;
},
{
layerId = "C8A0F6C7-7618-41E1-A0A3-A261758331D0";
paths = (
{
closed = 1;
nodes = (
"98 0 LINE",
"176 335 LINE",
"451 0 LINE",
"514 0 LINE",
"221 353 LINE",
"531 595 LINE SMOOTH",
"573 628 OFFCURVE",
"602 638 OFFCURVE",
"631 638 CURVE SMOOTH",
"640 638 OFFCURVE",
"649 637 OFFCURVE",
"658 636 CURVE",
"669 684 LINE",
"658 686 OFFCURVE",
"650 686 OFFCURVE",
"637 686 CURVE SMOOTH",
"597 686 OFFCURVE",
"557 669 OFFCURVE",
"524 643 CURVE SMOOTH",
"185 375 LINE",
"255 680 LINE",
"205 680 LINE",
"48 0 LINE"
);
}
);
width = 558;
},
{
layerId = "3FCD75D8-58B8-44DB-99C9-FF8F25B81242";
paths = (
{
closed = 1;
nodes = (
"134 0 LINE",
"209 323 LINE",
"457 0 LINE",
"560 0 LINE",
"288 353 LINE",
"577 581 LINE SMOOTH",
"603 602 OFFCURVE",
"630 613 OFFCURVE",
"648 613 CURVE SMOOTH",
"657 613 OFFCURVE",
"666 612 OFFCURVE",
"676 610 CURVE",
"694 686 LINE",
"686 688 OFFCURVE",
"675 689 OFFCURVE",
"658 689 CURVE SMOOTH",
"621 689 OFFCURVE",
"580 673 OFFCURVE",
"542 642 CURVE SMOOTH",
"223 387 LINE",
"291 680 LINE",
"205 680 LINE",
"48 0 LINE"
);
}
);
width = 613;
}
);
leftKerningGroup = H;
leftMetricsKey = H;
rightKerningGroup = K;
rightMetricsKey = K;
unicode = 0198;
},
{
color = 4;
glyphname = L;
lastChange = "2019-02-05 21:48:03 +0000";
layers = (
{
anchors = (
{
name = bottom;
position = "{211, 0}";
},
{
name = center;
position = "{479, 360}";
},
{
name = top;
position = "{262, 680}";
},
{
name = topright;
position = "{440, 490}";
}
);
layerId = UUID0;
rightMetricsKey = "=6";
paths = (
{
closed = 1;
nodes = (
"430 0 LINE",
"472 182 LINE",
"260 182 LINE",
"375 680 LINE",
"150 680 LINE",
"-7 0 LINE"
);
}
);
width = 493;
},
{
anchors = (
{
name = bottom;
position = "{202, 0}";
},
{
name = center;
position = "{300, 347}";
},
{
name = top;
position = "{230, 680}";
},
{
name = topright;
position = "{315, 448}";
}
);
layerId = "C8A0F6C7-7618-41E1-A0A3-A261758331D0";
rightMetricsKey = "=10";
paths = (
{
closed = 1;
nodes = (
"360 0 LINE",
"370 41 LINE",
"108 41 LINE",
"255 680 LINE",
"205 680 LINE",
"48 0 LINE"
);
}
);
width = 422;
},
{
anchors = (
{
name = bottom;
position = "{218, 0}";
},
{
name = center;
position = "{333, 350}";
},
{
name = top;
position = "{250, 680}";
},
{
name = topright;
position = "{356, 454}";
}
);
layerId = "3FCD75D8-58B8-44DB-99C9-FF8F25B81242";
rightMetricsKey = "=15";
paths = (
{
closed = 1;
nodes = (
"381 0 LINE",
"397 72 LINE",
"150 72 LINE",
"291 680 LINE",
"205 680 LINE",
"48 0 LINE"
);
}
);
width = 448;
}
);
leftKerningGroup = H;
leftMetricsKey = H;
rightKerningGroup = L;
unicode = 004C;
},
{
color = 4;
glyphname = Lbar;
lastChange = "2019-02-05 21:48:03 +0000";
layers = (
{
components = (
{
name = L;
transform = "{1, 0, 0, 1, 1, 0}";
}
);
layerId = UUID0;
paths = (
{
closed = 1;
nodes = (
"342 254 LINE",
"384 434 LINE",
"49 434 LINE",
"7 254 LINE"
);
}
);
width = 494;
},
{
components = (
{
name = L;
transform = "{1, 0, 0, 1, -4, 0}";
}
);
layerId = "C8A0F6C7-7618-41E1-A0A3-A261758331D0";
paths = (
{
closed = 1;
nodes = (
"341 329 LINE",
"351 370 LINE",
"45 370 LINE",
"35 329 LINE"
);
}
);
width = 418;
},
{
components = (
{
alignment = -1;
name = L;
transform = "{1, 0, 0, 1, -5, 0}";
}
);
layerId = "3FCD75D8-58B8-44DB-99C9-FF8F25B81242";
paths = (
{
closed = 1;
nodes = (
"355 313 LINE",
"371 384 LINE",
"47 384 LINE",
"31 313 LINE"
);
}
);
width = 443;
}
);
leftKerningGroup = H;
rightKerningGroup = L;
rightMetricsKey = L;
unicode = 023D;
},
{
color = 4;
glyphname = Lslash;
lastChange = "2019-02-05 23:29:23 +0000";
layers = (
{
components = (
{
name = L;
transform = "{1, 0, 0, 1, 19, 0}";
}
);
guideLines = (
{
angle = 99.7276;
position = "{25, 302}";
}
);
layerId = UUID0;
paths = (
{
closed = 1;
nodes = (
"393 316 LINE",
"403 500 LINE",
"38 389 LINE",
"28 205 LINE"
);
}
);
width = 512;
},
{
components = (
{
name = L;
transform = "{1, 0, 0, 1, 1, 0}";
}
);
layerId = "C8A0F6C7-7618-41E1-A0A3-A261758331D0";
paths = (
{
closed = 1;
nodes = (
"341 371 LINE",
"340 412 LINE",
"22 306 LINE",
"23 265 LINE"
);
}
);
width = 423;
},
{
components = (
{
alignment = -1;
name = L;
transform = "{1, 0, 0, 1, -2, 0}";
}
);
layerId = "3FCD75D8-58B8-44DB-99C9-FF8F25B81242";
paths = (
{
closed = 1;
nodes = (
"360 359 LINE",
"361 426 LINE",
"31 318 LINE",
"31 252 LINE"
);
}
);
width = 446;
}
);
leftKerningGroup = H;
rightKerningGroup = L;
rightMetricsKey = L;
unicode = 0141;
},
{
color = 4;
glyphname = M;
lastChange = "2019-02-05 21:48:03 +0000";
layers = (
{
anchors = (
{
name = bottom;
position = "{385, 0}";
},
{
name = top;
position = "{524, 680}";
}
);
layerId = UUID0;
paths = (
{
closed = 1;
nodes = (
"218 0 LINE",
"297 339 LINE",
"401 146 LINE",
"441 146 LINE",
"631 339 LINE",
"552 0 LINE",
"777 0 LINE",
"934 680 LINE",
"704 680 LINE",
"467 422 LINE",
"335 680 LINE",
"151 680 LINE",
"-7 0 LINE"
);
}
);
width = 884;
},
{
anchors = (
{
name = bottom;
position = "{404, 0}";
},
{
name = top;
position = "{523, 680}";
}
);
layerId = "C8A0F6C7-7618-41E1-A0A3-A261758331D0";
paths = (
{
closed = 1;
nodes = (
"97 0 LINE",
"236 599 LINE",
"431 237 LINE",
"447 237 LINE",
"814 599 LINE",
"675 0 LINE",
"724 0 LINE",
"882 680 LINE",
"834 680 LINE",
"452 303 LINE",
"246 680 LINE",
"205 680 LINE",
"48 0 LINE"
);
}
);
width = 877;
},
{
anchors = (
{
name = bottom;
position = "{396, 0}";
},
{
name = top;
position = "{539, 680}";
}
);
layerId = "3FCD75D8-58B8-44DB-99C9-FF8F25B81242";
paths = (
{
closed = 1;
nodes = (
"135 0 LINE",
"259 541 LINE",
"431 223 LINE",
"461 223 LINE",
"780 541 LINE",
"656 0 LINE",
"742 0 LINE",
"898 680 LINE",
"804 680 LINE",
"463 332 LINE",
"275 680 LINE",
"205 680 LINE",
"49 0 LINE"
);
}
);
width = 894;
}
);
leftKerningGroup = H;
leftMetricsKey = H;
rightKerningGroup = H;
rightMetricsKey = H;
unicode = 004D;
},
{
color = 4;
glyphname = Mturned;
lastChange = "2019-02-05 21:48:03 +0000";
layers = (
{
guideLines = (
{
position = "{775, 71}";
}
);
layerId = UUID0;
paths = (
{
closed = 1;
nodes = (
"354 -15 OFFCURVE",
"428 21 OFFCURVE",
"484 71 CURVE",
"517 17 OFFCURVE",
"582 -15 OFFCURVE",
"658 -15 CURVE SMOOTH",
"734 -15 OFFCURVE",
"805 15 OFFCURVE",
"849 65 CURVE",
"834 2 LINE",
"1059 2 LINE",
"1216 680 LINE",
"988 680 LINE",
"896 274 LINE SMOOTH",
"885 225 OFFCURVE",
"851 171 OFFCURVE",
"780 171 CURVE SMOOTH",
"724 171 OFFCURVE",
"697 204 OFFCURVE",
"697 257 CURVE SMOOTH",
"697 275 OFFCURVE",
"700 291 OFFCURVE",
"701 295 CURVE SMOOTH",
"790 680 LINE",
"564 680 LINE",
"472 274 LINE SMOOTH",
"461 225 OFFCURVE",
"427 171 OFFCURVE",
"356 171 CURVE SMOOTH",
"300 171 OFFCURVE",
"273 204 OFFCURVE",
"273 257 CURVE SMOOTH",
"273 275 OFFCURVE",
"276 291 OFFCURVE",
"277 295 CURVE SMOOTH",
"366 680 LINE",
"140 680 LINE",
"53 302 LINE SMOOTH",
"44 262 OFFCURVE",
"37 217 OFFCURVE",
"37 180 CURVE SMOOTH",
"37 58 OFFCURVE",
"112 -15 OFFCURVE",
"242 -15 CURVE SMOOTH"
);
}
);
width = 1166;
},
{
layerId = "C8A0F6C7-7618-41E1-A0A3-A261758331D0";
paths = (
{
closed = 1;
nodes = (
"418 -12 OFFCURVE",
"508 64 OFFCURVE",
"556 144 CURVE",
"577 59 OFFCURVE",
"649 -12 OFFCURVE",
"771 -12 CURVE SMOOTH",
"890 -12 OFFCURVE",
"954 55 OFFCURVE",
"991 108 CURVE",
"964 0 LINE",
"1016 0 LINE",
"1174 680 LINE",
"1123 680 LINE",
"1029 276 LINE SMOOTH",
"994 127 OFFCURVE",
"891 29 OFFCURVE",
"770 29 CURVE SMOOTH",
"666 29 OFFCURVE",
"597 101 OFFCURVE",
"597 207 CURVE SMOOTH",
"597 236 OFFCURVE",
"602 265 OFFCURVE",
"608 292 CURVE SMOOTH",
"697 680 LINE",
"646 680 LINE",
"541 227 LINE SMOOTH",
"515 116 OFFCURVE",
"416 29 OFFCURVE",
"291 29 CURVE SMOOTH",
"187 29 OFFCURVE",
"130 89 OFFCURVE",
"124 190 CURVE SMOOTH",
"122 222 OFFCURVE",
"126 257 OFFCURVE",
"132 283 CURVE SMOOTH",
"221 680 LINE",
"170 680 LINE",
"82 290 LINE SMOOTH",
"75 258 OFFCURVE",
"71 220 OFFCURVE",
"72 188 CURVE SMOOTH",
"76 72 OFFCURVE",
"151 -12 OFFCURVE",
"288 -12 CURVE SMOOTH"
);
}
);
width = 1169;
},
{
layerId = "3FCD75D8-58B8-44DB-99C9-FF8F25B81242";
paths = (
{
closed = 1;
nodes = (
"393 -12 OFFCURVE",
"489 35 OFFCURVE",
"551 131 CURVE",
"574 35 OFFCURVE",
"648 -12 OFFCURVE",
"756 -12 CURVE SMOOTH",
"866 -12 OFFCURVE",
"932 37 OFFCURVE",
"969 94 CURVE",
"946 0 LINE",
"1034 0 LINE",
"1189 680 LINE",
"1102 680 LINE",
"1011 285 LINE SMOOTH",
"980 153 OFFCURVE",
"891 61 OFFCURVE",
"768 61 CURVE SMOOTH",
"685 61 OFFCURVE",
"618 109 OFFCURVE",
"618 192 CURVE SMOOTH",
"618 206 OFFCURVE",
"620 232 OFFCURVE",
"627 262 CURVE SMOOTH",
"724 680 LINE",
"637 680 LINE",
"540 265 LINE SMOOTH",
"509 131 OFFCURVE",
"410 61 OFFCURVE",
"305 61 CURVE SMOOTH",
"214 61 OFFCURVE",
"156 113 OFFCURVE",
"156 206 CURVE SMOOTH",
"156 233 OFFCURVE",
"162 271 OFFCURVE",
"167 292 CURVE SMOOTH",
"257 680 LINE",
"170 680 LINE",
"82 301 LINE SMOOTH",
"75 271 OFFCURVE",
"70 230 OFFCURVE",
"70 198 CURVE SMOOTH",
"70 72 OFFCURVE",
"147 -12 OFFCURVE",
"288 -12 CURVE SMOOTH"
);
}
);
width = 1186;
}
);
leftKerningGroup = U;
leftMetricsKey = U;
rightKerningGroup = H;
rightMetricsKey = H;
unicode = 019C;
},
{
color = 4;
glyphname = N;
lastChange = "2019-02-05 21:48:03 +0000";
layers = (
{
anchors = (
{
name = bottom;
position = "{340, 0}";
},
{
name = bottomright;
position = "{218, 0}";
},
{
name = top;
position = "{474, 680}";
}
);
layerId = UUID0;
paths = (
{
closed = 1;
nodes = (
"218 0 LINE",
"298 343 LINE",
"522 0 LINE",
"687 0 LINE",
"844 680 LINE",
"619 680 LINE",
"541 339 LINE",
"317 680 LINE",
"151 680 LINE",
"-7 0 LINE"
);
}
);
width = 794;
},
{
anchors = (
{
name = bottom;
position = "{335, 0}";
},
{
name = bottomright;
position = "{98, 0}";
},
{
name = top;
position = "{481, 680}";
}
);
layerId = "C8A0F6C7-7618-41E1-A0A3-A261758331D0";
paths = (
{
closed = 1;
nodes = (
"98 0 LINE",
"235 590 LINE",
"593 0 LINE",
"625 0 LINE",
"779 680 LINE",
"729 680 LINE",
"595 91 LINE",
"236 680 LINE",
"205 680 LINE",
"48 0 LINE"
);
}
);
width = 777;
},
{
anchors = (
{
name = bottom;
position = "{344, 0}";
},
{
name = bottomright;
position = "{134, 0}";
},
{
name = top;
position = "{491, 680}";
}
);
layerId = "3FCD75D8-58B8-44DB-99C9-FF8F25B81242";
paths = (
{
closed = 1;
nodes = (
"134 0 LINE",
"257 533 LINE",
"581 0 LINE",
"639 0 LINE",
"796 680 LINE",
"710 680 LINE",
"587 149 LINE",
"264 680 LINE",
"205 680 LINE",
"48 0 LINE"
);
}
);
width = 791;
}
);
leftKerningGroup = H;
leftMetricsKey = H;
rightKerningGroup = H;
rightMetricsKey = H;
unicode = 004E;
},
{
color = 4;
glyphname = Eng;
lastChange = "2019-02-05 21:48:03 +0000";
layers = (
{
layerId = UUID0;
paths = (
{
closed = 1;
nodes = (
"218 0 LINE",
"298 343 LINE",
"478 68 LINE",
"465 12 LINE SMOOTH",
"455 -31 OFFCURVE",
"439 -45 OFFCURVE",
"407 -45 CURVE SMOOTH",
"388 -45 OFFCURVE",
"371 -41 OFFCURVE",
"371 -41 CURVE",
"327 -230 LINE",
"327 -230 OFFCURVE",
"361 -234 OFFCURVE",
"402 -234 CURVE SMOOTH",
"560 -234 OFFCURVE",
"646 -176 OFFCURVE",
"678 -38 CURVE SMOOTH",
"844 680 LINE",
"619 680 LINE",
"541 339 LINE",
"317 680 LINE",
"151 680 LINE",
"-7 0 LINE"
);
}
);
width = 794;
},
{
layerId = "C8A0F6C7-7618-41E1-A0A3-A261758331D0";
paths = (
{
closed = 1;
nodes = (
"98 0 LINE",
"235 590 LINE",
"581 20 LINE",
"559 -68 LINE SMOOTH",
"537 -155 OFFCURVE",
"507 -189 OFFCURVE",
"455 -189 CURVE SMOOTH",
"434 -189 OFFCURVE",
"411 -186 OFFCURVE",
"392 -180 CURVE",
"382 -224 LINE",
"400 -229 OFFCURVE",
"422 -231 OFFCURVE",
"447 -231 CURVE SMOOTH",
"538 -231 OFFCURVE",
"583 -188 OFFCURVE",
"610 -69 CURVE SMOOTH",
"779 680 LINE",
"729 680 LINE",
"595 91 LINE",
"236 680 LINE",
"205 680 LINE",
"48 0 LINE"
);
}
);
width = 778;
},
{
layerId = "3FCD75D8-58B8-44DB-99C9-FF8F25B81242";
paths = (
{
closed = 1;
nodes = (
"134 0 LINE",
"257 533 LINE",
"562 32 LINE",
"539 -63 LINE SMOOTH",
"522 -133 OFFCURVE",
"491 -161 OFFCURVE",
"443 -161 CURVE SMOOTH",
"427 -161 OFFCURVE",
"406 -158 OFFCURVE",
"389 -153 CURVE",
"372 -226 LINE",
"386 -229 OFFCURVE",
"410 -231 OFFCURVE",
"428 -231 CURVE SMOOTH",
"541 -231 OFFCURVE",
"600 -180 OFFCURVE",
"628 -53 CURVE SMOOTH",
"796 680 LINE",
"710 680 LINE",
"587 149 LINE",
"264 680 LINE",
"205 680 LINE",
"48 0 LINE"
);
}
);
width = 793;
}
);
leftKerningGroup = H;
leftMetricsKey = H;
rightKerningGroup = H;
rightMetricsKey = H;
unicode = 014A;
},
{
color = 4;
glyphname = Nhookleft;
lastChange = "2019-02-05 21:48:03 +0000";
layers = (
{
layerId = UUID0;
paths = (
{
closed = 1;
nodes = (
"91 -234 OFFCURVE",
"177 -176 OFFCURVE",
"209 -38 CURVE SMOOTH",
"298 343 LINE",
"522 0 LINE",
"687 0 LINE",
"844 680 LINE",
"619 680 LINE",
"541 339 LINE",
"317 680 LINE",
"151 680 LINE",
"-6 3 LINE SMOOTH",
"-16 -33 OFFCURVE",
"-32 -45 OFFCURVE",
"-62 -45 CURVE SMOOTH",
"-81 -45 OFFCURVE",
"-98 -41 OFFCURVE",
"-98 -41 CURVE",
"-142 -230 LINE",
"-142 -230 OFFCURVE",
"-108 -234 OFFCURVE",
"-67 -234 CURVE SMOOTH"
);
}
);
width = 794;
},
{
layerId = "C8A0F6C7-7618-41E1-A0A3-A261758331D0";
paths = (
{
closed = 1;
nodes = (
"12 -231 OFFCURVE",
"57 -188 OFFCURVE",
"84 -69 CURVE SMOOTH",
"237 590 LINE",
"595 0 LINE",
"627 0 LINE",
"781 680 LINE",
"731 680 LINE",
"597 91 LINE",
"238 680 LINE",
"207 680 LINE",
"33 -68 LINE SMOOTH",
"11 -155 OFFCURVE",
"-19 -189 OFFCURVE",
"-71 -189 CURVE SMOOTH",
"-92 -189 OFFCURVE",
"-115 -186 OFFCURVE",
"-134 -180 CURVE",
"-144 -224 LINE",
"-126 -229 OFFCURVE",
"-104 -231 OFFCURVE",
"-79 -231 CURVE SMOOTH"
);
}
);
width = 779;
},
{
layerId = "3FCD75D8-58B8-44DB-99C9-FF8F25B81242";
paths = (
{
closed = 1;
nodes = (
"36 -231 OFFCURVE",
"95 -180 OFFCURVE",
"123 -53 CURVE SMOOTH",
"258 533 LINE",
"582 0 LINE",
"640 0 LINE",
"797 680 LINE",
"711 680 LINE",
"588 149 LINE",
"265 680 LINE",
"206 680 LINE",
"34 -63 LINE SMOOTH",
"17 -133 OFFCURVE",
"-14 -161 OFFCURVE",
"-62 -161 CURVE SMOOTH",
"-78 -161 OFFCURVE",
"-99 -158 OFFCURVE",
"-116 -153 CURVE",
"-133 -226 LINE",
"-119 -229 OFFCURVE",
"-95 -231 OFFCURVE",
"-77 -231 CURVE SMOOTH"
);
}
);
width = 792;
}
);
leftKerningGroup = H;
leftMetricsKey = Fhook;
rightKerningGroup = H;
rightMetricsKey = H;
unicode = 019D;
},
{
color = 4;
glyphname = Nlongrightleg;
lastChange = "2019-02-05 21:48:03 +0000";
layers = (
{
layerId = UUID0;
paths = (
{
closed = 1;
nodes = (
"591 -220 LINE",
"729 381 LINE SMOOTH",
"739 424 OFFCURVE",
"746 464 OFFCURVE",
"746 500 CURVE SMOOTH",
"746 607 OFFCURVE",
"669 692 OFFCURVE",
"549 692 CURVE SMOOTH",
"464 692 OFFCURVE",
"401 659 OFFCURVE",
"369 621 CURVE",
"383 681 LINE",
"151 681 LINE",
"-6 0 LINE",
"220 0 LINE",
"314 407 LINE SMOOTH",
"327 462 OFFCURVE",
"368 510 OFFCURVE",
"427 510 CURVE SMOOTH",
"478 510 OFFCURVE",
"511 486 OFFCURVE",
"511 432 CURVE SMOOTH",
"511 416 OFFCURVE",
"509 406 OFFCURVE",
"507 397 CURVE SMOOTH",
"365 -220 LINE"
);
}
);
width = 748;
},
{
layerId = "C8A0F6C7-7618-41E1-A0A3-A261758331D0";
paths = (
{
closed = 1;
nodes = (
"524 -220 LINE",
"667 396 LINE SMOOTH",
"675 431 OFFCURVE",
"680 465 OFFCURVE",
"680 497 CURVE SMOOTH",
"680 607 OFFCURVE",
"618 698 OFFCURVE",
"472 698 CURVE SMOOTH",
"345 698 OFFCURVE",
"267 627 OFFCURVE",
"231 569 CURVE",
"257 680 LINE",
"205 680 LINE",
"48 0 LINE",
"99 0 LINE",
"193 405 LINE SMOOTH",
"226 545 OFFCURVE",
"331 657 OFFCURVE",
"467 657 CURVE SMOOTH",
"586 657 OFFCURVE",
"628 584 OFFCURVE",
"628 496 CURVE SMOOTH",
"628 467 OFFCURVE",
"624 435 OFFCURVE",
"617 403 CURVE SMOOTH",
"473 -220 LINE"
);
}
);
width = 727;
},
{
layerId = "3FCD75D8-58B8-44DB-99C9-FF8F25B81242";
paths = (
{
closed = 1;
nodes = (
"555 -221 LINE",
"696 390 LINE SMOOTH",
"703 420 OFFCURVE",
"706 448 OFFCURVE",
"706 476 CURVE SMOOTH",
"706 600 OFFCURVE",
"635 693 OFFCURVE",
"493 693 CURVE SMOOTH",
"401 693 OFFCURVE",
"317 654 OFFCURVE",
"272 587 CURVE",
"293 680 LINE",
"205 680 LINE",
"49 0 LINE",
"137 0 LINE",
"231 412 LINE SMOOTH",
"253 509 OFFCURVE",
"345 620 OFFCURVE",
"480 620 CURVE SMOOTH",
"579 620 OFFCURVE",
"619 554 OFFCURVE",
"619 471 CURVE SMOOTH",
"619 447 OFFCURVE",
"616 422 OFFCURVE",
"610 397 CURVE SMOOTH",
"468 -221 LINE"
);
}
);
width = 758;
}
);
leftKerningGroup = H;
leftMetricsKey = H;
rightKerningGroup = H;
rightMetricsKey = H;
unicode = 0220;
},
{
color = 4;
glyphname = O;
lastChange = "2019-02-05 23:32:24 +0000";
layers = (
{
anchors = (
{
name = bottom;
position = "{360, 0}";
},
{
name = center;
position = "{399, 340}";
},
{
name = ogonek;
position = "{445, 0}";
},
{
name = top;
position = "{439, 680}";
},
{
name = topleft;
position = "{19, 680}";
},
{
name = topright;
position = "{629, 680}";
}
);
layerId = UUID0;
leftMetricsKey = "=15";
rightMetricsKey = "=15";
paths = (
{
closed = 1;
nodes = (
"587 -12 OFFCURVE",
"760 146 OFFCURVE",
"760 375 CURVE SMOOTH",
"760 566 OFFCURVE",
"629 692 OFFCURVE",
"439 692 CURVE SMOOTH",
"212 692 OFFCURVE",
"40 534 OFFCURVE",
"40 305 CURVE SMOOTH",
"40 114 OFFCURVE",
"170 -12 OFFCURVE",
"360 -12 CURVE SMOOTH"
);
},
{
closed = 1;
nodes = (
"305 196 OFFCURVE",
"259 257 OFFCURVE",
"259 329 CURVE SMOOTH",
"259 417 OFFCURVE",
"330 485 OFFCURVE",
"415 485 CURVE SMOOTH",
"496 485 OFFCURVE",
"541 424 OFFCURVE",
"541 351 CURVE SMOOTH",
"541 264 OFFCURVE",
"470 196 OFFCURVE",
"385 196 CURVE SMOOTH"
);
}
);
width = 756;
},
{
anchors = (
{
name = bottom;
position = "{399, 0}";
},
{
name = center;
position = "{439, 340}";
},
{
name = ogonek;
position = "{458, 0}";
},
{
name = top;
position = "{463, 680}";
},
{
name = topleft;
position = "{57, 680}";
},
{
name = topright;
position = "{562, 680}";
}
);
layerId = "C8A0F6C7-7618-41E1-A0A3-A261758331D0";
leftMetricsKey = "=45";
rightMetricsKey = "=45";
paths = (
{
closed = 1;
nodes = (
"627 -12 OFFCURVE",
"785 154 OFFCURVE",
"785 371 CURVE SMOOTH",
"785 557 OFFCURVE",
"652 693 OFFCURVE",
"459 693 CURVE SMOOTH",
"234 693 OFFCURVE",
"76 527 OFFCURVE",
"76 310 CURVE SMOOTH",
"76 125 OFFCURVE",
"209 -12 OFFCURVE",
"402 -12 CURVE SMOOTH"
);
},
{
closed = 1;
nodes = (
"240 29 OFFCURVE",
"130 147 OFFCURVE",
"130 315 CURVE SMOOTH",
"130 506 OFFCURVE",
"271 652 OFFCURVE",
"455 652 CURVE SMOOTH",
"621 652 OFFCURVE",
"731 534 OFFCURVE",
"731 366 CURVE SMOOTH",
"731 175 OFFCURVE",
"590 29 OFFCURVE",
"406 29 CURVE SMOOTH"
);
}
);
width = 807;
},
{
anchors = (
{
name = bottom;
position = "{393, 0}";
},
{
name = center;
position = "{423, 340}";
},
{
name = ogonek;
position = "{462, 0}";
},
{
name = top;
position = "{467, 680}";
},
{
name = topleft;
position = "{41, 680}";
},
{
name = topright;
position = "{551, 680}";
}
);
layerId = "3FCD75D8-58B8-44DB-99C9-FF8F25B81242";
leftMetricsKey = "=42";
rightMetricsKey = "=42";
paths = (
{
closed = 1;
nodes = (
"613 -12 OFFCURVE",
"778 153 OFFCURVE",
"778 367 CURVE SMOOTH",
"778 552 OFFCURVE",
"648 692 OFFCURVE",
"457 692 CURVE SMOOTH",
"235 692 OFFCURVE",
"73 529 OFFCURVE",
"73 313 CURVE SMOOTH",
"73 130 OFFCURVE",
"202 -12 OFFCURVE",
"394 -12 CURVE SMOOTH"
);
},
{
closed = 1;
nodes = (
"261 61 OFFCURVE",
"158 164 OFFCURVE",
"158 314 CURVE SMOOTH",
"158 495 OFFCURVE",
"289 619 OFFCURVE",
"451 619 CURVE SMOOTH",
"589 619 OFFCURVE",
"693 516 OFFCURVE",
"693 362 CURVE SMOOTH",
"693 184 OFFCURVE",
"562 61 OFFCURVE",
"400 61 CURVE SMOOTH"
);
}
);
width = 798;
}
);
leftKerningGroup = O;
rightKerningGroup = O;
unicode = 004F;
},
{
color = 4;
glyphname = OU;
lastChange = "2019-02-05 21:48:03 +0000";
layers = (
{
guideLines = (
{
position = "{302, 729}";
}
);
layerId = UUID0;
paths = (
{
closed = 1;
nodes = (
"563 -12 OFFCURVE",
"721 117 OFFCURVE",
"721 311 CURVE SMOOTH",
"721 386 OFFCURVE",
"685 456 OFFCURVE",
"640 488 CURVE",
"702 512 OFFCURVE",
"746 565 OFFCURVE",
"756 642 CURVE SMOOTH",
"759 666 OFFCURVE",
"758 680 OFFCURVE",
"758 680 CURVE",
"545 680 LINE",
"545 680 OFFCURVE",
"546 670 OFFCURVE",
"542 645 CURVE SMOOTH",
"535 607 OFFCURVE",
"496 562 OFFCURVE",
"417 562 CURVE SMOOTH",
"349 562 OFFCURVE",
"322 596 OFFCURVE",
"322 636 CURVE SMOOTH",
"322 656 OFFCURVE",
"323 663 OFFCURVE",
"328 680 CURVE",
"118 680 LINE",
"112 657 OFFCURVE",
"111 648 OFFCURVE",
"111 622 CURVE SMOOTH",
"111 564 OFFCURVE",
"139 515 OFFCURVE",
"168 488 CURVE",
"77 437 OFFCURVE",
"23 360 OFFCURVE",
"23 236 CURVE SMOOTH",
"23 87 OFFCURVE",
"144 -12 OFFCURVE",
"326 -12 CURVE SMOOTH"
);
},
{
closed = 1;
nodes = (
"283 187 OFFCURVE",
"240 226 OFFCURVE",
"240 284 CURVE SMOOTH",
"240 350 OFFCURVE",
"304 403 OFFCURVE",
"388 403 CURVE SMOOTH",
"461 403 OFFCURVE",
"504 364 OFFCURVE",
"504 306 CURVE SMOOTH",
"504 240 OFFCURVE",
"440 187 OFFCURVE",
"356 187 CURVE SMOOTH"
);
}
);
width = 730;
},
{
layerId = "C8A0F6C7-7618-41E1-A0A3-A261758331D0";
paths = (
{
closed = 1;
nodes = (
"521 -12 OFFCURVE",
"657 88 OFFCURVE",
"657 243 CURVE SMOOTH",
"657 361 OFFCURVE",
"578 429 OFFCURVE",
"505 453 CURVE",
"580 479 OFFCURVE",
"667 529 OFFCURVE",
"684 633 CURVE SMOOTH",
"689 661 OFFCURVE",
"687 680 OFFCURVE",
"687 680 CURVE",
"632 680 LINE",
"632 680 OFFCURVE",
"634 657 OFFCURVE",
"629 633 CURVE SMOOTH",
"611 543 OFFCURVE",
"507 472 OFFCURVE",
"394 472 CURVE SMOOTH",
"298 472 OFFCURVE",
"215 524 OFFCURVE",
"215 622 CURVE SMOOTH",
"215 637 OFFCURVE",
"217 655 OFFCURVE",
"226 680 CURVE",
"174 680 LINE",
"164 655 OFFCURVE",
"161 633 OFFCURVE",
"161 614 CURVE SMOOTH",
"161 528 OFFCURVE",
"222 478 OFFCURVE",
"274 456 CURVE",
"166 436 OFFCURVE",
"49 353 OFFCURVE",
"49 212 CURVE SMOOTH",
"49 78 OFFCURVE",
"155 -12 OFFCURVE",
"333 -12 CURVE SMOOTH"
);
},
{
closed = 1;
nodes = (
"191 29 OFFCURVE",
"103 104 OFFCURVE",
"103 215 CURVE SMOOTH",
"103 353 OFFCURVE",
"237 430 OFFCURVE",
"380 430 CURVE SMOOTH",
"523 430 OFFCURVE",
"603 352 OFFCURVE",
"603 242 CURVE SMOOTH",
"603 116 OFFCURVE",
"498 29 OFFCURVE",
"339 29 CURVE SMOOTH"
);
}
);
width = 704;
},
{
layerId = "3FCD75D8-58B8-44DB-99C9-FF8F25B81242";
paths = (
{
closed = 1;
nodes = (
"515 -12 OFFCURVE",
"656 96 OFFCURVE",
"656 256 CURVE SMOOTH",
"656 366 OFFCURVE",
"589 433 OFFCURVE",
"519 456 CURVE",
"586 467 OFFCURVE",
"679 532 OFFCURVE",
"692 631 CURVE SMOOTH",
"695 654 OFFCURVE",
"693 680 OFFCURVE",
"693 680 CURVE",
"606 680 LINE",
"606 680 OFFCURVE",
"608 651 OFFCURVE",
"605 631 CURVE SMOOTH",
"595 561 OFFCURVE",
"505 492 OFFCURVE",
"395 492 CURVE SMOOTH",
"300 492 OFFCURVE",
"237 543 OFFCURVE",
"237 633 CURVE SMOOTH",
"237 651 OFFCURVE",
"239 652 OFFCURVE",
"244 680 CURVE",
"158 680 LINE",
"153 652 OFFCURVE",
"150 648 OFFCURVE",
"150 624 CURVE SMOOTH",
"150 529 OFFCURVE",
"213 478 OFFCURVE",
"257 460 CURVE",
"142 435 OFFCURVE",
"45 343 OFFCURVE",
"45 213 CURVE SMOOTH",
"45 76 OFFCURVE",
"152 -12 OFFCURVE",
"324 -12 CURVE SMOOTH"
);
},
{
closed = 1;
nodes = (
"211 61 OFFCURVE",
"132 119 OFFCURVE",
"132 224 CURVE SMOOTH",
"132 347 OFFCURVE",
"239 419 OFFCURVE",
"374 419 CURVE SMOOTH",
"507 419 OFFCURVE",
"569 350 OFFCURVE",
"569 256 CURVE SMOOTH",
"569 139 OFFCURVE",
"473 61 OFFCURVE",
"332 61 CURVE SMOOTH"
);
}
);
width = 698;
}
);
leftKerningGroup = OU;
leftMetricsKey = O;
rightKerningGroup = OU;
rightMetricsKey = "=|";
unicode = 0222;
},
{
color = 4;
glyphname = Ocenteredtilde;
lastChange = "2019-02-05 21:48:03 +0000";
layers = (
{
components = (
{
name = O;
}
);
layerId = UUID0;
paths = (
{
closed = 1;
nodes = (
"645 270 LINE",
"645 420 LINE",
"213 420 LINE",
"213 270 LINE"
);
}
);
width = 756;
},
{
components = (
{
name = O;
transform = "{1, 0, 0, 1, 2, 0}";
}
);
layerId = "C8A0F6C7-7618-41E1-A0A3-A261758331D0";
paths = (
{
closed = 1;
nodes = (
"731 329 LINE",
"731 370 LINE",
"79 370 LINE",
"79 329 LINE"
);
}
);
width = 809;
},
{
components = (
{
name = O;
}
);
layerId = "3FCD75D8-58B8-44DB-99C9-FF8F25B81242";
paths = (
{
closed = 1;
nodes = (
"713 313 LINE",
"713 384 LINE",
"105 384 LINE",
"105 313 LINE"
);
}
);
width = 798;
}
);
leftKerningGroup = O;
leftMetricsKey = O;
rightKerningGroup = O;
rightMetricsKey = O;
unicode = 019F;
},
{
color = 4;
glyphname = Ohorn;
lastChange = "2019-02-05 21:48:03 +0000";
layers = (
{
components = (
{
name = O;
}
);
layerId = UUID0;
paths = (
{
closed = 1;
nodes = (
"753 506 OFFCURVE",
"860 562 OFFCURVE",
"887 833 CURVE",
"690 833 LINE",
"668 694 OFFCURVE",
"637 676 OFFCURVE",
"607 676 CURVE SMOOTH",
"567 676 OFFCURVE",
"532 689 OFFCURVE",
"460 692 CURVE",
"424 521 LINE",
"488 506 OFFCURVE",
"542 506 OFFCURVE",
"586 506 CURVE SMOOTH"
);
}
);
width = 774;
},
{
components = (
{
name = O;
}
);
layerId = "C8A0F6C7-7618-41E1-A0A3-A261758331D0";
paths = (
{
closed = 1;
nodes = (
"690 639 OFFCURVE",
"741 696 OFFCURVE",
"757 838 CURVE",
"708 838 LINE",
"697 726 OFFCURVE",
"650 681 OFFCURVE",
"582 681 CURVE SMOOTH",
"522 681 OFFCURVE",
"497 693 OFFCURVE",
"449 693 CURVE",
"442 659 LINE",
"530 659 OFFCURVE",
"539 639 OFFCURVE",
"583 639 CURVE SMOOTH"
);
}
);
width = 807;
},
{
components = (
{
alignment = -1;
name = O;
}
);
layerId = "3FCD75D8-58B8-44DB-99C9-FF8F25B81242";
paths = (
{
closed = 1;
nodes = (
"715 613 OFFCURVE",
"768 682 OFFCURVE",
"785 836 CURVE",
"707 836 LINE",
"694 728 OFFCURVE",
"660 679 OFFCURVE",
"603 679 CURVE SMOOTH",
"551 679 OFFCURVE",
"512 691 OFFCURVE",
"466 691 CURVE",
"452 627 LINE",
"515 627 OFFCURVE",
"551 613 OFFCURVE",
"611 613 CURVE SMOOTH"
);
}
);
width = 798;
}
);
leftKerningGroup = O;
leftMetricsKey = O;
rightKerningGroup = O;
rightMetricsKey = O;
unicode = 01A0;
},
{
color = 4;
glyphname = Oi;
lastChange = "2019-02-05 21:48:03 +0000";
layers = (
{
layerId = UUID0;
paths = (
{
closed = 1;
nodes = (
"980 -223 LINE",
"1190 685 LINE",
"1025 685 LINE",
"705 646 LINE",
"646 676 OFFCURVE",
"567 692 OFFCURVE",
"480 692 CURVE SMOOTH",
"197 692 OFFCURVE",
"40 523 OFFCURVE",
"40 306 CURVE SMOOTH",
"40 114 OFFCURVE",
"162 -12 OFFCURVE",
"362 -12 CURVE SMOOTH",
"544 -12 OFFCURVE",
"695 92 OFFCURVE",
"734 268 CURVE SMOOTH",
"790 520 LINE",
"719 455 LINE",
"974 485 LINE",
"931 538 LINE",
"755 -223 LINE"
);
},
{
closed = 1;
nodes = (
"307 196 OFFCURVE",
"259 249 OFFCURVE",
"259 327 CURVE SMOOTH",
"259 418 OFFCURVE",
"325 483 OFFCURVE",
"434 483 CURVE SMOOTH",
"477 483 OFFCURVE",
"524 477 OFFCURVE",
"554 466 CURVE",
"520 313 LINE SMOOTH",
"504 239 OFFCURVE",
"444 196 OFFCURVE",
"379 196 CURVE SMOOTH"
);
}
);
width = 1138;
},
{
layerId = "C8A0F6C7-7618-41E1-A0A3-A261758331D0";
paths = (
{
closed = 1;
nodes = (
"868 -220 LINE",
"1077 685 LINE",
"1047 685 LINE",
"802 643 LINE",
"692 676 OFFCURVE",
"600 693 OFFCURVE",
"503 693 CURVE SMOOTH",
"223 693 OFFCURVE",
"76 527 OFFCURVE",
"76 308 CURVE SMOOTH",
"76 124 OFFCURVE",
"181 -12 OFFCURVE",
"386 -12 CURVE SMOOTH",
"576 -12 OFFCURVE",
"700 89 OFFCURVE",
"755 325 CURVE SMOOTH",
"825 627 LINE",
"796 601 LINE",
"1039 643 LINE",
"1021 661 LINE",
"818 -220 LINE"
);
},
{
closed = 1;
nodes = (
"216 29 OFFCURVE",
"130 153 OFFCURVE",
"130 310 CURVE SMOOTH",
"130 506 OFFCURVE",
"263 652 OFFCURVE",
"500 652 CURVE SMOOTH",
"579 652 OFFCURVE",
"676 636 OFFCURVE",
"769 604 CURVE",
"705 327 LINE SMOOTH",
"660 131 OFFCURVE",
"542 29 OFFCURVE",
"387 29 CURVE SMOOTH"
);
}
);
width = 1071;
},
{
layerId = "3FCD75D8-58B8-44DB-99C9-FF8F25B81242";
paths = (
{
closed = 1;
nodes = (
"917 -220 LINE",
"1126 685 LINE",
"1059 685 LINE",
"810 643 LINE",
"711 675 OFFCURVE",
"621 692 OFFCURVE",
"508 692 CURVE SMOOTH",
"242 692 OFFCURVE",
"72 539 OFFCURVE",
"72 309 CURVE SMOOTH",
"72 118 OFFCURVE",
"192 -12 OFFCURVE",
"398 -12 CURVE SMOOTH",
"585 -12 OFFCURVE",
"725 96 OFFCURVE",
"773 303 CURVE SMOOTH",
"845 614 LINE",
"796 567 LINE",
"1061 611 LINE",
"1031 646 LINE",
"831 -220 LINE"
);
},
{
closed = 1;
nodes = (
"247 61 OFFCURVE",
"158 162 OFFCURVE",
"158 313 CURVE SMOOTH",
"158 497 OFFCURVE",
"292 619 OFFCURVE",
"494 619 CURVE SMOOTH",
"590 619 OFFCURVE",
"692 601 OFFCURVE",
"750 576 CURVE",
"691 319 LINE SMOOTH",
"652 149 OFFCURVE",
"543 61 OFFCURVE",
"400 61 CURVE SMOOTH"
);
}
);
width = 1120;
}
);
leftKerningGroup = O;
leftMetricsKey = O;
rightKerningGroup = H;
rightMetricsKey = H;
unicode = 01A2;
},
{
color = 4;
glyphname = Oopen;
lastChange = "2019-02-05 21:48:03 +0000";
layers = (
{
guideLines = (
{
position = "{48, 495}";
},
{
position = "{48, 188}";
}
);
layerId = "C8A0F6C7-7618-41E1-A0A3-A261758331D0";
paths = (
{
closed = 1;
nodes = (
"612 -12 OFFCURVE",
"766 154 OFFCURVE",
"766 371 CURVE SMOOTH",
"766 557 OFFCURVE",
"637 693 OFFCURVE",
"444 693 CURVE SMOOTH",
"290 693 OFFCURVE",
"168 615 OFFCURVE",
"108 495 CURVE",
"163 495 LINE",
"219 591 OFFCURVE",
"321 652 OFFCURVE",
"440 652 CURVE SMOOTH",
"606 652 OFFCURVE",
"716 534 OFFCURVE",
"716 366 CURVE SMOOTH",
"716 175 OFFCURVE",
"575 29 OFFCURVE",
"391 29 CURVE SMOOTH",
"271 29 OFFCURVE",
"180 91 OFFCURVE",
"139 188 CURVE",
"86 188 LINE",
"129 68 OFFCURVE",
"239 -12 OFFCURVE",
"387 -12 CURVE SMOOTH"
);
}
);
width = 789;
},
{
layerId = "3FCD75D8-58B8-44DB-99C9-FF8F25B81242";
paths = (
{
closed = 1;
nodes = (
"599 -12 OFFCURVE",
"759 150 OFFCURVE",
"759 364 CURVE SMOOTH",
"759 554 OFFCURVE",
"632 692 OFFCURVE",
"438 692 CURVE SMOOTH",
"287 692 OFFCURVE",
"159 609 OFFCURVE",
"99 484 CURVE",
"192 484 LINE",
"244 568 OFFCURVE",
"334 619 OFFCURVE",
"433 619 CURVE SMOOTH",
"572 619 OFFCURVE",
"674 518 OFFCURVE",
"674 358 CURVE SMOOTH",
"674 184 OFFCURVE",
"552 61 OFFCURVE",
"390 61 CURVE SMOOTH",
"277 61 OFFCURVE",
"196 120 OFFCURVE",
"162 198 CURVE",
"71 198 LINE",
"112 74 OFFCURVE",
"227 -12 OFFCURVE",
"384 -12 CURVE SMOOTH"
);
}
);
width = 780;
},
{
layerId = UUID0;
paths = (
{
closed = 1;
nodes = (
"584 -12 OFFCURVE",
"761 146 OFFCURVE",
"761 373 CURVE SMOOTH",
"761 566 OFFCURVE",
"642 692 OFFCURVE",
"436 692 CURVE SMOOTH",
"253 692 OFFCURVE",
"102 583 OFFCURVE",
"56 422 CURVE",
"290 422 LINE",
"318 461 OFFCURVE",
"364 485 OFFCURVE",
"415 485 CURVE SMOOTH",
"496 485 OFFCURVE",
"541 424 OFFCURVE",
"541 351 CURVE SMOOTH",
"541 264 OFFCURVE",
"470 196 OFFCURVE",
"385 196 CURVE SMOOTH",
"330 196 OFFCURVE",
"290 225 OFFCURVE",
"272 267 CURVE",
"42 267 LINE",
"59 96 OFFCURVE",
"182 -12 OFFCURVE",
"364 -12 CURVE SMOOTH"
);
}
);
width = 757;
}
);
leftKerningGroup = O;
leftMetricsKey = "=|C";
rightKerningGroup = O;
rightMetricsKey = O;
unicode = 0186;
},
{
color = 4;
glyphname = Oslash;
lastChange = "2019-02-05 21:48:03 +0000";
layers = (
{
anchors = (
{
name = bottom;
position = "{362, 0}";
},
{
name = top;
position = "{429, 680}";
}
);
layerId = UUID0;
paths = (
{
closed = 1;
nodes = (
"780 656 LINE",
"652 757 LINE",
"19 24 LINE",
"147 -77 LINE"
);
},
{
closed = 1;
nodes = (
"587 -12 OFFCURVE",
"760 146 OFFCURVE",
"760 375 CURVE SMOOTH",
"760 566 OFFCURVE",
"629 692 OFFCURVE",
"439 692 CURVE SMOOTH",
"212 692 OFFCURVE",
"40 534 OFFCURVE",
"40 305 CURVE SMOOTH",
"40 114 OFFCURVE",
"170 -12 OFFCURVE",
"360 -12 CURVE SMOOTH"
);
},
{
closed = 1;
nodes = (
"297 184 OFFCURVE",
"247 250 OFFCURVE",
"247 328 CURVE SMOOTH",
"247 423 OFFCURVE",
"324 497 OFFCURVE",
"416 497 CURVE SMOOTH",
"504 497 OFFCURVE",
"553 431 OFFCURVE",
"553 352 CURVE SMOOTH",
"553 258 OFFCURVE",
"476 184 OFFCURVE",
"384 184 CURVE SMOOTH"
);
}
);
width = 756;
},
{
anchors = (
{
name = bottom;
position = "{397, 0}";
},
{
name = top;
position = "{457, 680}";
}
);
layerId = "C8A0F6C7-7618-41E1-A0A3-A261758331D0";
paths = (
{
closed = 1;
nodes = (
"774 700 LINE",
"739 727 LINE",
"74 -18 LINE",
"109 -45 LINE"
);
},
{
closed = 1;
nodes = (
"623 -12 OFFCURVE",
"777 154 OFFCURVE",
"777 371 CURVE SMOOTH",
"777 557 OFFCURVE",
"648 693 OFFCURVE",
"455 693 CURVE SMOOTH",
"230 693 OFFCURVE",
"76 527 OFFCURVE",
"76 310 CURVE SMOOTH",
"76 125 OFFCURVE",
"205 -12 OFFCURVE",
"398 -12 CURVE SMOOTH"
);
},
{
closed = 1;
nodes = (
"236 29 OFFCURVE",
"126 147 OFFCURVE",
"126 315 CURVE SMOOTH",
"126 506 OFFCURVE",
"267 652 OFFCURVE",
"451 652 CURVE SMOOTH",
"617 652 OFFCURVE",
"727 534 OFFCURVE",
"727 366 CURVE SMOOTH",
"727 175 OFFCURVE",
"586 29 OFFCURVE",
"402 29 CURVE SMOOTH"
);
}
);
width = 800;
},
{
anchors = (
{
name = bottom;
position = "{392, 0}";
},
{
name = top;
position = "{452, 680}";
}
);
guideLines = (
{
angle = 144.3721;
position = "{137, -25}";
}
);
layerId = "3FCD75D8-58B8-44DB-99C9-FF8F25B81242";
paths = (
{
closed = 1;
nodes = (
"778 684 LINE",
"717 727 LINE",
"72 -3 LINE",
"133 -46 LINE"
);
},
{
closed = 1;
nodes = (
"613 -12 OFFCURVE",
"778 153 OFFCURVE",
"778 367 CURVE SMOOTH",
"778 552 OFFCURVE",
"648 692 OFFCURVE",
"457 692 CURVE SMOOTH",
"235 692 OFFCURVE",
"73 529 OFFCURVE",
"73 313 CURVE SMOOTH",
"73 130 OFFCURVE",
"202 -12 OFFCURVE",
"394 -12 CURVE SMOOTH"
);
},
{
closed = 1;
nodes = (
"261 61 OFFCURVE",
"158 164 OFFCURVE",
"158 314 CURVE SMOOTH",
"158 495 OFFCURVE",
"289 619 OFFCURVE",
"451 619 CURVE SMOOTH",
"589 619 OFFCURVE",
"693 516 OFFCURVE",
"693 362 CURVE SMOOTH",
"693 184 OFFCURVE",
"562 61 OFFCURVE",
"400 61 CURVE SMOOTH"
);
}
);
width = 798;
}
);
leftKerningGroup = O;
leftMetricsKey = O;
rightKerningGroup = O;
rightMetricsKey = O;
unicode = 00D8;
},
{
color = 4;
glyphname = OE;
lastChange = "2019-02-05 21:48:03 +0000";
layers = (
{
anchors = (
{
name = bottom;
position = "{474, 0}";
},
{
name = top;
position = "{605, 680}";
}
);
layerId = UUID0;
paths = (
{
closed = 1;
nodes = (
"373 -14 OFFCURVE",
"434 -4 OFFCURVE",
"473 28 CURVE",
"467 0 LINE",
"924 0 LINE",
"966 182 LINE",
"734 182 LINE",
"751 255 LINE",
"980 255 LINE",
"1022 435 LINE",
"793 435 LINE",
"807 498 LINE",
"1039 498 LINE",
"1081 680 LINE",
"625 680 LINE",
"617 646 LINE",
"568 676 OFFCURVE",
"507 692 OFFCURVE",
"439 692 CURVE SMOOTH",
"212 692 OFFCURVE",
"40 534 OFFCURVE",
"40 305 CURVE SMOOTH",
"40 114 OFFCURVE",
"165 -14 OFFCURVE",
"322 -14 CURVE SMOOTH"
);
},
{
closed = 1;
nodes = (
"305 196 OFFCURVE",
"259 257 OFFCURVE",
"259 329 CURVE SMOOTH",
"259 417 OFFCURVE",
"330 485 OFFCURVE",
"415 485 CURVE SMOOTH",
"496 485 OFFCURVE",
"541 424 OFFCURVE",
"541 351 CURVE SMOOTH",
"541 264 OFFCURVE",
"470 196 OFFCURVE",
"385 196 CURVE SMOOTH"
);
}
);
width = 1021;
},
{
anchors = (
{
name = bottom;
position = "{514, 0}";
},
{
name = top;
position = "{640, 680}";
}
);
layerId = "C8A0F6C7-7618-41E1-A0A3-A261758331D0";
paths = (
{
closed = 1;
nodes = (
"521 -12 OFFCURVE",
"617 35 OFFCURVE",
"682 110 CURVE",
"656 0 LINE",
"968 0 LINE",
"978 41 LINE",
"716 41 LINE",
"782 330 LINE",
"1044 330 LINE",
"1054 371 LINE",
"792 371 LINE",
"854 639 LINE",
"1116 639 LINE",
"1125 680 LINE",
"813 680 LINE",
"765 470 LINE",
"730 597 OFFCURVE",
"621 693 OFFCURVE",
"459 693 CURVE SMOOTH",
"234 693 OFFCURVE",
"76 527 OFFCURVE",
"76 310 CURVE SMOOTH",
"76 125 OFFCURVE",
"209 -12 OFFCURVE",
"402 -12 CURVE SMOOTH"
);
},
{
closed = 1;
nodes = (
"240 29 OFFCURVE",
"130 147 OFFCURVE",
"130 315 CURVE SMOOTH",
"130 506 OFFCURVE",
"271 652 OFFCURVE",
"455 652 CURVE SMOOTH",
"621 652 OFFCURVE",
"733 536 OFFCURVE",
"731 368 CURVE SMOOTH",
"729 177 OFFCURVE",
"590 29 OFFCURVE",
"406 29 CURVE SMOOTH"
);
}
);
width = 1067;
},
{
anchors = (
{
name = bottom;
position = "{588, 0}";
},
{
name = top;
position = "{672, 680}";
}
);
layerId = "3FCD75D8-58B8-44DB-99C9-FF8F25B81242";
paths = (
{
closed = 1;
nodes = (
"493 -12 OFFCURVE",
"582 22 OFFCURVE",
"640 93 CURVE",
"620 0 LINE",
"954 0 LINE",
"970 72 LINE",
"723 72 LINE",
"779 315 LINE",
"1026 315 LINE",
"1043 386 LINE",
"796 386 LINE",
"847 609 LINE",
"1094 609 LINE",
"1111 680 LINE",
"777 680 LINE",
"739 515 LINE",
"692 624 OFFCURVE",
"596 692 OFFCURVE",
"454 692 CURVE SMOOTH",
"231 692 OFFCURVE",
"72 524 OFFCURVE",
"72 306 CURVE SMOOTH",
"72 119 OFFCURVE",
"199 -12 OFFCURVE",
"390 -12 CURVE SMOOTH"
);
},
{
closed = 1;
nodes = (
"253 61 OFFCURVE",
"157 163 OFFCURVE",
"157 306 CURVE SMOOTH",
"157 492 OFFCURVE",
"286 619 OFFCURVE",
"449 619 CURVE SMOOTH",
"598 619 OFFCURVE",
"692 515 OFFCURVE",
"692 368 CURVE SMOOTH",
"692 200 OFFCURVE",
"557 61 OFFCURVE",
"397 61 CURVE SMOOTH"
);
}
);
width = 1051;
}
);
leftKerningGroup = O;
leftMetricsKey = O;
rightKerningGroup = E;
rightMetricsKey = E;
unicode = 0152;
},
{
color = 4;
glyphname = P;
lastChange = "2019-02-05 21:48:03 +0000";
layers = (
{
anchors = (
{
name = bottom;
position = "{276, 0}";
},
{
name = top;
position = "{384, 680}";
}
);
layerId = UUID0;
rightMetricsKey = "=8";
paths = (
{
closed = 1;
nodes = (
"219 0 LINE",
"264 196 LINE",
"329 196 LINE SMOOTH",
"515 196 OFFCURVE",
"642 321 OFFCURVE",
"642 472 CURVE SMOOTH",
"642 603 OFFCURVE",
"552 680 OFFCURVE",
"412 680 CURVE SMOOTH",
"150 680 LINE",
"-6 0 LINE"
);
},
{
closed = 1;
nodes = (
"333 498 LINE",
"373 498 LINE SMOOTH",
"408 498 OFFCURVE",
"428 480 OFFCURVE",
"428 447 CURVE SMOOTH",
"428 403 OFFCURVE",
"395 373 OFFCURVE",
"345 373 CURVE SMOOTH",
"305 373 LINE"
);
}
);
width = 605;
},
{
anchors = (
{
name = bottom;
position = "{213, 0}";
},
{
name = top;
position = "{342, 680}";
}
);
layerId = "C8A0F6C7-7618-41E1-A0A3-A261758331D0";
rightMetricsKey = "=28";
paths = (
{
closed = 1;
nodes = (
"99 0 LINE",
"168 299 LINE",
"291 299 LINE SMOOTH",
"445 299 OFFCURVE",
"547 386 OFFCURVE",
"547 516 CURVE SMOOTH",
"547 614 OFFCURVE",
"479 680 OFFCURVE",
"377 680 CURVE SMOOTH",
"205 680 LINE",
"49 0 LINE"
);
},
{
closed = 1;
nodes = (
"246 639 LINE",
"367 639 LINE SMOOTH",
"445 639 OFFCURVE",
"497 589 OFFCURVE",
"497 513 CURVE SMOOTH",
"497 409 OFFCURVE",
"418 340 OFFCURVE",
"299 340 CURVE SMOOTH",
"177 340 LINE"
);
}
);
width = 514;
},
{
anchors = (
{
name = bottom;
position = "{222, 0}";
},
{
name = top;
position = "{364, 680}";
}
);
layerId = "3FCD75D8-58B8-44DB-99C9-FF8F25B81242";
rightMetricsKey = "=28";
paths = (
{
closed = 1;
nodes = (
"135 0 LINE",
"204 299 LINE",
"321 299 LINE SMOOTH",
"469 299 OFFCURVE",
"568 384 OFFCURVE",
"568 511 CURVE SMOOTH",
"568 616 OFFCURVE",
"499 680 OFFCURVE",
"392 680 CURVE SMOOTH",
"205 680 LINE",
"49 0 LINE"
);
},
{
closed = 1;
nodes = (
"275 609 LINE",
"380 609 LINE SMOOTH",
"443 609 OFFCURVE",
"483 570 OFFCURVE",
"483 506 CURVE SMOOTH",
"483 425 OFFCURVE",
"423 371 OFFCURVE",
"333 371 CURVE SMOOTH",
"220 371 LINE"
);
}
);
width = 536;
}
);
leftKerningGroup = H;
leftMetricsKey = H;
rightKerningGroup = P;
unicode = 0050;
},
{
color = 4;
glyphname = Phook;
lastChange = "2019-02-05 21:48:03 +0000";
layers = (
{
layerId = UUID0;
paths = (
{
closed = 1;
nodes = (
"454 0 LINE",
"499 196 LINE",
"564 196 LINE SMOOTH",
"750 196 OFFCURVE",
"877 321 OFFCURVE",
"877 472 CURVE SMOOTH",
"877 595 OFFCURVE",
"796 680 OFFCURVE",
"675 680 CURVE",
"315 680 LINE SMOOTH",
"163 680 OFFCURVE",
"61 592 OFFCURVE",
"61 460 CURVE SMOOTH",
"61 441 OFFCURVE",
"63 420 OFFCURVE",
"67 401 CURVE",
"246 401 LINE",
"243 412 OFFCURVE",
"241 427 OFFCURVE",
"241 438 CURVE SMOOTH",
"241 484 OFFCURVE",
"272 506 OFFCURVE",
"319 506 CURVE SMOOTH",
"345 506 LINE",
"229 0 LINE"
);
},
{
closed = 1;
nodes = (
"568 498 LINE",
"608 498 LINE SMOOTH",
"643 498 OFFCURVE",
"663 480 OFFCURVE",
"663 447 CURVE SMOOTH",
"663 403 OFFCURVE",
"630 373 OFFCURVE",
"580 373 CURVE SMOOTH",
"540 373 LINE"
);
}
);
width = 840;
},
{
layerId = "C8A0F6C7-7618-41E1-A0A3-A261758331D0";
paths = (
{
closed = 1;
nodes = (
"223 0 LINE",
"292 299 LINE",
"415 299 LINE SMOOTH",
"569 299 OFFCURVE",
"671 386 OFFCURVE",
"671 516 CURVE SMOOTH",
"671 614 OFFCURVE",
"603 680 OFFCURVE",
"501 680 CURVE SMOOTH",
"278 680 LINE SMOOTH",
"156 680 OFFCURVE",
"75 611 OFFCURVE",
"75 507 CURVE SMOOTH",
"75 492 OFFCURVE",
"77 471 OFFCURVE",
"81 456 CURVE",
"132 456 LINE",
"128 472 OFFCURVE",
"126 488 OFFCURVE",
"126 508 CURVE SMOOTH",
"126 587 OFFCURVE",
"184 639 OFFCURVE",
"272 639 CURVE SMOOTH",
"320 639 LINE",
"173 0 LINE"
);
},
{
closed = 1;
nodes = (
"370 639 LINE",
"491 639 LINE SMOOTH",
"569 639 OFFCURVE",
"621 589 OFFCURVE",
"621 513 CURVE SMOOTH",
"621 409 OFFCURVE",
"542 340 OFFCURVE",
"423 340 CURVE SMOOTH",
"301 340 LINE"
);
}
);
width = 638;
},
{
layerId = "3FCD75D8-58B8-44DB-99C9-FF8F25B81242";
paths = (
{
closed = 1;
nodes = (
"250 0 LINE",
"319 299 LINE",
"436 299 LINE SMOOTH",
"584 299 OFFCURVE",
"683 384 OFFCURVE",
"683 511 CURVE SMOOTH",
"683 616 OFFCURVE",
"614 680 OFFCURVE",
"507 680 CURVE SMOOTH",
"251 680 LINE SMOOTH",
"131 680 OFFCURVE",
"55 614 OFFCURVE",
"55 515 CURVE SMOOTH",
"55 494 OFFCURVE",
"59 468 OFFCURVE",
"66 449 CURVE",
"146 449 LINE",
"140 465 OFFCURVE",
"136 492 OFFCURVE",
"136 512 CURVE SMOOTH",
"136 572 OFFCURVE",
"181 609 OFFCURVE",
"249 609 CURVE SMOOTH",
"304 609 LINE",
"164 0 LINE"
);
},
{
closed = 1;
nodes = (
"390 609 LINE",
"495 609 LINE SMOOTH",
"558 609 OFFCURVE",
"598 570 OFFCURVE",
"598 506 CURVE SMOOTH",
"598 425 OFFCURVE",
"538 371 OFFCURVE",
"448 371 CURVE SMOOTH",
"335 371 LINE"
);
}
);
width = 651;
}
);
leftKerningGroup = Bhook;
leftMetricsKey = Bhook;
rightKerningGroup = P;
rightMetricsKey = P;
unicode = 01A4;
},
{
color = 4;
glyphname = Thorn;
lastChange = "2019-02-05 21:48:03 +0000";
layers = (
{
anchors = (
{
name = bottom;
position = "{282, 0}";
},
{
name = top;
position = "{431, 680}";
}
);
layerId = UUID0;
paths = (
{
closed = 1;
nodes = (
"218 0 LINE",
"243 108 LINE",
"309 108 LINE SMOOTH",
"495 108 OFFCURVE",
"622 233 OFFCURVE",
"622 384 CURVE SMOOTH",
"622 515 OFFCURVE",
"532 592 OFFCURVE",
"392 592 CURVE SMOOTH",
"355 592 LINE",
"376 680 LINE",
"151 680 LINE",
"-7 0 LINE"
);
},
{
closed = 1;
nodes = (
"313 410 LINE",
"353 410 LINE SMOOTH",
"388 410 OFFCURVE",
"408 392 OFFCURVE",
"408 359 CURVE SMOOTH",
"408 315 OFFCURVE",
"375 285 OFFCURVE",
"325 285 CURVE SMOOTH",
"284 285 LINE"
);
}
);
width = 605;
},
{
anchors = (
{
name = bottom;
position = "{195, 0}";
},
{
name = top;
position = "{339, 680}";
}
);
layerId = "C8A0F6C7-7618-41E1-A0A3-A261758331D0";
paths = (
{
closed = 1;
nodes = (
"98 0 LINE",
"140 179 LINE",
"263 179 LINE SMOOTH",
"417 179 OFFCURVE",
"519 266 OFFCURVE",
"519 396 CURVE SMOOTH",
"519 494 OFFCURVE",
"451 560 OFFCURVE",
"349 560 CURVE SMOOTH",
"227 560 LINE",
"255 680 LINE",
"205 680 LINE",
"48 0 LINE"
);
},
{
closed = 1;
nodes = (
"218 519 LINE",
"339 519 LINE SMOOTH",
"417 519 OFFCURVE",
"469 469 OFFCURVE",
"469 393 CURVE SMOOTH",
"469 289 OFFCURVE",
"390 220 OFFCURVE",
"271 220 CURVE SMOOTH",
"149 220 LINE"
);
}
);
width = 513;
},
{
anchors = (
{
name = bottom;
position = "{233, 0}";
},
{
name = top;
position = "{380, 680}";
}
);
layerId = "3FCD75D8-58B8-44DB-99C9-FF8F25B81242";
paths = (
{
closed = 1;
nodes = (
"134 0 LINE",
"175 179 LINE",
"293 179 LINE SMOOTH",
"441 179 OFFCURVE",
"540 264 OFFCURVE",
"540 391 CURVE SMOOTH",
"540 496 OFFCURVE",
"471 560 OFFCURVE",
"364 560 CURVE SMOOTH",
"263 560 LINE",
"291 680 LINE",
"205 680 LINE",
"48 0 LINE"
);
},
{
closed = 1;
nodes = (
"246 489 LINE",
"352 489 LINE SMOOTH",
"415 489 OFFCURVE",
"455 450 OFFCURVE",
"455 386 CURVE SMOOTH",
"455 305 OFFCURVE",
"395 251 OFFCURVE",
"305 251 CURVE SMOOTH",
"191 251 LINE"
);
}
);
width = 536;
}
);
leftKerningGroup = H;
leftMetricsKey = H;
rightKerningGroup = Thorn;
rightMetricsKey = P;
unicode = 00DE;
},
{
color = 4;
glyphname = Q;
lastChange = "2019-02-05 21:48:03 +0000";
layers = (
{
anchors = (
{
name = bottom;
position = "{375, 0}";
},
{
name = top;
position = "{439, 680}";
}
);
components = (
{
name = O;
}
);
layerId = UUID0;
paths = (
{
closed = 1;
nodes = (
"718 73 LINE",
"451 347 LINE",
"343 245 LINE",
"610 -29 LINE"
);
}
);
width = 773;
},
{
anchors = (
{
name = bottom;
position = "{375, 0}";
},
{
name = top;
position = "{471, 680}";
}
);
components = (
{
name = O;
}
);
layerId = "C8A0F6C7-7618-41E1-A0A3-A261758331D0";
paths = (
{
closed = 1;
nodes = (
"706 11 LINE",
"471 281 LINE",
"438 252 LINE",
"673 -18 LINE"
);
}
);
width = 807;
},
{
anchors = (
{
name = bottom;
position = "{375, 0}";
},
{
name = top;
position = "{474, 680}";
}
);
components = (
{
name = O;
}
);
layerId = "3FCD75D8-58B8-44DB-99C9-FF8F25B81242";
paths = (
{
closed = 1;
nodes = (
"722 27 LINE",
"481 294 LINE",
"425 241 LINE",
"666 -26 LINE"
);
}
);
width = 810;
}
);
leftKerningGroup = O;
leftMetricsKey = O;
rightKerningGroup = O;
rightMetricsKey = O;
unicode = 0051;
},
{
color = 4;
glyphname = Qhooktail;
lastChange = "2019-02-05 21:48:03 +0000";
layers = (
{
layerId = UUID0;
paths = (
{
closed = 1;
nodes = (
"746 -45 LINE",
"695 -46 OFFCURVE",
"671 -20 OFFCURVE",
"682 24 CURVE SMOOTH",
"826 650 LINE",
"734 673 OFFCURVE",
"608 692 OFFCURVE",
"485 692 CURVE SMOOTH",
"200 692 OFFCURVE",
"41 535 OFFCURVE",
"41 304 CURVE SMOOTH",
"41 105 OFFCURVE",
"166 -12 OFFCURVE",
"320 -12 CURVE SMOOTH",
"370 -12 OFFCURVE",
"416 0 OFFCURVE",
"458 31 CURVE",
"453 10 LINE SMOOTH",
"415 -147 OFFCURVE",
"508 -237 OFFCURVE",
"702 -233 CURVE"
);
},
{
closed = 1;
nodes = (
"315 197 OFFCURVE",
"264 244 OFFCURVE",
"264 323 CURVE SMOOTH",
"264 424 OFFCURVE",
"329 483 OFFCURVE",
"439 483 CURVE SMOOTH",
"489 483 OFFCURVE",
"528 475 OFFCURVE",
"559 466 CURVE",
"525 320 LINE SMOOTH",
"508 246 OFFCURVE",
"453 197 OFFCURVE",
"383 197 CURVE SMOOTH"
);
}
);
width = 804;
},
{
layerId = "3FCD75D8-58B8-44DB-99C9-FF8F25B81242";
paths = (
{
closed = 1;
nodes = (
"726 -157 LINE",
"672 -159 OFFCURVE",
"642 -138 OFFCURVE",
"661 -55 CURVE SMOOTH",
"820 635 LINE",
"734 665 OFFCURVE",
"626 692 OFFCURVE",
"501 692 CURVE SMOOTH",
"244 692 OFFCURVE",
"72 538 OFFCURVE",
"72 306 CURVE SMOOTH",
"72 118 OFFCURVE",
"182 -12 OFFCURVE",
"365 -12 CURVE SMOOTH",
"463 -12 OFFCURVE",
"548 25 OFFCURVE",
"608 90 CURVE",
"574 -57 LINE SMOOTH",
"548 -165 OFFCURVE",
"605 -235 OFFCURVE",
"708 -232 CURVE"
);
},
{
closed = 1;
nodes = (
"244 61 OFFCURVE",
"157 160 OFFCURVE",
"157 310 CURVE SMOOTH",
"157 495 OFFCURVE",
"289 619 OFFCURVE",
"488 619 CURVE SMOOTH",
"583 619 OFFCURVE",
"665 599 OFFCURVE",
"720 576 CURVE",
"651 273 LINE SMOOTH",
"628 174 OFFCURVE",
"513 61 OFFCURVE",
"372 61 CURVE SMOOTH"
);
}
);
width = 815;
},
{
layerId = "C8A0F6C7-7618-41E1-A0A3-A261758331D0";
paths = (
{
closed = 1;
nodes = (
"726 -188 LINE",
"670 -189 OFFCURVE",
"645 -154 OFFCURVE",
"663 -75 CURVE SMOOTH",
"828 640 LINE",
"719 670 OFFCURVE",
"621 692 OFFCURVE",
"518 692 CURVE SMOOTH",
"232 692 OFFCURVE",
"74 517 OFFCURVE",
"74 301 CURVE SMOOTH",
"74 114 OFFCURVE",
"192 -12 OFFCURVE",
"372 -12 CURVE SMOOTH",
"497 -12 OFFCURVE",
"590 48 OFFCURVE",
"658 122 CURVE",
"613 -71 LINE SMOOTH",
"591 -165 OFFCURVE",
"627 -234 OFFCURVE",
"716 -232 CURVE"
);
},
{
closed = 1;
nodes = (
"236 29 OFFCURVE",
"128 134 OFFCURVE",
"128 303 CURVE SMOOTH",
"128 496 OFFCURVE",
"271 651 OFFCURVE",
"514 651 CURVE SMOOTH",
"607 651 OFFCURVE",
"704 628 OFFCURVE",
"769 604 CURVE",
"690 260 LINE SMOOTH",
"667 161 OFFCURVE",
"532 29 OFFCURVE",
"376 29 CURVE SMOOTH"
);
}
);
width = 815;
}
);
leftKerningGroup = O;
leftMetricsKey = O;
rightKerningGroup = H;
unicode = 024A;
},
{
color = 4;
glyphname = R;
lastChange = "2019-02-05 21:48:03 +0000";
layers = (
{
anchors = (
{
name = bottom;
position = "{285, 0}";
},
{
name = top;
position = "{374, 680}";
}
);
layerId = UUID0;
rightMetricsKey = "=-15";
paths = (
{
closed = 1;
nodes = (
"219 0 LINE",
"267 216 LINE",
"293 216 LINE",
"366 0 LINE",
"609 0 LINE",
"491 300 LINE",
"475 235 LINE",
"586 273 OFFCURVE",
"655 360 OFFCURVE",
"655 472 CURVE SMOOTH",
"655 603 OFFCURVE",
"565 680 OFFCURVE",
"425 680 CURVE SMOOTH",
"150 680 LINE",
"-6 0 LINE"
);
},
{
closed = 1;
nodes = (
"332 504 LINE",
"386 504 LINE SMOOTH",
"421 504 OFFCURVE",
"441 483 OFFCURVE",
"441 448 CURVE SMOOTH",
"441 401 OFFCURVE",
"401 371 OFFCURVE",
"358 371 CURVE SMOOTH",
"302 371 LINE"
);
}
);
width = 651;
},
{
anchors = (
{
name = bottom;
position = "{249, 0}";
},
{
name = top;
position = "{354, 680}";
}
);
layerId = "C8A0F6C7-7618-41E1-A0A3-A261758331D0";
rightMetricsKey = "=35";
paths = (
{
closed = 1;
nodes = (
"99 0 LINE",
"169 304 LINE",
"291 304 LINE",
"427 0 LINE",
"485 0 LINE",
"335 327 LINE",
"325 305 LINE",
"459 317 OFFCURVE",
"547 401 OFFCURVE",
"547 516 CURVE SMOOTH",
"547 614 OFFCURVE",
"479 680 OFFCURVE",
"377 680 CURVE SMOOTH",
"205 680 LINE",
"49 0 LINE"
);
},
{
closed = 1;
nodes = (
"246 639 LINE",
"367 639 LINE SMOOTH",
"445 639 OFFCURVE",
"497 589 OFFCURVE",
"497 513 CURVE SMOOTH",
"497 414 OFFCURVE",
"418 345 OFFCURVE",
"299 345 CURVE SMOOTH",
"178 345 LINE"
);
}
);
width = 572;
},
{
anchors = (
{
name = bottom;
position = "{253, 0}";
},
{
name = top;
position = "{364, 680}";
}
);
layerId = "3FCD75D8-58B8-44DB-99C9-FF8F25B81242";
rightMetricsKey = "=24";
paths = (
{
closed = 1;
nodes = (
"135 0 LINE",
"206 309 LINE",
"282 309 LINE",
"414 0 LINE",
"508 0 LINE",
"355 346 LINE",
"327 309 LINE",
"473 312 OFFCURVE",
"565 394 OFFCURVE",
"565 511 CURVE SMOOTH",
"565 616 OFFCURVE",
"496 680 OFFCURVE",
"389 680 CURVE SMOOTH",
"205 680 LINE",
"49 0 LINE"
);
},
{
closed = 1;
nodes = (
"275 609 LINE",
"377 609 LINE SMOOTH",
"440 609 OFFCURVE",
"480 570 OFFCURVE",
"480 505 CURVE SMOOTH",
"480 433 OFFCURVE",
"420 376 OFFCURVE",
"330 376 CURVE SMOOTH",
"221 376 LINE"
);
}
);
width = 584;
}
);
leftKerningGroup = H;
leftMetricsKey = H;
rightKerningGroup = R;
unicode = 0052;
},
{
color = 4;
glyphname = Rstroke;
lastChange = "2019-02-05 21:48:03 +0000";
layers = (
{
components = (
{
name = R;
transform = "{1, 0, 0, 1, 2, 0}";
}
);
layerId = UUID0;
paths = (
{
closed = 1;
nodes = (
"259 203 LINE",
"297 383 LINE",
"37 383 LINE",
"-1 203 LINE"
);
}
);
width = 653;
},
{
components = (
{
name = R;
transform = "{1, 0, 0, 1, -4, 0}";
}
);
layerId = "C8A0F6C7-7618-41E1-A0A3-A261758331D0";
paths = (
{
closed = 1;
nodes = (
"153 305 LINE",
"163 346 LINE",
"40 346 LINE",
"30 305 LINE"
);
}
);
width = 568;
},
{
components = (
{
alignment = -1;
name = R;
transform = "{1, 0, 0, 1, -10, 0}";
}
);
layerId = "3FCD75D8-58B8-44DB-99C9-FF8F25B81242";
paths = (
{
closed = 1;
nodes = (
"183 301 LINE",
"199 372 LINE",
"44 372 LINE",
"28 301 LINE"
);
}
);
width = 574;
}
);
leftKerningGroup = H;
leftMetricsKey = Istroke;
rightKerningGroup = R;
rightMetricsKey = R;
unicode = 024C;
},
{
color = 4;
glyphname = Rtail;
lastChange = "2019-02-05 21:48:03 +0000";
layers = (
{
anchors = (
{
name = bottom;
position = "{239, 0}";
},
{
name = top;
position = "{354, 680}";
}
);
layerId = "C8A0F6C7-7618-41E1-A0A3-A261758331D0";
paths = (
{
closed = 1;
nodes = (
"157 -231 OFFCURVE",
"180 -227 OFFCURVE",
"201 -221 CURVE",
"211 -176 LINE",
"185 -185 OFFCURVE",
"164 -189 OFFCURVE",
"146 -189 CURVE SMOOTH",
"90 -189 OFFCURVE",
"66 -150 OFFCURVE",
"83 -74 CURVE",
"169 304 LINE",
"291 304 LINE",
"427 0 LINE",
"485 0 LINE",
"344 307 LINE",
"467 325 OFFCURVE",
"547 407 OFFCURVE",
"547 516 CURVE SMOOTH",
"547 614 OFFCURVE",
"479 680 OFFCURVE",
"377 680 CURVE SMOOTH",
"205 680 LINE",
"32 -76 LINE",
"11 -169 OFFCURVE",
"51 -231 OFFCURVE",
"136 -231 CURVE SMOOTH"
);
},
{
closed = 1;
nodes = (
"246 639 LINE",
"367 639 LINE SMOOTH",
"445 639 OFFCURVE",
"497 589 OFFCURVE",
"497 513 CURVE SMOOTH",
"497 414 OFFCURVE",
"418 345 OFFCURVE",
"299 345 CURVE SMOOTH",
"178 345 LINE"
);
}
);
width = 572;
},
{
anchors = (
{
name = bottom;
position = "{285, 0}";
},
{
name = top;
position = "{384, 680}";
}
);
layerId = UUID0;
paths = (
{
closed = 1;
nodes = (
"229 -234 OFFCURVE",
"264 -232 OFFCURVE",
"280 -230 CURVE",
"324 -41 LINE",
"315 -43 OFFCURVE",
"294 -45 OFFCURVE",
"280 -45 CURVE SMOOTH",
"235 -45 OFFCURVE",
"213 -26 OFFCURVE",
"220 4 CURVE SMOOTH",
"267 216 LINE",
"293 216 LINE",
"366 0 LINE",
"609 0 LINE",
"511 250 LINE",
"601 293 OFFCURVE",
"655 373 OFFCURVE",
"655 472 CURVE SMOOTH",
"655 603 OFFCURVE",
"565 680 OFFCURVE",
"425 680 CURVE SMOOTH",
"150 680 LINE",
"-7 0 LINE SMOOTH",
"-40 -140 OFFCURVE",
"44 -234 OFFCURVE",
"202 -234 CURVE SMOOTH"
);
},
{
closed = 1;
nodes = (
"332 504 LINE",
"386 504 LINE SMOOTH",
"421 504 OFFCURVE",
"441 483 OFFCURVE",
"441 448 CURVE SMOOTH",
"441 401 OFFCURVE",
"401 371 OFFCURVE",
"358 371 CURVE SMOOTH",
"302 371 LINE"
);
}
);
width = 651;
},
{
anchors = (
{
name = bottom;
position = "{253, 0}";
},
{
name = top;
position = "{364, 680}";
}
);
layerId = "3FCD75D8-58B8-44DB-99C9-FF8F25B81242";
paths = (
{
closed = 1;
nodes = (
"181 -231 OFFCURVE",
"201 -229 OFFCURVE",
"223 -224 CURVE",
"240 -153 LINE",
"217 -158 OFFCURVE",
"196 -161 OFFCURVE",
"180 -161 CURVE SMOOTH",
"124 -161 OFFCURVE",
"107 -120 OFFCURVE",
"125 -42 CURVE",
"206 309 LINE",
"282 309 LINE",
"414 0 LINE",
"508 0 LINE",
"370 312 LINE",
"491 329 OFFCURVE",
"565 406 OFFCURVE",
"565 511 CURVE SMOOTH",
"565 616 OFFCURVE",
"496 680 OFFCURVE",
"389 680 CURVE SMOOTH",
"205 680 LINE",
"39 -45 LINE",
"11 -167 OFFCURVE",
"67 -231 OFFCURVE",
"162 -231 CURVE SMOOTH"
);
},
{
closed = 1;
nodes = (
"275 609 LINE",
"377 609 LINE SMOOTH",
"440 609 OFFCURVE",
"480 570 OFFCURVE",
"480 505 CURVE SMOOTH",
"480 433 OFFCURVE",
"420 376 OFFCURVE",
"330 376 CURVE SMOOTH",
"221 376 LINE"
);
}
);
width = 584;
}
);
leftKerningGroup = H;
leftMetricsKey = H;
rightKerningGroup = R;
rightMetricsKey = R;
unicode = 2C64;
},
{
color = 4;
glyphname = S;
lastChange = "2019-02-05 21:48:03 +0000";
layers = (
{
anchors = (
{
name = bottom;
position = "{262, 0}";
},
{
name = top;
position = "{372, 680}";
}
);
layerId = UUID0;
leftMetricsKey = "=10";
rightMetricsKey = "=10";
paths = (
{
closed = 1;
nodes = (
"470 -15 OFFCURVE",
"600 76 OFFCURVE",
"600 228 CURVE SMOOTH",
"600 450 OFFCURVE",
"301 402 OFFCURVE",
"301 490 CURVE SMOOTH",
"301 515 OFFCURVE",
"327 532 OFFCURVE",
"366 532 CURVE SMOOTH",
"406 532 OFFCURVE",
"436 511 OFFCURVE",
"439 479 CURVE",
"631 479 LINE",
"631 609 OFFCURVE",
"527 695 OFFCURVE",
"372 695 CURVE SMOOTH",
"194 695 OFFCURVE",
"75 600 OFFCURVE",
"75 456 CURVE SMOOTH",
"75 229 OFFCURVE",
"365 284 OFFCURVE",
"365 196 CURVE SMOOTH",
"365 168 OFFCURVE",
"337 150 OFFCURVE",
"294 150 CURVE SMOOTH",
"249 150 OFFCURVE",
"224 174 OFFCURVE",
"221 220 CURVE",
"4 220 LINE",
"1 66 OFFCURVE",
"94 -15 OFFCURVE",
"277 -15 CURVE SMOOTH"
);
}
);
width = 620;
},
{
anchors = (
{
name = bottom;
position = "{236, 0}";
},
{
name = top;
position = "{345, 680}";
}
);
layerId = "C8A0F6C7-7618-41E1-A0A3-A261758331D0";
leftMetricsKey = "=50";
rightMetricsKey = "=40";
paths = (
{
closed = 1;
nodes = (
"366 -12 OFFCURVE",
"458 68 OFFCURVE",
"458 188 CURVE SMOOTH",
"458 376 OFFCURVE",
"182 355 OFFCURVE",
"182 504 CURVE SMOOTH",
"182 592 OFFCURVE",
"245 651 OFFCURVE",
"340 651 CURVE SMOOTH",
"428 651 OFFCURVE",
"470 593 OFFCURVE",
"473 519 CURVE",
"522 519 LINE",
"524 623 OFFCURVE",
"454 692 OFFCURVE",
"344 692 CURVE SMOOTH",
"218 692 OFFCURVE",
"132 615 OFFCURVE",
"132 500 CURVE SMOOTH",
"132 319 OFFCURVE",
"408 337 OFFCURVE",
"408 185 CURVE SMOOTH",
"408 92 OFFCURVE",
"335 29 OFFCURVE",
"226 29 CURVE SMOOTH",
"137 29 OFFCURVE",
"81 88 OFFCURVE",
"88 177 CURVE",
"39 177 LINE",
"25 66 OFFCURVE",
"102 -12 OFFCURVE",
"227 -12 CURVE SMOOTH"
);
}
);
width = 512;
},
{
anchors = (
{
name = bottom;
position = "{233, 0}";
},
{
name = top;
position = "{348, 680}";
}
);
layerId = "3FCD75D8-58B8-44DB-99C9-FF8F25B81242";
leftMetricsKey = "=40";
rightMetricsKey = "=40";
paths = (
{
closed = 1;
nodes = (
"373 -12 OFFCURVE",
"475 82 OFFCURVE",
"475 197 CURVE SMOOTH",
"475 397 OFFCURVE",
"203 357 OFFCURVE",
"203 496 CURVE SMOOTH",
"203 571 OFFCURVE",
"256 621 OFFCURVE",
"339 621 CURVE SMOOTH",
"422 621 OFFCURVE",
"454 570 OFFCURVE",
"453 510 CURVE",
"537 510 LINE",
"544 623 OFFCURVE",
"464 692 OFFCURVE",
"347 692 CURVE SMOOTH",
"214 692 OFFCURVE",
"120 602 OFFCURVE",
"120 487 CURVE SMOOTH",
"120 294 OFFCURVE",
"391 335 OFFCURVE",
"391 188 CURVE SMOOTH",
"391 116 OFFCURVE",
"338 60 OFFCURVE",
"242 60 CURVE SMOOTH",
"177 60 OFFCURVE",
"110 94 OFFCURVE",
"114 182 CURVE",
"30 182 LINE",
"13 66 OFFCURVE",
"102 -12 OFFCURVE",
"234 -12 CURVE SMOOTH"
);
}
);
width = 527;
}
);
leftKerningGroup = S;
rightKerningGroup = S;
unicode = 0053;
},
{
color = 4;
glyphname = Germandbls;
lastChange = "2019-02-05 21:48:03 +0000";
layers = (
{
anchors = (
{
name = bottom;
position = "{353, 0}";
},
{
name = top;
position = "{453, 680}";
}
);
layerId = UUID0;
paths = (
{
closed = 1;
nodes = (
"632 -10 OFFCURVE",
"762 81 OFFCURVE",
"762 228 CURVE SMOOTH",
"762 312 OFFCURVE",
"717 379 OFFCURVE",
"593 402 CURVE",
"598 357 LINE",
"786 500 LINE",
"827 680 LINE",
"150 680 LINE",
"-7 0 LINE",
"218 0 LINE",
"333 498 LINE",
"582 498 LINE",
"570 532 LINE",
"406 401 LINE",
"375 270 LINE",
"386 270 OFFCURVE",
"397 270 OFFCURVE",
"408 270 CURVE SMOOTH",
"474 270 OFFCURVE",
"536 267 OFFCURVE",
"536 221 CURVE SMOOTH",
"536 175 OFFCURVE",
"472 163 OFFCURVE",
"416 162 CURVE SMOOTH",
"372 161 OFFCURVE",
"352 166 OFFCURVE",
"338 168 CURVE",
"299 -4 LINE",
"323 -7 OFFCURVE",
"372 -10 OFFCURVE",
"412 -10 CURVE SMOOTH"
);
}
);
width = 796;
},
{
anchors = (
{
name = bottom;
position = "{273, 0}";
},
{
name = top;
position = "{403, 680}";
}
);
layerId = "C8A0F6C7-7618-41E1-A0A3-A261758331D0";
paths = (
{
closed = 1;
nodes = (
"461 -7 OFFCURVE",
"564 83 OFFCURVE",
"564 211 CURVE SMOOTH",
"564 311 OFFCURVE",
"496 385 OFFCURVE",
"385 392 CURVE",
"387 373 LINE",
"637 650 LINE",
"644 680 LINE",
"205 680 LINE",
"48 0 LINE",
"98 0 LINE",
"246 639 LINE",
"586 639 LINE",
"579 656 LINE",
"330 379 LINE",
"323 349 LINE",
"337 349 OFFCURVE",
"351 349 OFFCURVE",
"365 349 CURVE SMOOTH",
"452 349 OFFCURVE",
"510 298 OFFCURVE",
"510 211 CURVE SMOOTH",
"510 107 OFFCURVE",
"430 34 OFFCURVE",
"309 34 CURVE SMOOTH",
"282 34 OFFCURVE",
"256 38 OFFCURVE",
"236 43 CURVE",
"226 3 LINE",
"249 -3 OFFCURVE",
"276 -7 OFFCURVE",
"305 -7 CURVE SMOOTH"
);
}
);
width = 606;
},
{
anchors = (
{
name = bottom;
position = "{310, 0}";
},
{
name = top;
position = "{449, 680}";
}
);
layerId = "3FCD75D8-58B8-44DB-99C9-FF8F25B81242";
paths = (
{
closed = 1;
nodes = (
"530 -7 OFFCURVE",
"633 74 OFFCURVE",
"633 211 CURVE SMOOTH",
"633 317 OFFCURVE",
"562 391 OFFCURVE",
"441 400 CURVE",
"444 369 LINE",
"695 614 LINE",
"710 680 LINE",
"205 680 LINE",
"48 0 LINE",
"134 0 LINE",
"275 609 LINE",
"614 609 LINE",
"603 636 LINE",
"361 395 LINE",
"346 329 LINE",
"365 329 OFFCURVE",
"384 329 OFFCURVE",
"403 329 CURVE SMOOTH",
"493 329 OFFCURVE",
"546 281 OFFCURVE",
"546 208 CURVE SMOOTH",
"546 118 OFFCURVE",
"480 65 OFFCURVE",
"367 65 CURVE SMOOTH",
"326 65 OFFCURVE",
"306 67 OFFCURVE",
"273 72 CURVE",
"257 0 LINE",
"281 -4 OFFCURVE",
"319 -7 OFFCURVE",
"357 -7 CURVE SMOOTH"
);
}
);
width = 690;
}
);
leftKerningGroup = H;
leftMetricsKey = H;
rightKerningGroup = Germandbls;
unicode = 1E9E;
},
{
color = 4;
glyphname = Sswashtail;
lastChange = "2019-02-20 08:56:33 +0000";
layers = (
{
components = (
{
name = S;
}
);
layerId = UUID0;
paths = (
{
closed = 1;
nodes = (
"394 -54 LINE",
"191 -70 OFFCURVE",
"126 -51 OFFCURVE",
"185 220 CURVE",
"4 220 LINE",
"-80 -149 OFFCURVE",
"102 -257 OFFCURVE",
"354 -227 CURVE"
);
}
);
width = 620;
},
{
components = (
{
name = S;
}
);
layerId = "C8A0F6C7-7618-41E1-A0A3-A261758331D0";
paths = (
{
closed = 1;
nodes = (
"273 -143 LINE",
"115 -167 OFFCURVE",
"32 -95 OFFCURVE",
"87 177 CURVE",
"39 177 LINE",
"-20 -123 OFFCURVE",
"101 -211 OFFCURVE",
"264 -185 CURVE"
);
}
);
width = 512;
},
{
components = (
{
name = S;
}
);
layerId = "3FCD75D8-58B8-44DB-99C9-FF8F25B81242";
paths = (
{
closed = 1;
nodes = (
"259 -139 LINE",
"56 -157 OFFCURVE",
"65 -12 OFFCURVE",
"107 182 CURVE",
"30 182 LINE",
"-23 -48 OFFCURVE",
"24 -224 OFFCURVE",
"243 -206 CURVE"
);
}
);
width = 527;
}
);
leftKerningGroup = S;
leftMetricsKey = S;
rightKerningGroup = S;
rightMetricsKey = S;
unicode = 2C7E;
},
{
color = 4;
glyphname = Schwa;
lastChange = "2019-02-05 21:48:03 +0000";
layers = (
{
anchors = (
{
name = bottom;
position = "{365, 0}";
},
{
name = top;
position = "{439, 680}";
}
);
layerId = UUID0;
paths = (
{
closed = 1;
nodes = (
"587 -16 OFFCURVE",
"762 144 OFFCURVE",
"762 375 CURVE SMOOTH",
"762 568 OFFCURVE",
"621 696 OFFCURVE",
"429 696 CURVE SMOOTH",
"242 696 OFFCURVE",
"119 604 OFFCURVE",
"60 459 CURVE",
"286 459 LINE",
"315 492 OFFCURVE",
"355 512 OFFCURVE",
"410 512 CURVE SMOOTH",
"473 512 OFFCURVE",
"517 472 OFFCURVE",
"533 411 CURVE",
"47 411 LINE",
"39 378 OFFCURVE",
"34 342 OFFCURVE",
"34 305 CURVE SMOOTH",
"34 112 OFFCURVE",
"166 -16 OFFCURVE",
"358 -16 CURVE SMOOTH"
);
},
{
closed = 1;
nodes = (
"324 174 OFFCURVE",
"283 207 OFFCURVE",
"265 261 CURVE",
"521 261 LINE",
"494 206 OFFCURVE",
"442 174 OFFCURVE",
"383 174 CURVE SMOOTH"
);
}
);
width = 758;
},
{
anchors = (
{
name = bottom;
position = "{363, 0}";
},
{
name = top;
position = "{440, 680}";
}
);
layerId = "C8A0F6C7-7618-41E1-A0A3-A261758331D0";
paths = (
{
closed = 1;
nodes = (
"596 -12 OFFCURVE",
"754 154 OFFCURVE",
"754 371 CURVE SMOOTH",
"754 557 OFFCURVE",
"621 693 OFFCURVE",
"428 693 CURVE SMOOTH",
"263 693 OFFCURVE",
"140 615 OFFCURVE",
"78 495 CURVE",
"137 495 LINE",
"193 590 OFFCURVE",
"294 652 OFFCURVE",
"424 652 CURVE SMOOTH",
"588 652 OFFCURVE",
"698 536 OFFCURVE",
"700 371 CURVE",
"50 371 LINE",
"46 351 OFFCURVE",
"45 330 OFFCURVE",
"45 310 CURVE SMOOTH",
"45 125 OFFCURVE",
"178 -12 OFFCURVE",
"371 -12 CURVE SMOOTH"
);
},
{
closed = 1;
nodes = (
"210 29 OFFCURVE",
"94 144 OFFCURVE",
"99 330 CURVE",
"698 330 LINE",
"682 157 OFFCURVE",
"547 29 OFFCURVE",
"375 29 CURVE SMOOTH"
);
}
);
width = 776;
},
{
anchors = (
{
name = bottom;
position = "{372, 0}";
},
{
name = top;
position = "{432, 680}";
}
);
layerId = "3FCD75D8-58B8-44DB-99C9-FF8F25B81242";
paths = (
{
closed = 1;
nodes = (
"590 -12 OFFCURVE",
"755 153 OFFCURVE",
"755 367 CURVE SMOOTH",
"755 552 OFFCURVE",
"625 692 OFFCURVE",
"424 692 CURVE SMOOTH",
"266 692 OFFCURVE",
"137 609 OFFCURVE",
"76 484 CURVE",
"169 484 LINE",
"221 568 OFFCURVE",
"314 619 OFFCURVE",
"418 619 CURVE SMOOTH",
"562 619 OFFCURVE",
"664 522 OFFCURVE",
"670 375 CURVE",
"55 375 LINE",
"52 355 OFFCURVE",
"50 334 OFFCURVE",
"50 313 CURVE SMOOTH",
"50 130 OFFCURVE",
"179 -12 OFFCURVE",
"371 -12 CURVE SMOOTH"
);
},
{
closed = 1;
nodes = (
"241 61 OFFCURVE",
"136 160 OFFCURVE",
"135 305 CURVE",
"665 305 LINE",
"641 158 OFFCURVE",
"521 61 OFFCURVE",
"377 61 CURVE SMOOTH"
);
}
);
width = 775;
}
);
leftKerningGroup = O;
rightKerningGroup = O;
rightMetricsKey = O;
unicode = 018F;
},
{
color = 4;
glyphname = T;
lastChange = "2019-02-05 21:48:03 +0000";
layers = (
{
anchors = (
{
name = bottom;
position = "{255, 0}";
},
{
name = center;
position = "{322, 290}";
},
{
name = top;
position = "{412, 680}";
}
);
guideLines = (
{
position = "{406, 435}";
}
);
layerId = UUID0;
leftMetricsKey = "=10";
rightMetricsKey = "=10";
paths = (
{
closed = 1;
nodes = (
"370 0 LINE",
"485 498 LINE",
"677 498 LINE",
"719 680 LINE",
"110 680 LINE",
"68 498 LINE",
"260 498 LINE",
"145 0 LINE"
);
}
);
width = 629;
},
{
anchors = (
{
name = bottom;
position = "{227, 0}";
},
{
name = center;
position = "{309, 350}";
},
{
name = top;
position = "{385, 680}";
}
);
layerId = "C8A0F6C7-7618-41E1-A0A3-A261758331D0";
leftMetricsKey = "=13";
rightMetricsKey = "=13";
paths = (
{
closed = 1;
nodes = (
"253 0 LINE",
"401 639 LINE",
"643 639 LINE",
"652 680 LINE",
"118 680 LINE",
"109 639 LINE",
"351 639 LINE",
"203 0 LINE"
);
}
);
width = 560;
},
{
anchors = (
{
name = bottom;
position = "{229, 0}";
},
{
name = center;
position = "{305, 330}";
},
{
name = top;
position = "{384, 680}";
}
);
layerId = "3FCD75D8-58B8-44DB-99C9-FF8F25B81242";
leftMetricsKey = "=12";
rightMetricsKey = "=12";
paths = (
{
closed = 1;
nodes = (
"273 0 LINE",
"413 609 LINE",
"640 609 LINE",
"657 680 LINE",
"117 680 LINE",
"100 609 LINE",
"327 609 LINE",
"187 0 LINE"
);
}
);
width = 564;
}
);
leftKerningGroup = T;
rightKerningGroup = T;
rightMetricsKey = "=10";
unicode = 0054;
},
{
color = 4;
glyphname = Tbar;
lastChange = "2019-02-05 21:48:03 +0000";
layers = (
{
anchors = (
{
name = _center;
position = "{333, 290}";
}
);
components = (
{
name = T;
}
);
layerId = UUID0;
paths = (
{
closed = 1;
nodes = (
"531 195 LINE",
"573 375 LINE",
"115 375 LINE",
"73 195 LINE"
);
}
);
width = 629;
},
{
anchors = (
{
name = _center;
position = "{312, 350}";
}
);
components = (
{
name = T;
}
);
layerId = "C8A0F6C7-7618-41E1-A0A3-A261758331D0";
paths = (
{
closed = 1;
nodes = (
"459 329 LINE",
"469 370 LINE",
"153 370 LINE",
"143 329 LINE"
);
}
);
width = 560;
},
{
anchors = (
{
name = _center;
position = "{314, 330}";
}
);
components = (
{
alignment = -1;
name = T;
}
);
layerId = "3FCD75D8-58B8-44DB-99C9-FF8F25B81242";
paths = (
{
closed = 1;
nodes = (
"471 294 LINE",
"487 366 LINE",
"141 366 LINE",
"125 294 LINE"
);
}
);
width = 564;
}
);
leftKerningGroup = T;
leftMetricsKey = T;
rightKerningGroup = T;
rightMetricsKey = "=|";
unicode = 0166;
},
{
color = 4;
glyphname = Tdiagonalstroke;
lastChange = "2019-02-05 23:17:49 +0000";
layers = (
{
anchors = (
{
name = _center;
position = "{314, 290}";
}
);
components = (
{
name = T;
}
);
layerId = UUID0;
paths = (
{
closed = 1;
nodes = (
"181 -90 LINE",
"686 770 LINE",
"495 770 LINE",
"-10 -90 LINE"
);
}
);
width = 629;
},
{
anchors = (
{
name = _center;
position = "{310, 350}";
}
);
components = (
{
name = T;
}
);
layerId = "C8A0F6C7-7618-41E1-A0A3-A261758331D0";
paths = (
{
closed = 1;
nodes = (
"27 -90 LINE",
"653 769 LINE",
"597 769 LINE",
"-29 -90 LINE"
);
}
);
width = 560;
},
{
anchors = (
{
name = _center;
position = "{307, 330}";
}
);
components = (
{
name = T;
}
);
layerId = "3FCD75D8-58B8-44DB-99C9-FF8F25B81242";
paths = (
{
closed = 1;
nodes = (
"53 -90 LINE",
"664 770 LINE",
"580 770 LINE",
"-31 -90 LINE"
);
}
);
width = 564;
}
);
leftKerningGroup = T;
leftMetricsKey = T;
rightKerningGroup = T;
rightMetricsKey = T;
unicode = "023E,2C66";
},
{
color = 4;
glyphname = Thook;
lastChange = "2019-02-05 21:48:03 +0000";
layers = (
{
anchors = (
{
name = bottom;
position = "{392, 0}";
},
{
name = top;
position = "{523, 680}";
}
);
layerId = UUID0;
paths = (
{
closed = 1;
nodes = (
"502 0 LINE",
"617 498 LINE",
"809 498 LINE",
"851 680 LINE",
"315 680 LINE SMOOTH",
"163 680 OFFCURVE",
"61 592 OFFCURVE",
"61 460 CURVE SMOOTH",
"61 441 OFFCURVE",
"63 420 OFFCURVE",
"67 401 CURVE",
"246 401 LINE",
"243 413 OFFCURVE",
"241 428 OFFCURVE",
"241 438 CURVE SMOOTH",
"241 474 OFFCURVE",
"268 498 OFFCURVE",
"309 498 CURVE SMOOTH",
"392 498 LINE",
"277 0 LINE"
);
}
);
width = 761;
},
{
anchors = (
{
name = bottom;
position = "{327, 0}";
},
{
name = top;
position = "{485, 680}";
}
);
layerId = "C8A0F6C7-7618-41E1-A0A3-A261758331D0";
paths = (
{
closed = 1;
nodes = (
"353 0 LINE",
"501 639 LINE",
"743 639 LINE",
"752 680 LINE",
"278 680 LINE SMOOTH",
"156 680 OFFCURVE",
"75 611 OFFCURVE",
"75 507 CURVE SMOOTH",
"75 492 OFFCURVE",
"77 471 OFFCURVE",
"81 456 CURVE",
"132 456 LINE",
"128 472 OFFCURVE",
"126 488 OFFCURVE",
"126 508 CURVE SMOOTH",
"126 587 OFFCURVE",
"184 639 OFFCURVE",
"272 639 CURVE SMOOTH",
"451 639 LINE",
"303 0 LINE"
);
}
);
width = 660;
},
{
anchors = (
{
name = bottom;
position = "{309, 0}";
},
{
name = top;
position = "{457, 680}";
}
);
layerId = "3FCD75D8-58B8-44DB-99C9-FF8F25B81242";
paths = (
{
closed = 1;
nodes = (
"347 0 LINE",
"487 609 LINE",
"714 609 LINE",
"731 680 LINE",
"235 680 LINE",
"124 674 OFFCURVE",
"55 609 OFFCURVE",
"55 515 CURVE SMOOTH",
"55 494 OFFCURVE",
"59 468 OFFCURVE",
"66 449 CURVE",
"146 449 LINE",
"140 465 OFFCURVE",
"136 492 OFFCURVE",
"136 512 CURVE SMOOTH",
"136 572 OFFCURVE",
"181 609 OFFCURVE",
"249 609 CURVE SMOOTH",
"401 609 LINE",
"261 0 LINE"
);
}
);
width = 638;
}
);
leftKerningGroup = Bhook;
leftMetricsKey = Bhook;
rightKerningGroup = T;
rightMetricsKey = T;
unicode = 01AC;
},
{
color = 4;
glyphname = Tonefive;
lastChange = "2019-02-05 21:48:03 +0000";
layers = (
{
layerId = UUID0;
paths = (
{
closed = 1;
nodes = (
"478 -15 OFFCURVE",
"609 91 OFFCURVE",
"609 251 CURVE SMOOTH",
"609 370 OFFCURVE",
"537 439 OFFCURVE",
"410 439 CURVE SMOOTH",
"326 439 LINE",
"341 507 LINE",
"639 507 LINE",
"679 680 LINE",
"97 680 LINE",
"57 506 LINE",
"137 506 LINE",
"86 286 LINE",
"333 286 LINE SMOOTH",
"376 286 OFFCURVE",
"401 266 OFFCURVE",
"401 232 CURVE SMOOTH",
"401 189 OFFCURVE",
"363 161 OFFCURVE",
"312 161 CURVE SMOOTH",
"268 161 OFFCURVE",
"237 181 OFFCURVE",
"232 229 CURVE",
"26 229 LINE",
"20 72 OFFCURVE",
"131 -15 OFFCURVE",
"291 -15 CURVE SMOOTH"
);
}
);
width = 632;
},
{
layerId = "C8A0F6C7-7618-41E1-A0A3-A261758331D0";
paths = (
{
closed = 1;
nodes = (
"418 -12 OFFCURVE",
"524 82 OFFCURVE",
"524 220 CURVE SMOOTH",
"524 333 OFFCURVE",
"454 404 OFFCURVE",
"329 404 CURVE SMOOTH",
"187 404 LINE",
"241 639 LINE",
"591 639 LINE",
"601 680 LINE",
"111 680 LINE",
"101 639 LINE",
"191 639 LINE",
"128 363 LINE",
"322 363 LINE SMOOTH",
"417 363 OFFCURVE",
"476 309 OFFCURVE",
"476 218 CURVE SMOOTH",
"476 111 OFFCURVE",
"396 29 OFFCURVE",
"270 29 CURVE SMOOTH",
"153 29 OFFCURVE",
"108 109 OFFCURVE",
"101 173 CURVE",
"49 173 LINE",
"61 62 OFFCURVE",
"143 -12 OFFCURVE",
"270 -12 CURVE SMOOTH"
);
}
);
width = 622;
},
{
layerId = "3FCD75D8-58B8-44DB-99C9-FF8F25B81242";
paths = (
{
closed = 1;
nodes = (
"448 -12 OFFCURVE",
"556 80 OFFCURVE",
"556 221 CURVE SMOOTH",
"556 335 OFFCURVE",
"483 413 OFFCURVE",
"373 413 CURVE SMOOTH",
"233 413 LINE",
"278 609 LINE",
"613 609 LINE",
"630 680 LINE",
"124 680 LINE",
"107 609 LINE",
"192 609 LINE",
"131 341 LINE",
"343 341 LINE SMOOTH",
"420 341 OFFCURVE",
"471 294 OFFCURVE",
"471 217 CURVE SMOOTH",
"471 125 OFFCURVE",
"400 64 OFFCURVE",
"298 64 CURVE SMOOTH",
"203 64 OFFCURVE",
"159 117 OFFCURVE",
"155 189 CURVE",
"68 189 LINE",
"70 64 OFFCURVE",
"155 -12 OFFCURVE",
"289 -12 CURVE SMOOTH"
);
}
);
width = 602;
}
);
leftKerningGroup = Tonefive;
rightKerningGroup = Tonefive;
unicode = 01BC;
},
{
color = 4;
glyphname = Tonesix;
lastChange = "2019-02-05 21:48:03 +0000";
layers = (
{
layerId = UUID0;
paths = (
{
closed = 1;
nodes = (
"284 0 LINE SMOOTH",
"470 0 OFFCURVE",
"597 125 OFFCURVE",
"597 265 CURVE SMOOTH",
"597 386 OFFCURVE",
"507 463 OFFCURVE",
"367 463 CURVE SMOOTH",
"325 463 LINE",
"379 695 LINE",
"258 695 LINE",
"82 641 LINE",
"56 532 LINE",
"109 499 LINE",
"-5 0 LINE"
);
},
{
closed = 1;
nodes = (
"285 287 LINE",
"332 287 LINE SMOOTH",
"364 287 OFFCURVE",
"383 271 OFFCURVE",
"383 244 CURVE SMOOTH",
"383 205 OFFCURVE",
"354 182 OFFCURVE",
"304 182 CURVE SMOOTH",
"261 182 LINE"
);
}
);
width = 606;
},
{
layerId = "C8A0F6C7-7618-41E1-A0A3-A261758331D0";
paths = (
{
closed = 1;
nodes = (
"252 0 LINE SMOOTH",
"406 0 OFFCURVE",
"508 86 OFFCURVE",
"508 214 CURVE SMOOTH",
"508 309 OFFCURVE",
"440 373 OFFCURVE",
"338 373 CURVE SMOOTH",
"184 373 LINE",
"258 690 LINE",
"233 690 LINE",
"117 646 LINE",
"113 625 LINE",
"183 585 LINE",
"48 0 LINE"
);
},
{
closed = 1;
nodes = (
"175 332 LINE",
"328 332 LINE SMOOTH",
"406 332 OFFCURVE",
"458 284 OFFCURVE",
"458 211 CURVE SMOOTH",
"458 109 OFFCURVE",
"379 41 OFFCURVE",
"260 41 CURVE SMOOTH",
"108 41 LINE"
);
}
);
width = 544;
},
{
layerId = "3FCD75D8-58B8-44DB-99C9-FF8F25B81242";
paths = (
{
closed = 1;
nodes = (
"290 0 LINE SMOOTH",
"438 0 OFFCURVE",
"537 85 OFFCURVE",
"537 217 CURVE SMOOTH",
"537 326 OFFCURVE",
"468 390 OFFCURVE",
"361 390 CURVE SMOOTH",
"224 390 LINE",
"292 686 LINE",
"247 686 LINE",
"117 642 LINE",
"106 596 LINE",
"176 556 LINE",
"49 0 LINE"
);
},
{
closed = 1;
nodes = (
"208 319 LINE",
"349 319 LINE SMOOTH",
"412 319 OFFCURVE",
"452 280 OFFCURVE",
"452 212 CURVE SMOOTH",
"452 126 OFFCURVE",
"392 72 OFFCURVE",
"302 72 CURVE SMOOTH",
"152 72 LINE"
);
}
);
width = 574;
}
);
leftKerningGroup = H;
widthMetricsKey = "Softsign-cy";
rightKerningGroup = "Softsign-cy";
rightMetricsKey = "Softsign-cy";
unicode = 0184;
},
{
color = 4;
glyphname = Tonetwo;
lastChange = "2019-02-05 21:48:03 +0000";
layers = (
{
layerId = UUID0;
paths = (
{
closed = 1;
nodes = (
"432 -15 OFFCURVE",
"557 78 OFFCURVE",
"593 220 CURVE",
"371 220 LINE",
"358 184 OFFCURVE",
"319 150 OFFCURVE",
"269 150 CURVE SMOOTH",
"237 150 OFFCURVE",
"220 164 OFFCURVE",
"220 186 CURVE SMOOTH",
"220 291 OFFCURVE",
"613 256 OFFCURVE",
"613 508 CURVE SMOOTH",
"613 626 OFFCURVE",
"526 695 OFFCURVE",
"380 695 CURVE SMOOTH",
"191 695 OFFCURVE",
"91 579 OFFCURVE",
"66 479 CURVE",
"277 479 LINE",
"287 509 OFFCURVE",
"317 532 OFFCURVE",
"354 532 CURVE SMOOTH",
"383 532 OFFCURVE",
"398 518 OFFCURVE",
"398 499 CURVE SMOOTH",
"398 405 OFFCURVE",
"2 449 OFFCURVE",
"2 183 CURVE SMOOTH",
"2 58 OFFCURVE",
"90 -15 OFFCURVE",
"251 -15 CURVE SMOOTH"
);
}
);
width = 609;
},
{
layerId = "C8A0F6C7-7618-41E1-A0A3-A261758331D0";
paths = (
{
closed = 1;
nodes = (
"341 -12 OFFCURVE",
"428 59 OFFCURVE",
"457 178 CURVE",
"403 178 LINE",
"380 84 OFFCURVE",
"314 29 OFFCURVE",
"226 29 CURVE SMOOTH",
"138 29 OFFCURVE",
"88 76 OFFCURVE",
"88 144 CURVE SMOOTH",
"88 332 OFFCURVE",
"498 299 OFFCURVE",
"498 530 CURVE SMOOTH",
"498 628 OFFCURVE",
"427 692 OFFCURVE",
"325 692 CURVE SMOOTH",
"224 692 OFFCURVE",
"137 629 OFFCURVE",
"107 516 CURVE",
"159 516 LINE",
"183 601 OFFCURVE",
"243 651 OFFCURVE",
"322 651 CURVE SMOOTH",
"410 651 OFFCURVE",
"448 588 OFFCURVE",
"448 530 CURVE SMOOTH",
"448 335 OFFCURVE",
"37 363 OFFCURVE",
"37 141 CURVE SMOOTH",
"37 49 OFFCURVE",
"109 -12 OFFCURVE",
"222 -12 CURVE SMOOTH"
);
}
);
width = 518;
},
{
layerId = "3FCD75D8-58B8-44DB-99C9-FF8F25B81242";
paths = (
{
closed = 1;
nodes = (
"351 -12 OFFCURVE",
"445 62 OFFCURVE",
"469 182 CURVE",
"380 182 LINE",
"363 105 OFFCURVE",
"307 60 OFFCURVE",
"230 60 CURVE SMOOTH",
"155 60 OFFCURVE",
"113 107 OFFCURVE",
"113 160 CURVE SMOOTH",
"113 325 OFFCURVE",
"518 295 OFFCURVE",
"518 530 CURVE SMOOTH",
"518 624 OFFCURVE",
"453 692 OFFCURVE",
"339 692 CURVE SMOOTH",
"226 692 OFFCURVE",
"139 624 OFFCURVE",
"111 510 CURVE",
"199 510 LINE",
"217 580 OFFCURVE",
"265 621 OFFCURVE",
"329 621 CURVE SMOOTH",
"391 621 OFFCURVE",
"432 582 OFFCURVE",
"432 526 CURVE SMOOTH",
"432 351 OFFCURVE",
"27 376 OFFCURVE",
"27 151 CURVE SMOOTH",
"27 57 OFFCURVE",
"98 -12 OFFCURVE",
"222 -12 CURVE SMOOTH"
);
}
);
width = 520;
}
);
leftKerningGroup = Tonetwo;
leftMetricsKey = "=|S";
rightKerningGroup = Tonetwo;
rightMetricsKey = "=|S";
unicode = 01A7;
},
{
color = 4;
glyphname = Tretroflexhook;
lastChange = "2019-02-05 21:48:03 +0000";
layers = (
{
layerId = UUID0;
paths = (
{
closed = 1;
nodes = (
"381 -234 OFFCURVE",
"416 -232 OFFCURVE",
"432 -230 CURVE",
"476 -41 LINE",
"467 -43 OFFCURVE",
"446 -45 OFFCURVE",
"432 -45 CURVE SMOOTH",
"384 -45 OFFCURVE",
"366 -23 OFFCURVE",
"373 11 CURVE SMOOTH",
"485 498 LINE",
"677 498 LINE",
"719 680 LINE",
"110 680 LINE",
"68 498 LINE",
"260 498 LINE",
"145 0 LINE SMOOTH",
"112 -140 OFFCURVE",
"196 -234 OFFCURVE",
"354 -234 CURVE SMOOTH"
);
}
);
width = 629;
},
{
layerId = "C8A0F6C7-7618-41E1-A0A3-A261758331D0";
paths = (
{
closed = 1;
nodes = (
"311 -231 OFFCURVE",
"334 -227 OFFCURVE",
"355 -221 CURVE",
"365 -176 LINE",
"339 -185 OFFCURVE",
"318 -189 OFFCURVE",
"300 -189 CURVE SMOOTH",
"244 -189 OFFCURVE",
"220 -150 OFFCURVE",
"237 -74 CURVE SMOOTH",
"401 639 LINE",
"643 639 LINE",
"652 680 LINE",
"118 680 LINE",
"109 639 LINE",
"351 639 LINE",
"186 -76 LINE SMOOTH",
"165 -169 OFFCURVE",
"205 -231 OFFCURVE",
"290 -231 CURVE SMOOTH"
);
}
);
width = 560;
},
{
layerId = "3FCD75D8-58B8-44DB-99C9-FF8F25B81242";
paths = (
{
closed = 1;
nodes = (
"320 -231 OFFCURVE",
"340 -229 OFFCURVE",
"362 -224 CURVE",
"379 -153 LINE",
"356 -158 OFFCURVE",
"335 -161 OFFCURVE",
"319 -161 CURVE SMOOTH",
"263 -161 OFFCURVE",
"246 -120 OFFCURVE",
"264 -42 CURVE SMOOTH",
"413 609 LINE",
"640 609 LINE",
"657 680 LINE",
"117 680 LINE",
"100 609 LINE",
"327 609 LINE",
"178 -45 LINE SMOOTH",
"150 -167 OFFCURVE",
"206 -231 OFFCURVE",
"301 -231 CURVE SMOOTH"
);
}
);
width = 564;
}
);
leftKerningGroup = T;
leftMetricsKey = T;
rightKerningGroup = T;
rightMetricsKey = T;
unicode = 01AE;
},
{
color = 4;
glyphname = U;
lastChange = "2019-02-05 21:48:03 +0000";
layers = (
{
anchors = (
{
name = bottom;
position = "{312, 0}";
},
{
name = ogonek;
position = "{411, 0}";
},
{
name = top;
position = "{459, 680}";
},
{
name = topright;
position = "{787, 680}";
}
);
layerId = UUID0;
leftMetricsKey = "=40";
rightMetricsKey = "=40";
paths = (
{
closed = 1;
nodes = (
"526 -12 OFFCURVE",
"647 80 OFFCURVE",
"692 273 CURVE SMOOTH",
"787 680 LINE",
"564 680 LINE",
"473 287 LINE SMOOTH",
"455 210 OFFCURVE",
"408 180 OFFCURVE",
"349 180 CURVE SMOOTH",
"292 180 OFFCURVE",
"257 223 OFFCURVE",
"272 287 CURVE SMOOTH",
"363 680 LINE",
"140 680 LINE",
"54 298 LINE SMOOTH",
"20 146 OFFCURVE",
"102 -12 OFFCURVE",
"316 -12 CURVE SMOOTH"
);
}
);
width = 727;
},
{
anchors = (
{
name = bottom;
position = "{293, 0}";
},
{
name = ogonek;
position = "{369, 0}";
},
{
name = top;
position = "{443, 680}";
},
{
name = topright;
position = "{723, 680}";
}
);
layerId = "C8A0F6C7-7618-41E1-A0A3-A261758331D0";
leftMetricsKey = "=65";
paths = (
{
closed = 1;
nodes = (
"463 -12 OFFCURVE",
"583 73 OFFCURVE",
"627 263 CURVE SMOOTH",
"723 680 LINE",
"673 680 LINE",
"576 261 LINE SMOOTH",
"543 117 OFFCURVE",
"445 29 OFFCURVE",
"302 29 CURVE SMOOTH",
"163 29 OFFCURVE",
"93 126 OFFCURVE",
"129 281 CURVE SMOOTH",
"221 680 LINE",
"171 680 LINE",
"79 283 LINE SMOOTH",
"39 110 OFFCURVE",
"125 -12 OFFCURVE",
"298 -12 CURVE SMOOTH"
);
}
);
width = 683;
},
{
anchors = (
{
name = bottom;
position = "{300, 0}";
},
{
name = ogonek;
position = "{378, 0}";
},
{
name = top;
position = "{457, 680}";
},
{
name = topright;
position = "{750, 680}";
}
);
layerId = "3FCD75D8-58B8-44DB-99C9-FF8F25B81242";
leftMetricsKey = "=65";
rightMetricsKey = "=65";
paths = (
{
closed = 1;
nodes = (
"481 -13 OFFCURVE",
"609 72 OFFCURVE",
"657 279 CURVE SMOOTH",
"750 680 LINE",
"664 680 LINE",
"572 289 LINE SMOOTH",
"537 134 OFFCURVE",
"440 60 OFFCURVE",
"321 60 CURVE SMOOTH",
"196 60 OFFCURVE",
"133 147 OFFCURVE",
"166 289 CURVE SMOOTH",
"256 680 LINE",
"170 680 LINE",
"79 289 LINE SMOOTH",
"36 103 OFFCURVE",
"151 -13 OFFCURVE",
"310 -13 CURVE SMOOTH"
);
}
);
width = 710;
}
);
leftKerningGroup = U;
rightKerningGroup = U;
rightMetricsKey = "=65";
unicode = 0055;
},
{
color = 4;
glyphname = Ubar;
lastChange = "2019-02-05 21:48:03 +0000";
layers = (
{
components = (
{
name = U;
transform = "{1, 0, 0, 1, 3, 0}";
}
);
layerId = UUID0;
paths = (
{
closed = 1;
nodes = (
"743 305 LINE",
"785 485 LINE",
"61 485 LINE",
"19 305 LINE"
);
}
);
width = 735;
},
{
components = (
{
name = U;
transform = "{1, 0, 0, 1, 10, 0}";
}
);
layerId = "C8A0F6C7-7618-41E1-A0A3-A261758331D0";
paths = (
{
closed = 1;
nodes = (
"723 329 LINE",
"733 370 LINE",
"39 370 LINE",
"29 329 LINE"
);
}
);
width = 704;
},
{
components = (
{
alignment = -1;
name = U;
transform = "{1, 0, 0, 1, 10, 0}";
}
);
layerId = "3FCD75D8-58B8-44DB-99C9-FF8F25B81242";
paths = (
{
closed = 1;
nodes = (
"738 313 LINE",
"754 384 LINE",
"47 384 LINE",
"31 313 LINE"
);
}
);
width = 729;
}
);
leftKerningGroup = U;
rightKerningGroup = U;
rightMetricsKey = "=|";
unicode = 0244;
},
{
color = 4;
glyphname = V;
lastChange = "2019-02-05 23:34:58 +0000";
layers = (
{
anchors = (
{
name = bottom;
position = "{319, 0}";
},
{
name = top;
position = "{476, 680}";
}
);
layerId = UUID0;
leftMetricsKey = "=-26";
rightMetricsKey = "=-26";
paths = (
{
closed = 1;
nodes = (
"425 0 LINE",
"878 680 LINE",
"633 680 LINE",
"363 242 LINE",
"293 680 LINE",
"74 680 LINE",
"214 0 LINE"
);
}
);
width = 752;
},
{
anchors = (
{
name = bottom;
position = "{288, 0}";
},
{
name = top;
position = "{445, 680}";
}
);
layerId = "C8A0F6C7-7618-41E1-A0A3-A261758331D0";
paths = (
{
closed = 1;
nodes = (
"310 0 LINE",
"795 680 LINE",
"738 680 LINE",
"299 57 LINE",
"148 680 LINE",
"95 680 LINE",
"266 0 LINE"
);
}
);
width = 680;
},
{
anchors = (
{
name = bottom;
position = "{295, 0}";
},
{
name = top;
position = "{452, 680}";
}
);
layerId = "3FCD75D8-58B8-44DB-99C9-FF8F25B81242";
paths = (
{
closed = 1;
nodes = (
"335 0 LINE",
"813 680 LINE",
"715 680 LINE",
"311 96 LINE",
"177 680 LINE",
"90 680 LINE",
"255 0 LINE"
);
}
);
width = 693;
}
);
leftKerningGroup = V;
rightKerningGroup = V;
rightMetricsKey = "=|";
unicode = 0056;
},
{
color = 4;
glyphname = Gammaafrican;
lastChange = "2019-02-05 23:29:49 +0000";
layers = (
{
layerId = UUID0;
paths = (
{
closed = 1;
nodes = (
"450 -232 OFFCURVE",
"554 -144 OFFCURVE",
"554 -12 CURVE SMOOTH",
"554 67 OFFCURVE",
"523 137 OFFCURVE",
"514 158 CURVE SMOOTH",
"298 680 LINE",
"74 680 LINE",
"315 110 LINE SMOOTH",
"335 62 OFFCURVE",
"353 20 OFFCURVE",
"353 -15 CURVE SMOOTH",
"353 -50 OFFCURVE",
"335 -77 OFFCURVE",
"306 -77 CURVE SMOOTH",
"286 -77 OFFCURVE",
"277 -64 OFFCURVE",
"277 -49 CURVE SMOOTH",
"277 -12 OFFCURVE",
"328 48 OFFCURVE",
"383 110 CURVE SMOOTH",
"886 680 LINE",
"639 680 LINE",
"194 158 LINE SMOOTH",
"151 108 OFFCURVE",
"85 28 OFFCURVE",
"85 -71 CURVE SMOOTH",
"85 -174 OFFCURVE",
"163 -232 OFFCURVE",
"294 -232 CURVE SMOOTH"
);
}
);
width = 760;
},
{
layerId = "C8A0F6C7-7618-41E1-A0A3-A261758331D0";
paths = (
{
closed = 1;
nodes = (
"328 -230 OFFCURVE",
"412 -178 OFFCURVE",
"412 -70 CURVE SMOOTH",
"412 -42 OFFCURVE",
"406 -12 OFFCURVE",
"395 17 CURVE SMOOTH",
"148 680 LINE",
"95 680 LINE",
"345 -4 LINE SMOOTH",
"353 -27 OFFCURVE",
"357 -50 OFFCURVE",
"357 -71 CURVE SMOOTH",
"357 -153 OFFCURVE",
"304 -189 OFFCURVE",
"252 -189 CURVE SMOOTH",
"206 -189 OFFCURVE",
"178 -161 OFFCURVE",
"178 -118 CURVE SMOOTH",
"178 -77 OFFCURVE",
"203 -42 OFFCURVE",
"235 -4 CURVE SMOOTH",
"802 680 LINE",
"742 680 LINE",
"191 17 LINE SMOOTH",
"162 -18 OFFCURVE",
"127 -60 OFFCURVE",
"127 -120 CURVE SMOOTH",
"127 -188 OFFCURVE",
"174 -230 OFFCURVE",
"248 -230 CURVE SMOOTH"
);
}
);
width = 687;
},
{
layerId = "3FCD75D8-58B8-44DB-99C9-FF8F25B81242";
paths = (
{
closed = 1;
nodes = (
"367 -220 OFFCURVE",
"437 -154 OFFCURVE",
"437 -50 CURVE SMOOTH",
"437 -5 OFFCURVE",
"424 26 OFFCURVE",
"412 58 CURVE SMOOTH",
"177 680 LINE",
"90 680 LINE",
"338 26 LINE SMOOTH",
"346 5 OFFCURVE",
"355 -19 OFFCURVE",
"355 -51 CURVE SMOOTH",
"355 -118 OFFCURVE",
"317 -148 OFFCURVE",
"272 -148 CURVE SMOOTH",
"233 -148 OFFCURVE",
"212 -126 OFFCURVE",
"212 -94 CURVE SMOOTH",
"212 -65 OFFCURVE",
"230 -20 OFFCURVE",
"269 26 CURVE SMOOTH",
"819 680 LINE",
"725 680 LINE",
"201 58 LINE SMOOTH",
"181 34 OFFCURVE",
"130 -30 OFFCURVE",
"130 -104 CURVE SMOOTH",
"130 -174 OFFCURVE",
"178 -220 OFFCURVE",
"264 -220 CURVE SMOOTH"
);
}
);
width = 699;
}
);
leftKerningGroup = Gammaafrican;
leftMetricsKey = V;
rightKerningGroup = Gammaafrican;
rightMetricsKey = "=|";
unicode = 0194;
},
{
color = 4;
glyphname = Vhook;
lastChange = "2019-02-05 21:48:03 +0000";
layers = (
{
layerId = UUID0;
paths = (
{
closed = 1;
nodes = (
"526 -12 OFFCURVE",
"647 80 OFFCURVE",
"692 273 CURVE SMOOTH",
"729 432 LINE SMOOTH",
"767 597 OFFCURVE",
"704 695 OFFCURVE",
"561 695 CURVE SMOOTH",
"503 695 OFFCURVE",
"472 693 OFFCURVE",
"444 690 CURVE",
"400 500 LINE",
"415 503 OFFCURVE",
"431 506 OFFCURVE",
"456 506 CURVE SMOOTH",
"495 506 OFFCURVE",
"515 474 OFFCURVE",
"505 427 CURVE SMOOTH",
"473 287 LINE SMOOTH",
"455 210 OFFCURVE",
"408 180 OFFCURVE",
"349 180 CURVE SMOOTH",
"292 180 OFFCURVE",
"257 223 OFFCURVE",
"272 287 CURVE SMOOTH",
"363 680 LINE",
"140 680 LINE",
"54 298 LINE SMOOTH",
"20 146 OFFCURVE",
"102 -12 OFFCURVE",
"316 -12 CURVE SMOOTH"
);
}
);
width = 726;
},
{
layerId = "C8A0F6C7-7618-41E1-A0A3-A261758331D0";
paths = (
{
closed = 1;
nodes = (
"462 -12 OFFCURVE",
"584 75 OFFCURVE",
"627 263 CURVE SMOOTH",
"687 523 LINE SMOOTH",
"711 629 OFFCURVE",
"674 692 OFFCURVE",
"588 692 CURVE SMOOTH",
"566 692 OFFCURVE",
"540 688 OFFCURVE",
"520 682 CURVE",
"510 637 LINE",
"536 646 OFFCURVE",
"556 650 OFFCURVE",
"574 650 CURVE SMOOTH",
"633 650 OFFCURVE",
"656 606 OFFCURVE",
"636 521 CURVE SMOOTH",
"576 261 LINE SMOOTH",
"543 118 OFFCURVE",
"445 29 OFFCURVE",
"302 29 CURVE SMOOTH",
"164 29 OFFCURVE",
"93 126 OFFCURVE",
"129 281 CURVE SMOOTH",
"221 680 LINE",
"171 680 LINE",
"79 283 LINE SMOOTH",
"39 110 OFFCURVE",
"125 -12 OFFCURVE",
"298 -12 CURVE SMOOTH"
);
}
);
width = 683;
},
{
layerId = "3FCD75D8-58B8-44DB-99C9-FF8F25B81242";
paths = (
{
closed = 1;
nodes = (
"483 -13 OFFCURVE",
"610 74 OFFCURVE",
"657 279 CURVE SMOOTH",
"709 506 LINE SMOOTH",
"735 618 OFFCURVE",
"690 692 OFFCURVE",
"587 692 CURVE SMOOTH",
"563 692 OFFCURVE",
"536 688 OFFCURVE",
"522 684 CURVE",
"506 612 LINE",
"522 617 OFFCURVE",
"547 622 OFFCURVE",
"565 622 CURVE SMOOTH",
"622 622 OFFCURVE",
"639 574 OFFCURVE",
"622 502 CURVE SMOOTH",
"572 289 LINE SMOOTH",
"536 134 OFFCURVE",
"439 60 OFFCURVE",
"321 60 CURVE SMOOTH",
"196 60 OFFCURVE",
"133 147 OFFCURVE",
"166 289 CURVE SMOOTH",
"256 680 LINE",
"170 680 LINE",
"79 289 LINE SMOOTH",
"36 103 OFFCURVE",
"151 -13 OFFCURVE",
"310 -13 CURVE SMOOTH"
);
}
);
width = 710;
}
);
leftKerningGroup = U;
leftMetricsKey = U;
rightKerningGroup = U;
rightMetricsKey = U;
unicode = 01B2;
},
{
color = 4;
glyphname = Vturned;
lastChange = "2019-02-05 21:48:03 +0000";
layers = (
{
layerId = UUID0;
paths = (
{
closed = 1;
nodes = (
"173 0 LINE",
"459 489 LINE",
"558 0 LINE",
"790 0 LINE",
"610 680 LINE",
"390 680 LINE",
"-67 0 LINE"
);
}
);
width = 837;
},
{
layerId = "C8A0F6C7-7618-41E1-A0A3-A261758331D0";
paths = (
{
closed = 1;
nodes = (
"9 0 LINE",
"450 624 LINE",
"611 0 LINE",
"668 0 LINE",
"485 680 LINE",
"437 680 LINE",
"-50 0 LINE"
);
}
);
width = 722;
},
{
layerId = "3FCD75D8-58B8-44DB-99C9-FF8F25B81242";
paths = (
{
closed = 1;
nodes = (
"42 0 LINE",
"437 585 LINE",
"576 0 LINE",
"668 0 LINE",
"498 680 LINE",
"414 680 LINE",
"-54 0 LINE"
);
}
);
width = 718;
}
);
leftKerningGroup = A;
leftMetricsKey = A;
rightKerningGroup = A;
rightMetricsKey = A;
unicode = 0245;
},
{
color = 4;
glyphname = W;
lastChange = "2019-02-05 21:48:03 +0000";
layers = (
{
anchors = (
{
name = bottom;
position = "{504, 0}";
},
{
name = top;
position = "{634, 680}";
}
);
guideLines = (
{
angle = 114.7751;
position = "{780, 372}";
},
{
angle = 65.5109;
position = "{461, 367}";
}
);
layerId = UUID0;
paths = (
{
closed = 1;
nodes = (
"378 0 LINE",
"560 266 LINE",
"621 0 LINE",
"797 0 LINE",
"1248 680 LINE",
"1003 680 LINE",
"758 274 LINE",
"713 469 LINE",
"855 680 LINE",
"646 680 LINE",
"661 680 LINE",
"678 680 LINE",
"437 680 LINE",
"483 462 LINE",
"352 271 LINE",
"293 680 LINE",
"74 680 LINE",
"212 0 LINE"
);
}
);
width = 1122;
},
{
anchors = (
{
name = bottom;
position = "{457, 0}";
},
{
name = top;
position = "{606, 680}";
}
);
layerId = "C8A0F6C7-7618-41E1-A0A3-A261758331D0";
paths = (
{
closed = 1;
nodes = (
"317 0 LINE",
"526 294 LINE",
"598 0 LINE",
"635 0 LINE",
"1133 680 LINE",
"1076 680 LINE",
"630 65 LINE",
"563 340 LINE",
"808 680 LINE",
"753 680 LINE",
"549 390 LINE",
"476 680 LINE",
"428 680 LINE",
"511 348 LINE",
"312 67 LINE",
"148 680 LINE",
"95 680 LINE",
"280 0 LINE"
);
}
);
width = 1018;
},
{
anchors = (
{
name = bottom;
position = "{459, 0}";
},
{
name = top;
position = "{615, 680}";
}
);
layerId = "3FCD75D8-58B8-44DB-99C9-FF8F25B81242";
paths = (
{
closed = 1;
nodes = (
"334 0 LINE",
"523 278 LINE",
"587 0 LINE",
"667 0 LINE",
"1152 680 LINE",
"1052 680 LINE",
"643 100 LINE",
"586 347 LINE",
"822 680 LINE",
"728 680 LINE",
"562 436 LINE",
"506 680 LINE",
"427 680 LINE",
"501 368 LINE",
"314 101 LINE",
"177 680 LINE",
"90 680 LINE",
"261 0 LINE"
);
}
);
width = 1032;
}
);
leftKerningGroup = V;
leftMetricsKey = V;
rightKerningGroup = V;
rightMetricsKey = V;
unicode = 0057;
},
{
color = 4;
glyphname = Whook;
lastChange = "2019-02-05 21:48:03 +0000";
layers = (
{
anchors = (
{
name = bottom;
position = "{472, 0}";
},
{
name = top;
position = "{614, 680}";
}
);
layerId = "C8A0F6C7-7618-41E1-A0A3-A261758331D0";
paths = (
{
closed = 1;
nodes = (
"317 0 LINE",
"526 294 LINE",
"598 0 LINE",
"635 0 LINE",
"1073 602 LINE SMOOTH",
"1093 629 OFFCURVE",
"1111 639 OFFCURVE",
"1131 639 CURVE SMOOTH",
"1140 639 OFFCURVE",
"1147 637 OFFCURVE",
"1147 637 CURVE",
"1159 684 LINE",
"1159 684 OFFCURVE",
"1149 686 OFFCURVE",
"1132 686 CURVE SMOOTH",
"1098 686 OFFCURVE",
"1068 668 OFFCURVE",
"1042 632 CURVE SMOOTH",
"630 65 LINE",
"563 340 LINE",
"808 680 LINE",
"753 680 LINE",
"549 390 LINE",
"476 680 LINE",
"428 680 LINE",
"511 348 LINE",
"312 67 LINE",
"148 680 LINE",
"95 680 LINE",
"280 0 LINE"
);
}
);
width = 1018;
},
{
anchors = (
{
name = bottom;
position = "{508, 0}";
},
{
name = top;
position = "{645, 680}";
}
);
layerId = UUID0;
paths = (
{
closed = 1;
nodes = (
"378 0 LINE",
"560 266 LINE",
"621 0 LINE",
"797 0 LINE",
"1104 462 LINE SMOOTH",
"1125 494 OFFCURVE",
"1147 509 OFFCURVE",
"1174 509 CURVE SMOOTH",
"1185 509 OFFCURVE",
"1196 507 OFFCURVE",
"1208 504 CURVE",
"1250 687 LINE",
"1230 691 OFFCURVE",
"1196 695 OFFCURVE",
"1167 695 CURVE SMOOTH",
"1077 695 OFFCURVE",
"998 656 OFFCURVE",
"948 576 CURVE SMOOTH",
"758 274 LINE",
"712 469 LINE",
"855 680 LINE",
"646 680 LINE",
"661 680 LINE",
"678 680 LINE",
"437 680 LINE",
"483 462 LINE",
"352 271 LINE",
"293 680 LINE",
"74 680 LINE",
"212 0 LINE"
);
}
);
width = 1122;
},
{
anchors = (
{
name = bottom;
position = "{470, 0}";
},
{
name = top;
position = "{621, 680}";
}
);
layerId = "3FCD75D8-58B8-44DB-99C9-FF8F25B81242";
paths = (
{
closed = 1;
nodes = (
"334 0 LINE",
"523 278 LINE",
"587 0 LINE",
"667 0 LINE",
"1076 573 LINE SMOOTH",
"1096 601 OFFCURVE",
"1118 612 OFFCURVE",
"1139 612 CURVE SMOOTH",
"1148 612 OFFCURVE",
"1152 611 OFFCURVE",
"1159 609 CURVE",
"1178 685 LINE",
"1169 687 OFFCURVE",
"1155 689 OFFCURVE",
"1139 689 CURVE SMOOTH",
"1081 689 OFFCURVE",
"1040 661 OFFCURVE",
"994 596 CURVE SMOOTH",
"643 100 LINE",
"586 347 LINE",
"822 680 LINE",
"728 680 LINE",
"562 436 LINE",
"506 680 LINE",
"427 680 LINE",
"501 368 LINE",
"314 101 LINE",
"177 680 LINE",
"90 680 LINE",
"261 0 LINE"
);
}
);
width = 1032;
}
);
leftKerningGroup = V;
leftMetricsKey = V;
widthMetricsKey = W;
rightKerningGroup = V;
unicode = 2C72;
},
{
color = 4;
glyphname = Wynn;
lastChange = "2019-02-05 21:48:03 +0000";
layers = (
{
guideLines = (
{
angle = 21.8014;
position = "{348, 259}";
},
{
angle = 21.8014;
position = "{348, 26}";
}
);
layerId = UUID0;
paths = (
{
closed = 1;
nodes = (
"168 -220 LINE",
"218 -4 LINE",
"480 91 OFFCURVE",
"683 234 OFFCURVE",
"683 481 CURVE SMOOTH",
"683 616 OFFCURVE",
"623 692 OFFCURVE",
"520 692 CURVE SMOOTH",
"457 692 OFFCURVE",
"399 664 OFFCURVE",
"363 627 CURVE",
"376 680 LINE",
"151 680 LINE",
"-57 -220 LINE"
);
},
{
closed = 1;
nodes = (
"311 400 LINE SMOOTH",
"329 481 OFFCURVE",
"366 510 OFFCURVE",
"404 510 CURVE SMOOTH",
"437 510 OFFCURVE",
"454 489 OFFCURVE",
"454 446 CURVE SMOOTH",
"454 362 OFFCURVE",
"389 289 OFFCURVE",
"276 242 CURVE"
);
}
);
width = 648;
},
{
guideLines = (
{
angle = 29.5604;
position = "{289, 56}";
}
);
layerId = "C8A0F6C7-7618-41E1-A0A3-A261758331D0";
paths = (
{
closed = 1;
nodes = (
"48 -220 LINE",
"95 -15 LINE",
"384 119 OFFCURVE",
"619 249 OFFCURVE",
"619 501 CURVE SMOOTH",
"619 616 OFFCURVE",
"551 692 OFFCURVE",
"449 692 CURVE SMOOTH",
"338 692 OFFCURVE",
"271 628 OFFCURVE",
"229 564 CURVE",
"256 680 LINE",
"205 680 LINE",
"-3 -220 LINE"
);
},
{
closed = 1;
nodes = (
"195 420 LINE SMOOTH",
"224 546 OFFCURVE",
"339 651 OFFCURVE",
"446 651 CURVE SMOOTH",
"520 651 OFFCURVE",
"569 590 OFFCURVE",
"569 498 CURVE SMOOTH",
"569 287 OFFCURVE",
"362 158 OFFCURVE",
"109 44 CURVE"
);
}
);
width = 593;
},
{
guideLines = (
{
angle = 29.5604;
position = "{289, 37}";
}
);
layerId = "3FCD75D8-58B8-44DB-99C9-FF8F25B81242";
paths = (
{
closed = 1;
nodes = (
"83 -220 LINE",
"129 -21 LINE",
"410 108 OFFCURVE",
"619 277 OFFCURVE",
"619 506 CURVE SMOOTH",
"619 631 OFFCURVE",
"556 692 OFFCURVE",
"459 692 CURVE SMOOTH",
"387 692 OFFCURVE",
"317 659 OFFCURVE",
"270 592 CURVE",
"291 680 LINE",
"205 680 LINE",
"-3 -220 LINE"
);
},
{
closed = 1;
nodes = (
"233 429 LINE SMOOTH",
"262 553 OFFCURVE",
"374 619 OFFCURVE",
"441 619 CURVE SMOOTH",
"493 619 OFFCURVE",
"535 581 OFFCURVE",
"535 496 CURVE SMOOTH",
"535 313 OFFCURVE",
"342 167 OFFCURVE",
"152 81 CURVE"
);
}
);
width = 592;
}
);
leftKerningGroup = H;
leftMetricsKey = H;
rightKerningGroup = Wynn;
rightMetricsKey = P;
unicode = 01F7;
},
{
color = 4;
glyphname = X;
lastChange = "2019-02-05 23:18:24 +0000";
layers = (
{
anchors = (
{
name = bottom;
position = "{302, 0}";
},
{
name = top;
position = "{433, 680}";
}
);
layerId = UUID0;
leftMetricsKey = "=-16";
rightMetricsKey = "=-16";
paths = (
{
closed = 1;
nodes = (
"187 0 LINE",
"355 195 LINE",
"455 0 LINE",
"688 0 LINE",
"509 338 LINE",
"827 680 LINE",
"573 680 LINE",
"411 491 LINE",
"315 680 LINE",
"84 680 LINE",
"259 351 LINE",
"-63 0 LINE"
);
}
);
width = 729;
},
{
anchors = (
{
name = bottom;
position = "{259, 0}";
},
{
name = top;
position = "{404, 680}";
}
);
layerId = "C8A0F6C7-7618-41E1-A0A3-A261758331D0";
leftMetricsKey = "=3";
paths = (
{
closed = 1;
nodes = (
"12 0 LINE",
"332 311 LINE",
"513 0 LINE",
"566 0 LINE",
"365 345 LINE",
"715 680 LINE",
"654 680 LINE",
"344 382 LINE",
"170 680 LINE",
"117 680 LINE",
"310 349 LINE",
"-49 0 LINE"
);
}
);
width = 621;
},
{
anchors = (
{
name = bottom;
position = "{278, 0}";
},
{
name = top;
position = "{426, 680}";
}
);
layerId = "3FCD75D8-58B8-44DB-99C9-FF8F25B81242";
leftMetricsKey = "=2";
rightMetricsKey = "=2";
paths = (
{
closed = 1;
nodes = (
"60 0 LINE",
"344 287 LINE",
"505 0 LINE",
"598 0 LINE",
"408 340 LINE",
"754 680 LINE",
"644 680 LINE",
"367 405 LINE",
"211 680 LINE",
"118 680 LINE",
"304 352 LINE",
"-50 0 LINE"
);
}
);
width = 652;
}
);
leftKerningGroup = X;
rightKerningGroup = X;
rightMetricsKey = "=3";
unicode = 0058;
},
{
color = 4;
glyphname = Y;
lastChange = "2019-02-05 23:29:56 +0000";
layers = (
{
anchors = (
{
name = bottom;
position = "{260, 0}";
},
{
name = top;
position = "{391, 680}";
},
{
name = topleft;
position = "{91, 680}";
}
);
layerId = UUID0;
leftMetricsKey = "=-35";
rightMetricsKey = "=-35";
paths = (
{
closed = 1;
nodes = (
"371 0 LINE",
"432 265 LINE",
"764 680 LINE",
"526 680 LINE",
"359 463 LINE",
"289 680 LINE",
"65 680 LINE",
"211 263 LINE",
"150 0 LINE"
);
}
);
width = 629;
},
{
anchors = (
{
name = bottom;
position = "{215, 0}";
},
{
name = top;
position = "{361, 680}";
},
{
name = topleft;
position = "{96, 680}";
}
);
layerId = "C8A0F6C7-7618-41E1-A0A3-A261758331D0";
paths = (
{
closed = 1;
nodes = (
"239 0 LINE",
"308 294 LINE",
"659 680 LINE",
"596 680 LINE",
"288 337 LINE",
"134 680 LINE",
"80 680 LINE",
"258 292 LINE",
"190 0 LINE"
);
}
);
width = 529;
},
{
anchors = (
{
name = bottom;
position = "{213, 0}";
},
{
name = top;
position = "{350, 680}";
},
{
name = topleft;
position = "{93, 680}";
}
);
layerId = "3FCD75D8-58B8-44DB-99C9-FF8F25B81242";
paths = (
{
closed = 1;
nodes = (
"255 0 LINE",
"323 295 LINE",
"658 680 LINE",
"556 680 LINE",
"291 370 LINE",
"168 680 LINE",
"77 680 LINE",
"237 293 LINE",
"170 0 LINE"
);
}
);
width = 525;
}
);
leftKerningGroup = Y;
rightKerningGroup = Y;
rightMetricsKey = "=|";
unicode = 0059;
},
{
color = 4;
glyphname = Yhook;
lastChange = "2019-02-05 21:48:03 +0000";
layers = (
{
layerId = UUID0;
paths = (
{
closed = 1;
nodes = (
"411 0 LINE",
"472 265 LINE",
"804 680 LINE",
"566 680 LINE",
"399 463 LINE",
"364 574 LINE SMOOTH",
"337 660 OFFCURVE",
"283 695 OFFCURVE",
"175 695 CURVE SMOOTH",
"136 695 OFFCURVE",
"101 687 OFFCURVE",
"101 687 CURVE",
"59 502 LINE",
"59 502 OFFCURVE",
"77 509 OFFCURVE",
"99 509 CURVE SMOOTH",
"148 509 OFFCURVE",
"175 487 OFFCURVE",
"193 433 CURVE SMOOTH",
"251 263 LINE",
"190 0 LINE"
);
}
);
width = 669;
},
{
layerId = "C8A0F6C7-7618-41E1-A0A3-A261758331D0";
paths = (
{
closed = 1;
nodes = (
"239 0 LINE",
"308 294 LINE",
"659 680 LINE",
"596 680 LINE",
"288 337 LINE",
"150 647 LINE SMOOTH",
"138 673 OFFCURVE",
"122 686 OFFCURVE",
"93 686 CURVE SMOOTH",
"82 686 OFFCURVE",
"73 685 OFFCURVE",
"66 684 CURVE",
"55 636 LINE",
"62 637 OFFCURVE",
"67 638 OFFCURVE",
"76 638 CURVE SMOOTH",
"96 638 OFFCURVE",
"106 629 OFFCURVE",
"119 599 CURVE SMOOTH",
"258 292 LINE",
"190 0 LINE"
);
}
);
width = 529;
},
{
layerId = "3FCD75D8-58B8-44DB-99C9-FF8F25B81242";
paths = (
{
closed = 1;
nodes = (
"255 0 LINE",
"323 295 LINE",
"658 680 LINE",
"556 680 LINE",
"291 370 LINE",
"187 638 LINE SMOOTH",
"174 671 OFFCURVE",
"151 689 OFFCURVE",
"107 689 CURVE SMOOTH",
"88 689 OFFCURVE",
"71 686 OFFCURVE",
"69 685 CURVE",
"51 610 LINE",
"51 610 OFFCURVE",
"62 612 OFFCURVE",
"74 612 CURVE SMOOTH",
"100 612 OFFCURVE",
"112 600 OFFCURVE",
"121 578 CURVE SMOOTH",
"237 293 LINE",
"170 0 LINE"
);
}
);
width = 525;
}
);
leftKerningGroup = Y;
rightKerningGroup = Y;
rightMetricsKey = Y;
unicode = 01B3;
},
{
color = 4;
glyphname = Yr;
lastChange = "2019-02-05 21:48:03 +0000";
layers = (
{
layerId = UUID0;
paths = (
{
closed = 1;
nodes = (
"585 -126 LINE",
"486 137 LINE",
"576 180 OFFCURVE",
"631 260 OFFCURVE",
"631 360 CURVE SMOOTH",
"631 491 OFFCURVE",
"541 568 OFFCURVE",
"401 568 CURVE SMOOTH",
"349 568 LINE",
"375 680 LINE",
"150 680 LINE",
"-6 0 LINE",
"219 0 LINE",
"243 104 LINE",
"269 104 LINE",
"342 -126 LINE"
);
},
{
closed = 1;
nodes = (
"309 392 LINE",
"362 392 LINE SMOOTH",
"397 392 OFFCURVE",
"417 371 OFFCURVE",
"417 336 CURVE SMOOTH",
"417 289 OFFCURVE",
"377 259 OFFCURVE",
"334 259 CURVE SMOOTH",
"278 259 LINE"
);
}
);
width = 656;
},
{
layerId = "C8A0F6C7-7618-41E1-A0A3-A261758331D0";
paths = (
{
closed = 1;
nodes = (
"455 -120 LINE",
"314 187 LINE",
"439 204 OFFCURVE",
"520 286 OFFCURVE",
"520 396 CURVE SMOOTH",
"520 494 OFFCURVE",
"452 560 OFFCURVE",
"350 560 CURVE SMOOTH",
"227 560 LINE",
"255 680 LINE",
"205 680 LINE",
"49 0 LINE",
"99 0 LINE",
"142 184 LINE",
"264 184 LINE",
"400 -120 LINE"
);
},
{
closed = 1;
nodes = (
"218 519 LINE",
"340 519 LINE SMOOTH",
"418 519 OFFCURVE",
"470 469 OFFCURVE",
"470 393 CURVE SMOOTH",
"470 294 OFFCURVE",
"391 225 OFFCURVE",
"272 225 CURVE SMOOTH",
"151 225 LINE"
);
}
);
width = 569;
},
{
layerId = "3FCD75D8-58B8-44DB-99C9-FF8F25B81242";
paths = (
{
closed = 1;
nodes = (
"481 -120 LINE",
"343 192 LINE",
"464 209 OFFCURVE",
"538 286 OFFCURVE",
"538 392 CURVE SMOOTH",
"538 497 OFFCURVE",
"469 561 OFFCURVE",
"362 561 CURVE SMOOTH",
"264 561 LINE",
"291 680 LINE",
"205 680 LINE",
"48 0 LINE",
"134 0 LINE",
"178 189 LINE",
"255 189 LINE",
"387 -120 LINE"
);
},
{
closed = 1;
nodes = (
"247 490 LINE",
"350 490 LINE SMOOTH",
"413 490 OFFCURVE",
"453 451 OFFCURVE",
"453 386 CURVE SMOOTH",
"453 313 OFFCURVE",
"393 256 OFFCURVE",
"303 256 CURVE SMOOTH",
"193 256 LINE"
);
}
);
width = 585;
}
);
leftKerningGroup = H;
leftMetricsKey = H;
rightKerningGroup = Yr;
rightMetricsKey = R;
unicode = 01A6;
},
{
color = 4;
glyphname = Ystroke;
lastChange = "2019-02-05 21:48:03 +0000";
layers = (
{
anchors = (
{
name = bottom;
position = "{193, 0}";
},
{
name = top;
position = "{371, 680}";
}
);
layerId = "C8A0F6C7-7618-41E1-A0A3-A261758331D0";
paths = (
{
closed = 1;
nodes = (
"221 0 LINE",
"284 275 LINE",
"624 680 LINE",
"561 680 LINE",
"264 322 LINE",
"135 680 LINE",
"80 680 LINE",
"232 272 LINE",
"170 0 LINE"
);
},
{
closed = 1;
nodes = (
"575 509 LINE",
"585 550 LINE",
"61 550 LINE",
"51 509 LINE"
);
}
);
width = 494;
},
{
anchors = (
{
name = bottom;
position = "{265, 0}";
},
{
name = top;
position = "{406, 680}";
}
);
layerId = UUID0;
paths = (
{
closed = 1;
nodes = (
"375 0 LINE",
"410 155 LINE",
"769 680 LINE",
"537 680 LINE",
"329 352 LINE",
"275 680 LINE",
"65 680 LINE",
"185 153 LINE",
"150 0 LINE"
);
},
{
closed = 1;
nodes = (
"715 430 LINE",
"756 610 LINE",
"51 610 LINE",
"10 430 LINE"
);
}
);
width = 637;
},
{
anchors = (
{
name = bottom;
position = "{202, 0}";
},
{
name = top;
position = "{335, 680}";
}
);
layerId = "3FCD75D8-58B8-44DB-99C9-FF8F25B81242";
paths = (
{
closed = 1;
nodes = (
"246 0 LINE",
"300 237 LINE",
"642 680 LINE",
"542 680 LINE",
"272 323 LINE",
"165 680 LINE",
"77 680 LINE",
"213 234 LINE",
"160 0 LINE"
);
},
{
closed = 1;
nodes = (
"593 486 LINE",
"609 557 LINE",
"54 557 LINE",
"38 486 LINE"
);
}
);
width = 509;
}
);
leftKerningGroup = Y;
leftMetricsKey = Y;
rightKerningGroup = Y;
rightMetricsKey = Y;
unicode = 024E;
},
{
color = 4;
glyphname = Z;
lastChange = "2019-02-05 21:48:03 +0000";
layers = (
{
anchors = (
{
name = bottom;
position = "{255, 0}";
},
{
name = top;
position = "{393, 680}";
}
);
layerId = UUID0;
leftMetricsKey = "=30";
rightMetricsKey = "=30";
paths = (
{
closed = 1;
nodes = (
"537 0 LINE",
"579 182 LINE",
"242 182 LINE",
"253 133 LINE",
"657 520 LINE",
"694 680 LINE",
"130 680 LINE",
"88 498 LINE",
"425 498 LINE",
"401 538 LINE",
"10 160 LINE",
"-27 0 LINE"
);
}
);
width = 624;
},
{
anchors = (
{
name = bottom;
position = "{230, 0}";
},
{
name = top;
position = "{377, 680}";
}
);
layerId = "C8A0F6C7-7618-41E1-A0A3-A261758331D0";
leftMetricsKey = "=35";
paths = (
{
closed = 1;
nodes = (
"477 0 LINE",
"487 41 LINE",
"35 41 LINE",
"40 21 LINE",
"627 650 LINE",
"634 680 LINE",
"140 680 LINE",
"131 639 LINE",
"583 639 LINE",
"575 657 LINE",
"-10 30 LINE",
"-17 0 LINE"
);
}
);
width = 564;
},
{
anchors = (
{
name = bottom;
position = "{235, 0}";
},
{
name = top;
position = "{366, 680}";
}
);
layerId = "3FCD75D8-58B8-44DB-99C9-FF8F25B81242";
leftMetricsKey = "=35";
paths = (
{
closed = 1;
nodes = (
"487 0 LINE",
"503 72 LINE",
"71 72 LINE",
"80 42 LINE",
"628 614 LINE",
"644 680 LINE",
"140 680 LINE",
"123 609 LINE",
"558 609 LINE",
"548 639 LINE",
"-3 62 LINE",
"-17 0 LINE"
);
}
);
width = 574;
}
);
leftKerningGroup = Z;
rightKerningGroup = Z;
rightMetricsKey = "=|";
unicode = 005A;
},
{
color = 4;
glyphname = Zhook;
lastChange = "2019-02-05 21:48:03 +0000";
layers = (
{
layerId = UUID0;
paths = (
{
closed = 1;
nodes = (
"465 -220 LINE",
"521 -153 OFFCURVE",
"564 -74 OFFCURVE",
"564 6 CURVE SMOOTH",
"564 106 OFFCURVE",
"492 182 OFFCURVE",
"365 182 CURVE SMOOTH",
"242 182 LINE",
"253 133 LINE",
"657 520 LINE",
"694 680 LINE",
"130 680 LINE",
"88 498 LINE",
"425 498 LINE",
"401 538 LINE",
"10 160 LINE",
"-27 0 LINE",
"265 0 LINE SMOOTH",
"306 0 OFFCURVE",
"328 -16 OFFCURVE",
"328 -56 CURVE SMOOTH",
"328 -102 OFFCURVE",
"294 -160 OFFCURVE",
"245 -220 CURVE"
);
}
);
width = 624;
},
{
layerId = "C8A0F6C7-7618-41E1-A0A3-A261758331D0";
paths = (
{
closed = 1;
nodes = (
"404 -220 LINE",
"451 -170 OFFCURVE",
"484 -123 OFFCURVE",
"484 -67 CURVE SMOOTH",
"484 4 OFFCURVE",
"435 41 OFFCURVE",
"341 41 CURVE SMOOTH",
"34 41 LINE",
"40 21 LINE",
"627 650 LINE",
"634 680 LINE",
"140 680 LINE",
"131 639 LINE",
"583 639 LINE",
"575 657 LINE",
"-10 30 LINE",
"-17 0 LINE",
"332 0 LINE SMOOTH",
"398 0 OFFCURVE",
"432 -23 OFFCURVE",
"432 -68 CURVE SMOOTH",
"432 -118 OFFCURVE",
"391 -171 OFFCURVE",
"348 -220 CURVE"
);
}
);
width = 564;
},
{
layerId = "3FCD75D8-58B8-44DB-99C9-FF8F25B81242";
paths = (
{
closed = 1;
nodes = (
"404 -220 LINE",
"459 -158 OFFCURVE",
"481 -110 OFFCURVE",
"481 -58 CURVE SMOOTH",
"481 71 OFFCURVE",
"351 72 OFFCURVE",
"321 72 CURVE SMOOTH",
"72 72 LINE",
"87 42 LINE",
"628 614 LINE",
"644 680 LINE",
"140 680 LINE",
"123 609 LINE",
"558 609 LINE",
"541 639 LINE",
"-3 62 LINE",
"-17 0 LINE",
"290 0 LINE SMOOTH",
"318 0 OFFCURVE",
"391 0 OFFCURVE",
"391 -68 CURVE SMOOTH",
"391 -117 OFFCURVE",
"352 -166 OFFCURVE",
"306 -220 CURVE"
);
}
);
width = 574;
}
);
leftKerningGroup = Z;
leftMetricsKey = Z;
widthMetricsKey = Z;
rightKerningGroup = Z;
unicode = 0224;
},
{
color = 4;
glyphname = Zstroke;
lastChange = "2019-02-05 21:48:03 +0000";
layers = (
{
components = (
{
name = Z;
}
);
guideLines = (
{
angle = 90;
position = "{54, 589}";
},
{
angle = 90;
position = "{638, 589}";
},
{
position = "{-2, 435}";
},
{
angle = 48.6114;
position = "{205, 331}";
}
);
layerId = UUID0;
paths = (
{
closed = 1;
nodes = (
"599 256 LINE",
"640 434 LINE",
"76 434 LINE",
"35 256 LINE"
);
}
);
width = 626;
},
{
components = (
{
name = Z;
}
);
guideLines = (
{
angle = 270;
position = "{588, 21}";
},
{
angle = 270;
position = "{64, 61}";
},
{
position = "{33, 371}";
},
{
angle = 52.9114;
position = "{64, 30}";
}
);
layerId = "C8A0F6C7-7618-41E1-A0A3-A261758331D0";
paths = (
{
closed = 1;
nodes = (
"556 330 LINE",
"565 371 LINE",
"71 371 LINE",
"62 330 LINE"
);
}
);
width = 567;
},
{
components = (
{
name = Z;
}
);
layerId = "3FCD75D8-58B8-44DB-99C9-FF8F25B81242";
paths = (
{
closed = 1;
nodes = (
"561 315 LINE",
"578 386 LINE",
"74 386 LINE",
"57 315 LINE"
);
}
);
width = 576;
}
);
leftKerningGroup = Z;
leftMetricsKey = Z;
rightKerningGroup = Z;
rightMetricsKey = Z;
unicode = 01B5;
},
{
color = 4;
glyphname = Zswashtail;
lastChange = "2019-02-05 21:48:03 +0000";
layers = (
{
layerId = UUID0;
paths = (
{
closed = 1;
nodes = (
"543 -28 LINE",
"289 -57 OFFCURVE",
"332 125 OFFCURVE",
"68 151 CURVE",
"177 71 LINE",
"657 520 LINE",
"694 680 LINE",
"130 680 LINE",
"88 498 LINE",
"425 498 LINE",
"416 538 LINE",
"10 160 LINE",
"-27 0 LINE",
"212 -22 OFFCURVE",
"185 -218 OFFCURVE",
"497 -227 CURVE"
);
}
);
width = 624;
},
{
guideLines = (
{
angle = 270;
position = "{654, 665}";
}
);
layerId = "C8A0F6C7-7618-41E1-A0A3-A261758331D0";
paths = (
{
closed = 1;
nodes = (
"454 -143 LINE",
"257 -172 OFFCURVE",
"258 13 OFFCURVE",
"12 35 CURVE",
"40 21 LINE",
"627 650 LINE",
"634 680 LINE",
"140 680 LINE",
"131 639 LINE",
"583 639 LINE",
"575 657 LINE",
"-10 30 LINE",
"-17 0 LINE",
"237 -19 OFFCURVE",
"221 -201 OFFCURVE",
"445 -185 CURVE"
);
}
);
width = 564;
},
{
layerId = "3FCD75D8-58B8-44DB-99C9-FF8F25B81242";
paths = (
{
closed = 1;
nodes = (
"445 -125 LINE",
"229 -147 OFFCURVE",
"266 38 OFFCURVE",
"45 62 CURVE",
"79 41 LINE",
"629 614 LINE",
"644 680 LINE",
"140 680 LINE",
"124 609 LINE",
"559 609 LINE",
"552 639 LINE",
"-2 62 LINE",
"-17 0 LINE",
"233 -24 OFFCURVE",
"159 -209 OFFCURVE",
"426 -206 CURVE"
);
}
);
width = 574;
}
);
leftKerningGroup = Z;
leftMetricsKey = Z;
widthMetricsKey = Z;
rightKerningGroup = Z;
unicode = 2C7F;
},
{
color = 4;
glyphname = Y.alt;
lastChange = "2019-02-05 21:48:03 +0000";
layers = (
{
anchors = (
{
name = bottom;
position = "{250, 0}";
},
{
name = top;
position = "{385, 680}";
},
{
name = topleft;
position = "{65, 680}";
}
);
layerId = UUID0;
paths = (
{
closed = 1;
nodes = (
"361 0 LINE",
"429 295 LINE",
"749 680 LINE",
"501 680 LINE",
"346 493 LINE",
"279 680 LINE",
"65 680 LINE",
"208 293 LINE",
"141 0 LINE"
);
}
);
width = 614;
},
{
anchors = (
{
name = bottom;
position = "{185, 0}";
},
{
name = top;
position = "{325, 680}";
},
{
name = topleft;
position = "{80, 680}";
}
);
layerId = "C8A0F6C7-7618-41E1-A0A3-A261758331D0";
paths = (
{
closed = 1;
nodes = (
"211 0 LINE",
"279 295 LINE",
"604 680 LINE",
"542 680 LINE",
"259 339 LINE",
"134 680 LINE",
"80 680 LINE",
"229 292 LINE",
"162 0 LINE"
);
}
);
width = 474;
},
{
anchors = (
{
name = bottom;
position = "{193, 0}";
},
{
name = top;
position = "{329, 680}";
},
{
name = topleft;
position = "{93, 680}";
}
);
layerId = "3FCD75D8-58B8-44DB-99C9-FF8F25B81242";
paths = (
{
closed = 1;
nodes = (
"236 0 LINE",
"308 315 LINE",
"621 680 LINE",
"521 680 LINE",
"277 392 LINE",
"167 680 LINE",
"77 680 LINE",
"222 313 LINE",
"151 0 LINE"
);
}
);
width = 488;
}
);
leftKerningGroup = Y;
leftMetricsKey = Y;
rightKerningGroup = Y;
rightMetricsKey = Y;
},
{
color = 4;
glyphname = W.ss03;
lastChange = "2019-02-05 21:48:03 +0000";
layers = (
{
anchors = (
{
name = bottom;
position = "{449, 0}";
},
{
name = top;
position = "{595, 680}";
}
);
layerId = "C8A0F6C7-7618-41E1-A0A3-A261758331D0";
paths = (
{
closed = 1;
nodes = (
"232 0 LINE",
"582 600 LINE",
"656 0 LINE",
"702 0 LINE",
"1100 680 LINE",
"1046 680 LINE",
"693 67 LINE",
"619 680 LINE",
"578 680 LINE",
"223 67 LINE",
"147 680 LINE",
"95 680 LINE",
"186 0 LINE"
);
}
);
width = 985;
},
{
anchors = (
{
name = bottom;
position = "{442, 0}";
},
{
name = top;
position = "{599, 680}";
}
);
layerId = "3FCD75D8-58B8-44DB-99C9-FF8F25B81242";
paths = (
{
closed = 1;
nodes = (
"256 0 LINE",
"569 553 LINE",
"629 0 LINE",
"712 0 LINE",
"1107 680 LINE",
"1011 680 LINE",
"692 108 LINE",
"636 680 LINE",
"556 680 LINE",
"236 108 LINE",
"179 680 LINE",
"90 680 LINE",
"174 0 LINE"
);
}
);
width = 987;
},
{
anchors = (
{
name = bottom;
position = "{477, 0}";
},
{
name = top;
position = "{618, 680}";
}
);
layerId = UUID0;
paths = (
{
closed = 1;
nodes = (
"360 0 LINE",
"558 391 LINE",
"582 0 LINE",
"801 0 LINE",
"1187 680 LINE",
"952 680 LINE",
"741 266 LINE",
"710 680 LINE",
"522 680 LINE",
"312 266 LINE",
"290 680 LINE",
"74 680 LINE",
"153 0 LINE"
);
}
);
width = 1061;
}
);
leftKerningGroup = V;
leftMetricsKey = W;
rightKerningGroup = V;
rightMetricsKey = W;
},
{
color = 4;
glyphname = Q.ss04;
lastChange = "2019-02-05 21:48:03 +0000";
layers = (
{
layerId = UUID0;
paths = (
{
closed = 1;
nodes = (
"587 -12 OFFCURVE",
"760 146 OFFCURVE",
"760 375 CURVE SMOOTH",
"760 566 OFFCURVE",
"629 692 OFFCURVE",
"439 692 CURVE SMOOTH",
"212 692 OFFCURVE",
"40 534 OFFCURVE",
"40 305 CURVE SMOOTH",
"40 114 OFFCURVE",
"170 -12 OFFCURVE",
"360 -12 CURVE SMOOTH"
);
},
{
closed = 1;
nodes = (
"305 196 OFFCURVE",
"259 257 OFFCURVE",
"259 329 CURVE SMOOTH",
"259 417 OFFCURVE",
"330 485 OFFCURVE",
"415 485 CURVE SMOOTH",
"496 485 OFFCURVE",
"541 424 OFFCURVE",
"541 351 CURVE SMOOTH",
"541 264 OFFCURVE",
"470 196 OFFCURVE",
"385 196 CURVE SMOOTH"
);
},
{
closed = 1;
nodes = (
"1068 -263 OFFCURVE",
"1115 -259 OFFCURVE",
"1188 -240 CURVE",
"1227 -64 LINE",
"1155 -83 OFFCURVE",
"1099 -89 OFFCURVE",
"1051 -89 CURVE SMOOTH",
"880 -89 OFFCURVE",
"775 4 OFFCURVE",
"707 67 CURVE SMOOTH",
"645 124 LINE",
"471 16 LINE",
"569 -75 LINE SMOOTH",
"647 -148 OFFCURVE",
"776 -263 OFFCURVE",
"1021 -263 CURVE SMOOTH"
);
}
);
width = 800;
},
{
layerId = "C8A0F6C7-7618-41E1-A0A3-A261758331D0";
paths = (
{
closed = 1;
nodes = (
"627 -12 OFFCURVE",
"785 154 OFFCURVE",
"785 371 CURVE SMOOTH",
"785 557 OFFCURVE",
"652 693 OFFCURVE",
"459 693 CURVE SMOOTH",
"234 693 OFFCURVE",
"76 527 OFFCURVE",
"76 310 CURVE SMOOTH",
"76 125 OFFCURVE",
"209 -12 OFFCURVE",
"402 -12 CURVE SMOOTH"
);
},
{
closed = 1;
nodes = (
"240 29 OFFCURVE",
"130 147 OFFCURVE",
"130 315 CURVE SMOOTH",
"130 506 OFFCURVE",
"271 652 OFFCURVE",
"455 652 CURVE SMOOTH",
"621 652 OFFCURVE",
"731 534 OFFCURVE",
"731 366 CURVE SMOOTH",
"731 175 OFFCURVE",
"590 29 OFFCURVE",
"406 29 CURVE SMOOTH"
);
},
{
closed = 1;
nodes = (
"1213 -263 OFFCURVE",
"1277 -257 OFFCURVE",
"1351 -227 CURVE",
"1361 -177 LINE",
"1296 -207 OFFCURVE",
"1221 -220 OFFCURVE",
"1159 -220 CURVE SMOOTH",
"1009 -220 OFFCURVE",
"865 -137 OFFCURVE",
"718 1 CURVE SMOOTH",
"640 75 LINE",
"596 44 LINE",
"685 -38 LINE SMOOTH",
"843 -182 OFFCURVE",
"981 -263 OFFCURVE",
"1155 -263 CURVE SMOOTH"
);
}
);
width = 802;
},
{
layerId = "3FCD75D8-58B8-44DB-99C9-FF8F25B81242";
paths = (
{
closed = 1;
nodes = (
"609 -12 OFFCURVE",
"778 148 OFFCURVE",
"778 367 CURVE SMOOTH",
"778 552 OFFCURVE",
"648 692 OFFCURVE",
"457 692 CURVE SMOOTH",
"235 692 OFFCURVE",
"73 529 OFFCURVE",
"73 313 CURVE SMOOTH",
"73 130 OFFCURVE",
"202 -12 OFFCURVE",
"394 -12 CURVE SMOOTH"
);
},
{
closed = 1;
nodes = (
"261 61 OFFCURVE",
"158 164 OFFCURVE",
"158 314 CURVE SMOOTH",
"158 495 OFFCURVE",
"289 619 OFFCURVE",
"451 619 CURVE SMOOTH",
"589 619 OFFCURVE",
"693 516 OFFCURVE",
"693 362 CURVE SMOOTH",
"693 184 OFFCURVE",
"562 61 OFFCURVE",
"400 61 CURVE SMOOTH"
);
},
{
closed = 1;
nodes = (
"1207 -267 OFFCURVE",
"1274 -260 OFFCURVE",
"1344 -236 CURVE",
"1362 -157 LINE",
"1297 -180 OFFCURVE",
"1220 -189 OFFCURVE",
"1157 -189 CURVE SMOOTH",
"1005 -189 OFFCURVE",
"877 -113 OFFCURVE",
"741 15 CURVE SMOOTH",
"656 95 LINE",
"587 44 LINE",
"685 -48 LINE SMOOTH",
"829 -183 OFFCURVE",
"969 -267 OFFCURVE",
"1150 -267 CURVE SMOOTH"
);
}
);
width = 831;
}
);
leftKerningGroup = O;
leftMetricsKey = O;
rightKerningGroup = Q.ss02;
},
{
color = 4;
glyphname = Q.ss05;
lastChange = "2019-02-05 21:48:03 +0000";
layers = (
{
layerId = UUID0;
paths = (
{
closed = 1;
nodes = (
"397 -12 OFFCURVE",
"432 -8 OFFCURVE",
"465 0 CURVE",
"730 0 LINE",
"772 182 LINE",
"687 182 LINE",
"744 237 OFFCURVE",
"760 323 OFFCURVE",
"760 375 CURVE SMOOTH",
"760 566 OFFCURVE",
"629 692 OFFCURVE",
"439 692 CURVE SMOOTH",
"212 692 OFFCURVE",
"40 534 OFFCURVE",
"40 305 CURVE SMOOTH",
"40 114 OFFCURVE",
"170 -12 OFFCURVE",
"360 -12 CURVE SMOOTH"
);
},
{
closed = 1;
nodes = (
"305 196 OFFCURVE",
"259 257 OFFCURVE",
"259 329 CURVE SMOOTH",
"259 417 OFFCURVE",
"330 485 OFFCURVE",
"415 485 CURVE SMOOTH",
"496 485 OFFCURVE",
"541 424 OFFCURVE",
"541 351 CURVE SMOOTH",
"541 264 OFFCURVE",
"470 196 OFFCURVE",
"385 196 CURVE SMOOTH"
);
}
);
width = 777;
},
{
layerId = "3FCD75D8-58B8-44DB-99C9-FF8F25B81242";
paths = (
{
closed = 1;
nodes = (
"429 -12 OFFCURVE",
"462 -8 OFFCURVE",
"494 0 CURVE",
"783 0 LINE",
"799 72 LINE",
"640 72 LINE",
"725 141 OFFCURVE",
"778 246 OFFCURVE",
"778 367 CURVE SMOOTH",
"778 552 OFFCURVE",
"648 692 OFFCURVE",
"457 692 CURVE SMOOTH",
"235 692 OFFCURVE",
"73 529 OFFCURVE",
"73 313 CURVE SMOOTH",
"73 130 OFFCURVE",
"202 -12 OFFCURVE",
"394 -12 CURVE SMOOTH"
);
},
{
closed = 1;
nodes = (
"261 61 OFFCURVE",
"158 164 OFFCURVE",
"158 314 CURVE SMOOTH",
"158 495 OFFCURVE",
"289 619 OFFCURVE",
"451 619 CURVE SMOOTH",
"589 619 OFFCURVE",
"693 516 OFFCURVE",
"693 362 CURVE SMOOTH",
"693 184 OFFCURVE",
"562 61 OFFCURVE",
"400 61 CURVE SMOOTH"
);
}
);
width = 825;
},
{
layerId = "C8A0F6C7-7618-41E1-A0A3-A261758331D0";
paths = (
{
closed = 1;
nodes = (
"434 -12 OFFCURVE",
"467 -8 OFFCURVE",
"499 0 CURVE",
"764 0 LINE",
"774 41 LINE",
"592 41 LINE",
"710 107 OFFCURVE",
"777 228 OFFCURVE",
"777 371 CURVE SMOOTH",
"777 557 OFFCURVE",
"648 693 OFFCURVE",
"455 693 CURVE SMOOTH",
"230 693 OFFCURVE",
"76 527 OFFCURVE",
"76 310 CURVE SMOOTH",
"76 125 OFFCURVE",
"205 -12 OFFCURVE",
"398 -12 CURVE SMOOTH"
);
},
{
closed = 1;
nodes = (
"236 29 OFFCURVE",
"126 147 OFFCURVE",
"126 315 CURVE SMOOTH",
"126 506 OFFCURVE",
"267 652 OFFCURVE",
"451 652 CURVE SMOOTH",
"617 652 OFFCURVE",
"727 534 OFFCURVE",
"727 366 CURVE SMOOTH",
"727 175 OFFCURVE",
"586 29 OFFCURVE",
"402 29 CURVE SMOOTH"
);
}
);
width = 802;
}
);
leftKerningGroup = O;
leftMetricsKey = O;
rightKerningGroup = Q.alt2;
},
{
color = 4;
glyphname = M.ss06;
lastChange = "2019-02-05 21:48:03 +0000";
layers = (
{
anchors = (
{
name = bottom;
position = "{398, 0}";
},
{
name = top;
position = "{538, 680}";
}
);
layerId = UUID0;
paths = (
{
closed = 1;
nodes = (
"211 0 LINE",
"292 351 LINE",
"378 0 LINE",
"418 0 LINE",
"666 351 LINE",
"585 0 LINE",
"803 0 LINE",
"960 680 LINE",
"711 680 LINE",
"469 345 LINE",
"379 680 LINE",
"150 680 LINE",
"-7 0 LINE"
);
}
);
width = 910;
},
{
anchors = (
{
name = bottom;
position = "{406, 0}";
},
{
name = top;
position = "{549, 680}";
}
);
layerId = "C8A0F6C7-7618-41E1-A0A3-A261758331D0";
paths = (
{
closed = 1;
nodes = (
"97 0 LINE",
"225 555 LINE",
"392 -3 LINE",
"418 -3 LINE",
"843 555 LINE",
"715 0 LINE",
"764 0 LINE",
"921 680 LINE",
"884 680 LINE",
"418 68 LINE",
"240 680 LINE",
"205 680 LINE",
"48 0 LINE"
);
}
);
width = 916;
},
{
anchors = (
{
name = bottom;
position = "{406, 0}";
},
{
name = top;
position = "{541, 680}";
}
);
layerId = "3FCD75D8-58B8-44DB-99C9-FF8F25B81242";
paths = (
{
closed = 1;
nodes = (
"135 0 LINE",
"252 509 LINE",
"392 -2 LINE",
"417 -2 LINE",
"793 509 LINE",
"676 0 LINE",
"762 0 LINE",
"919 680 LINE",
"828 680 LINE",
"434 146 LINE",
"289 680 LINE",
"205 680 LINE",
"49 0 LINE"
);
}
);
width = 914;
}
);
leftKerningGroup = H;
leftMetricsKey = H;
rightKerningGroup = H;
rightMetricsKey = H;
},
{
color = 4;
glyphname = Gsmall;
lastChange = "2019-02-05 21:09:39 +0000";
layers = (
{
layerId = UUID0;
paths = (
{
closed = 1;
nodes = (
"450 -15 OFFCURVE",
"584 98 OFFCURVE",
"584 267 CURVE SMOOTH",
"584 273 OFFCURVE",
"584 279 OFFCURVE",
"583 285 CURVE",
"384 285 LINE",
"386 274 OFFCURVE",
"388 263 OFFCURVE",
"388 250 CURVE SMOOTH",
"388 186 OFFCURVE",
"342 142 OFFCURVE",
"290 142 CURVE SMOOTH",
"240 142 OFFCURVE",
"210 183 OFFCURVE",
"210 237 CURVE SMOOTH",
"210 301 OFFCURVE",
"253 346 OFFCURVE",
"308 346 CURVE SMOOTH",
"339 346 OFFCURVE",
"361 332 OFFCURVE",
"374 309 CURVE",
"526 425 LINE",
"479 476 OFFCURVE",
"407 505 OFFCURVE",
"321 505 CURVE SMOOTH",
"151 505 OFFCURVE",
"14 393 OFFCURVE",
"14 225 CURVE SMOOTH",
"14 74 OFFCURVE",
"124 -15 OFFCURVE",
"277 -15 CURVE SMOOTH"
);
},
{
closed = 1;
nodes = (
"483 187 LINE",
"505 285 LINE",
"292 285 LINE",
"270 187 LINE"
);
}
);
width = 598;
},
{
layerId = "C8A0F6C7-7618-41E1-A0A3-A261758331D0";
paths = (
{
closed = 1;
nodes = (
"404 -12 OFFCURVE",
"518 100 OFFCURVE",
"518 246 CURVE SMOOTH",
"518 246 OFFCURVE",
"518 246 OFFCURVE",
"518 247 CURVE",
"468 247 LINE",
"468 244 OFFCURVE",
"468 242 OFFCURVE",
"468 240 CURVE SMOOTH",
"468 115 OFFCURVE",
"373 28 OFFCURVE",
"262 28 CURVE SMOOTH",
"163 28 OFFCURVE",
"86 97 OFFCURVE",
"86 206 CURVE SMOOTH",
"86 333 OFFCURVE",
"181 420 OFFCURVE",
"292 420 CURVE SMOOTH",
"348 420 OFFCURVE",
"397 398 OFFCURVE",
"429 359 CURVE",
"466 389 LINE",
"426 434 OFFCURVE",
"366 460 OFFCURVE",
"295 460 CURVE SMOOTH",
"150 460 OFFCURVE",
"36 348 OFFCURVE",
"36 200 CURVE SMOOTH",
"36 75 OFFCURVE",
"130 -12 OFFCURVE",
"259 -12 CURVE SMOOTH"
);
},
{
closed = 1;
nodes = (
"511 207 LINE",
"515 247 LINE",
"257 247 LINE",
"248 207 LINE"
);
}
);
width = 554;
},
{
layerId = "3FCD75D8-58B8-44DB-99C9-FF8F25B81242";
paths = (
{
closed = 1;
nodes = (
"424 -12 OFFCURVE",
"543 101 OFFCURVE",
"543 237 CURVE SMOOTH",
"543 240 OFFCURVE",
"543 243 OFFCURVE",
"543 246 CURVE",
"460 246 LINE",
"460 244 OFFCURVE",
"460 242 OFFCURVE",
"460 237 CURVE SMOOTH",
"460 134 OFFCURVE",
"378 57 OFFCURVE",
"276 57 CURVE SMOOTH",
"182 57 OFFCURVE",
"122 122 OFFCURVE",
"122 212 CURVE SMOOTH",
"122 320 OFFCURVE",
"204 397 OFFCURVE",
"306 397 CURVE SMOOTH",
"363 397 OFFCURVE",
"408 373 OFFCURVE",
"434 334 CURVE",
"497 385 LINE",
"458 435 OFFCURVE",
"394 466 OFFCURVE",
"313 466 CURVE SMOOTH",
"156 466 OFFCURVE",
"39 355 OFFCURVE",
"39 209 CURVE SMOOTH",
"39 85 OFFCURVE",
"127 -12 OFFCURVE",
"270 -12 CURVE SMOOTH"
);
},
{
closed = 1;
nodes = (
"497 182 LINE",
"528 246 LINE",
"287 246 LINE",
"273 182 LINE"
);
}
);
width = 583;
}
);
leftKerningGroup = o;
leftMetricsKey = o;
rightKerningGroup = o;
rightMetricsKey = o;
unicode = 0262;
},
